<?xml version="1.0" encoding="UTF-8" standalone="no"?>
<!-- Created with Inkscape (http://www.inkscape.org/) -->

<svg
   version="1.1"
   id="svg1"
   width="305.58246"
   height="178.45177"
   viewBox="0 0 305.58246 178.45177"
   sodipodi:docname="a.png"
   inkscape:export-filename="a-black.png"
   inkscape:export-xdpi="96"
   inkscape:export-ydpi="96"
   xmlns:inkscape="http://www.inkscape.org/namespaces/inkscape"
   xmlns:sodipodi="http://sodipodi.sourceforge.net/DTD/sodipodi-0.dtd"
   xmlns="http://www.w3.org/2000/svg"
   xmlns:svg="http://www.w3.org/2000/svg">
  <defs
     id="defs1" />
  <sodipodi:namedview
     id="namedview1"
     pagecolor="#ffffff"
     bordercolor="#000000"
     borderopacity="0.25"
     inkscape:showpageshadow="2"
     inkscape:pageopacity="0.0"
     inkscape:pagecheckerboard="0"
     inkscape:deskcolor="#d1d1d1" />
  <g
     inkscape:groupmode="layer"
     inkscape:label="Image"
     id="g1"
     transform="translate(-6.4197569,-82.728874)">
    <path
       style="fill:#000000"
       d="m 65.432751,260.35385 c -1.211193,-1.84852 -0.92912,-4.67699 1.300961,-13.04531 0.784459,-2.94365 1.426288,-5.44366 1.426288,-5.55557 0,-0.11191 -1.578768,1.26732 -3.508372,3.06495 -3.883573,3.61795 -5.818945,5.02861 -8.836295,6.4406 -2.360536,1.10463 -3.502978,1.0766 -4.383035,-0.10754 -0.575263,-0.77403 -0.595747,-0.99596 -0.231908,-2.51261 0.239862,-0.99985 1.053512,-2.61709 2.039349,-4.05348 2.425177,-3.53353 2.56584,-3.79607 2.343798,-4.37471 -0.317065,-0.82625 -2.742731,-0.67812 -11.967442,0.73083 -11.496599,1.75596 -13.544877,2.03687 -13.702516,1.87924 -0.173182,-0.17319 5.962696,-5.31383 7.698464,-6.44979 1.814264,-1.18733 5.939374,-2.6295 8.865767,-3.09956 3.324634,-0.53402 9.787174,-0.24291 20.24219,0.91182 4.576,0.50541 8.351754,0.8973 8.390564,0.87087 0.03881,-0.0264 -0.502446,-2.1283 -1.202791,-4.67082 -3.051786,-11.07916 -4.060941,-17.84365 -5.296453,-35.50277 -0.715618,-10.2283 -0.500803,-17.83313 0.626442,-22.17714 1.04699,-4.03473 2.621089,-7.28063 4.955105,-10.21774 3.440183,-4.32911 7.130045,-6.95714 9.789963,-6.97272 2.502828,-0.0147 7.066051,-2.40597 8.229108,-4.3124 0.835976,-1.37029 0.755142,-3.54016 -0.203296,-5.45717 -0.888551,-1.77723 -2.350724,-3.5827 -7.160509,-8.84167 -3.691275,-4.036 -7.031364,-8.80733 -9.233861,-13.19059 -1.791136,-3.5646 -2.486355,-5.53514 -3.341279,-9.47057 -1.168098,-5.37704 -3.328452,-10.43761 -4.789653,-11.21962 -0.522986,-0.27989 -0.791219,-0.23226 -1.318299,0.23411 -1.471263,1.30181 -3.607833,7.36744 -4.575651,12.99006 -0.279795,1.6255 -0.931736,4.6385 -1.448757,6.69556 -2.350828,9.35317 -4.862327,13.8858 -8.735351,15.76515 C 41.87298,143.3307 27.954919,139.18311 17.641129,128.64351 14.553971,125.48876 10.736664,120.21529 8.9521469,116.64 7.5073182,113.74528 7.3093972,113.07974 6.8774738,109.66361 6.3476534,105.47321 6.264783,100.32824 6.6971116,98.465914 7.1526479,96.503617 8.9472275,93.815876 11.563925,91.176891 15.406481,87.301606 19.446935,85.485656 28.32,83.646006 c 6.109957,-1.266775 9.925091,-1.227703 15.36,0.157308 5.707169,1.454392 10.157744,3.127553 17.12,6.436138 10.350728,4.918846 12.840984,5.557476 21.76,5.580381 4.227672,0.01086 7.839038,-0.177973 11.198435,-0.585541 3.906874,-0.473988 6.146387,-0.562078 10.559995,-0.415369 8.55483,0.284363 14.26166,1.701901 21.93865,5.449407 7.48303,3.65283 14.62229,8.18378 21.33212,13.53848 7.0861,5.65499 10.55733,7.45037 13.59874,7.0335 0.79596,-0.1091 2.58675,-0.71288 3.97952,-1.34174 5.48574,-2.47688 13.83488,-3.54928 30.99063,-3.98057 12.12204,-0.30475 23.92147,-0.92112 33.60191,-1.75527 2.904,-0.25023 7.296,-0.62386 9.76,-0.83029 5.17714,-0.43373 11.57206,-0.21062 14.53228,0.507 1.12875,0.27364 2.77278,0.88967 3.65341,1.36897 3.11204,1.69378 8.96927,8.26515 13.72541,15.39887 4.8124,7.21811 10.26309,12.76923 15.6089,15.89649 5.05409,2.95661 9.04694,8.36826 11.31544,15.33623 0.45839,1.408 1.55644,5.83758 2.44011,9.84352 l 1.60666,7.28351 -7.48865,13.5357 c -4.11877,7.44462 -8.56487,15.68704 -9.88023,18.31648 -4.69386,9.38308 -7.91333,17.42744 -7.91333,19.77267 0,0.96768 0.13095,1.18879 0.8041,1.35774 1.94136,0.48725 7.05834,-0.99722 13.21494,-3.83375 5.23542,-2.41211 9.40818,-3.91448 12.6312,-4.54774 2.57816,-0.50657 2.81214,-0.50707 3.57426,-0.008 2.09606,1.37339 0.39983,3.89385 -5.75432,8.55043 -3.1422,2.37757 -4.21671,3.35602 -3.88769,3.54015 0.25008,0.13995 2.306,0.9112 4.56872,1.71388 2.26272,0.80268 4.70961,1.80845 5.43752,2.23504 1.57136,0.92088 3.23996,2.74338 3.8513,4.20653 0.65835,1.57566 0.56857,3.82495 -0.18267,4.57619 -0.81752,0.81752 -1.34019,0.65366 -6.70258,-2.10118 L 300.38955,243.68 h -2.8062 -2.80621 l -4.90857,2.48007 c -5.25795,2.65658 -6.84458,3.10282 -8.79575,2.47377 -2.62342,-0.84578 -6.67024,-4.32431 -9.02277,-7.75572 -1.55314,-2.26542 -3.20045,-5.92458 -3.57072,-7.9316 -0.79832,-4.32734 1.97586,-10.98046 15.60586,-37.42652 6.54027,-12.68996 9.67481,-20.59686 9.67481,-24.40473 0,-2.54905 -1.1574,-6.71531 -2.80704,-10.1044 -1.75306,-3.60157 -3.64962,-5.36272 -8.10303,-7.52449 -7.19361,-3.49192 -12.76599,-5.05393 -32.10413,-8.99916 l -13.4142,-2.73668 -15.8658,6.7575 c -8.72619,3.71663 -15.99003,6.87418 -16.14187,7.0168 -0.26795,0.25167 5.73658,4.32077 11.99199,8.12662 3.81441,2.32073 8.43655,5.74535 11.60834,8.60084 1.88445,1.69652 2.66172,2.67774 3.54879,4.48 1.58664,3.22355 2.19733,6.36682 1.96476,10.11273 -0.1648,2.6542 -0.33801,3.31788 -1.48364,5.68476 -1.51923,3.13871 -5.96035,9.88154 -9.52214,14.45719 -1.37997,1.77278 -6.74871,8.21126 -11.93053,14.30774 -5.18183,6.09647 -9.46308,11.19592 -9.5139,11.33209 -0.0508,0.13618 3.69318,-0.54126 8.32,-1.50542 8.08757,-1.68532 8.61628,-1.75472 13.6924,-1.7972 4.79154,-0.0401 5.41852,0.0198 6.77728,0.64777 0.98099,0.45335 1.68273,1.05057 2.03509,1.73195 0.86543,1.67357 0.21898,3.1823 -2.52617,5.89574 -3.35674,3.31798 -7.50999,5.31381 -12.3505,5.93498 -2.86017,0.36703 -3.37615,0.73249 -2.2557,1.59765 1.11705,0.86255 5.24878,2.85004 9.6,4.6179 2.024,0.82234 3.78977,1.60193 3.92393,1.73242 0.13417,0.1305 -1.8162,0.62824 -4.33414,1.10608 -4.25561,0.80762 -4.80088,0.84398 -7.74106,0.51613 -6.16288,-0.68721 -12.68607,-2.85797 -16.88682,-5.61955 -3.24491,-2.1332 -7.67353,-6.6096 -8.37152,-8.46182 -0.53044,-1.40763 -0.52639,-1.51666 0.12065,-3.24603 1.55789,-4.16383 6.42784,-11.00483 13.62349,-19.13741 8.53735,-9.64898 17.54795,-21.34338 19.31535,-25.06841 3.02835,-6.38267 2.50063,-8.63501 -3.53085,-15.06972 C 215.43072,170.13455 208.36615,166.4 202.28956,166.4 c -3.92664,0 -9.19039,1.41885 -13.59485,3.66452 -3.58053,1.82558 -12.05537,7.76038 -12.05227,8.44002 0.001,0.2945 0.57706,4.71146 1.27937,9.81546 1.74263,12.66453 2.01219,16.74347 1.84493,27.91719 -0.13859,9.25854 -0.1662,9.59489 -0.99513,12.12028 -1.58593,4.83167 -5.89389,12.47762 -10.42896,18.50977 -4.56719,6.07487 -12.54628,13.61276 -14.40952,13.61276 -1.0903,0 -1.71949,-1.13867 -1.50279,-2.71966 0.25704,-1.87535 0.80417,-2.91947 3.28928,-6.27713 1.12221,-1.51623 2.04038,-2.99223 2.04038,-3.28 0,-0.74953 -1.31453,-0.67545 -5.54312,0.31237 -3.90991,0.91338 -8.96595,1.15466 -10.54081,0.50302 -0.48617,-0.20116 -1.0443,-0.71771 -1.2403,-1.14789 -0.72652,-1.59454 1.65656,-4.79169 4.76423,-6.39169 0.572,-0.2945 1.04,-0.67484 1.04,-0.84521 0,-0.18661 -1.62199,-0.28591 -4.08,-0.24977 -3.26426,0.048 -4.33358,-0.0508 -5.34829,-0.49423 -2.52227,-1.10218 -3.04514,-2.2251 -1.57468,-3.38177 1.91836,-1.50898 7.20473,-2.23521 18.84297,-2.58862 9.93788,-0.30177 11.85945,-0.57364 14.34344,-2.02936 2.69575,-1.57981 3.77122,-5.09462 4.39775,-14.37264 0.19304,-2.85858 0.26094,-6.56542 0.15088,-8.23742 -0.30956,-4.70287 -1.14878,-14.52056 -1.2736,-14.89932 -0.0971,-0.29458 -8.46527,0.39721 -19.46566,1.60921 l -1.84719,0.20352 3.57641,-5.37671 c 5.45415,-8.19964 8.46428,-15.03691 6.88659,-15.64232 -1.28575,-0.49339 -9.93589,2.62725 -18.91222,6.82282 -6.90408,3.22698 -17.58079,7.78173 -21.20602,9.04662 l -2.94962,1.02916 -1.42168,-0.83316 c -0.91556,-0.53655 -1.89846,-1.54635 -2.76094,-2.83649 -1.28727,-1.92556 -1.33439,-2.08407 -1.21398,-4.08333 0.09,-1.49485 0.41099,-2.67231 1.14087,-4.18543 2.21175,-4.58525 5.12227,-8.03967 18.44133,-21.88751 2.9735,-3.09155 5.3495,-5.66428 5.28,-5.71717 -0.14678,-0.1117 -11.55042,0.56046 -17.95311,1.0582 -11.58507,0.90063 -24.430595,4.27545 -30.97325,8.1374 -3.484845,2.05701 -7.605595,5.49572 -9.343716,7.7972 -2.465534,3.26467 -3.430032,7.56634 -4.107005,18.31731 -0.490011,7.78184 -0.05883,13.47451 1.631523,21.5403 1.371841,6.54595 2.729568,10.20642 6.812005,18.36538 l 3.681049,7.35677 -4.324653,3.96877 c -2.37856,2.18283 -5.315936,5.19278 -6.527502,6.68878 -2.442739,3.01621 -5.101701,7.85474 -5.101701,9.28359 0,1.91422 -0.697249,4.15001 -1.593385,5.10933 -1.196644,1.28101 -3.239172,1.38326 -4.013864,0.20093 z M 117.41386,146.73352 c 1.24209,-0.64231 2.71567,-3.07815 3.56009,-5.88484 0.62641,-2.08207 0.68779,-2.83325 0.53604,-6.56 -0.30009,-7.36952 -1.84662,-11.31189 -6.25453,-15.94385 -3.48559,-3.66275 -6.07149,-5.59214 -10.61546,-7.92037 -5.016546,-2.57037 -7.241191,-3.27866 -10.340314,-3.29219 -2.312712,-0.0101 -2.724553,0.0943 -5.191158,1.3166 -1.871441,0.92734 -3.018624,1.74185 -3.805156,2.70171 -1.736553,2.11923 -2.859032,4.83695 -3.004035,7.27329 -0.109644,1.84224 -0.0061,2.33994 0.83302,4.00213 3.394201,6.72387 13.595853,15.59828 24.800573,21.57401 3.1315,1.67009 6.91694,3.18051 8.00296,3.19324 0.31674,0.004 0.98183,-0.20317 1.47797,-0.45973 z M 102.56,134.66869 c -0.704,-0.36466 -3.013353,-2.4103 -5.131895,-4.54586 C 94.512666,127.18398 93.294,125.69542 92.41541,124 c -1.589508,-3.06728 -1.777533,-4.24588 -0.862865,-5.40869 1.608087,-2.04435 6.028209,-3.06063 8.959705,-2.06003 2.91346,0.99445 6.17494,3.82699 8.48997,7.3734 1.7403,2.66596 2.03778,3.43498 2.03778,5.26779 0,2.00371 -0.75655,3.4111 -2.63964,4.91044 -1.36038,1.08315 -1.82844,1.27494 -3.08216,1.26295 -0.84478,-0.008 -2.02669,-0.29826 -2.7582,-0.67717 z m 48.46874,7.75235 c 0.49893,-0.93227 0.39778,-5.58762 -0.1698,-7.81485 -0.27559,-1.0814 -1.07258,-3.156 -1.7711,-4.61022 -1.0437,-2.17284 -1.59596,-2.90184 -3.09894,-4.0907 -2.76525,-2.18733 -5.54075,-3.47055 -6.93909,-3.20822 -0.69616,0.1306 -1.33507,0.51873 -1.65325,1.00434 -0.47906,0.73113 -0.47765,0.89869 0.0185,2.19771 1.24061,3.24849 8.63887,13.58637 11.55599,16.14763 1.32066,1.15955 1.60938,1.21207 2.05774,0.37431 z m 20.75364,-6.20318 c 1.56069,-1.4953 3.23187,-4.42066 3.45488,-6.04769 0.24294,-1.77247 -0.48138,-3.34866 -1.67672,-3.64867 -2.23858,-0.56185 -7.65538,0.76612 -8.84054,2.16732 -0.72583,0.85814 -0.74912,3.77592 -0.042,5.266 0.53595,1.12943 2.35677,2.76475 3.68275,3.30757 1.10334,0.45167 2.21386,0.11266 3.42166,-1.04453 z M 45.81045,132.90878 c 1.402414,-0.81906 2.381301,-2.31806 2.805542,-4.29623 0.518635,-2.41831 0.423113,-10.27309 -0.167288,-13.75616 -0.685088,-4.04167 -2.402377,-9.26888 -3.881357,-11.81436 -1.792011,-3.084239 -5.287159,-6.410446 -8.298515,-7.897399 -2.351411,-1.161083 -2.630299,-1.22275 -5.374469,-1.188378 -6.254299,0.07834 -14.004642,3.822734 -15.864421,7.664527 -0.609505,1.25907 -0.686312,1.84013 -0.560345,4.23914 0.175292,3.33838 1.225347,6.25901 3.778431,10.50934 5.59812,9.31966 10.926337,14.1435 18.391972,16.65097 2.852863,0.95819 7.434313,0.90251 9.17045,-0.11145 z m -14.547093,-9.19174 c -4.432763,-1.65072 -7.698919,-7.08457 -7.718102,-12.84047 -0.02834,-8.50171 9.307194,-7.7231 15.3883,1.28343 2.992363,4.43189 3.431734,6.62611 1.717715,8.57827 -2.221875,2.53058 -6.740955,3.96447 -9.387913,2.97877 z"
       id="path1" />
  </g>
</svg>
