<?xml version="1.0" encoding="UTF-8" standalone="no"?>
<!-- Created with Inkscape (http://www.inkscape.org/) -->

<svg
   version="1.1"
   id="svg1"
   width="254.77716"
   height="301.99506"
   viewBox="0 0 254.77716 301.99506"
   xml:space="preserve"
   xmlns="http://www.w3.org/2000/svg"
   xmlns:svg="http://www.w3.org/2000/svg"><defs
     id="defs1" /><g
     id="g8"
     style="fill:#000000"
     transform="translate(-32.180477,-8.7249517)"><path
       style="fill:#000000;fill-opacity:1"
       d="m 136.86168,304.88 -0.6096,-0.72 0.72,0.6096 c 0.396,0.33527 0.72,0.65927 0.72,0.72 0,0.25608 -0.25753,0.067 -0.8304,-0.6096 z m -33.70434,-15.46667 c 0.0154,-0.37278 0.0912,-0.4486 0.19334,-0.19333 0.0924,0.231 0.0811,0.507 -0.0253,0.61333 -0.10633,0.10634 -0.18196,-0.0827 -0.16807,-0.42 z m 101.97474,-14.45026 c 1.1,-0.0625 2.9,-0.0625 4,0 1.1,0.0625 0.2,0.11362 -2,0.11362 -2.2,0 -3.1,-0.0511 -2,-0.11362 z M 121.33126,251.92 c -0.39804,-0.50754 -0.38672,-0.51886 0.12082,-0.12082 0.308,0.24155 0.56,0.49355 0.56,0.56 0,0.26337 -0.26278,0.0939 -0.68082,-0.43918 z m -43.21918,-8.2986 c 0.231,-0.0924 0.507,-0.0811 0.613333,0.0253 0.106333,0.10633 -0.08267,0.18196 -0.42,0.16807 -0.372782,-0.0154 -0.448608,-0.0912 -0.193333,-0.19334 z m 65.66,-60.7414 c 0.59705,-0.616 1.15755,-1.12 1.24555,-1.12 0.088,0 -0.3285,0.504 -0.92555,1.12 -0.59705,0.616 -1.15755,1.12 -1.24555,1.12 -0.088,0 0.3285,-0.504 0.92555,-1.12 z M 87.822606,101.12 c 0,-0.44 0.07263,-0.62 0.161404,-0.4 0.08877,0.22 0.08877,0.58 0,0.8 -0.08877,0.22 -0.161404,0.04 -0.161404,-0.4 z"
       id="path14" /><path
       style="fill:#000000;fill-opacity:1"
       d="m 156.62261,302.72 c 0,-0.44 0.0726,-0.62 0.1614,-0.4 0.0888,0.22 0.0888,0.58 0,0.8 -0.0888,0.22 -0.1614,0.04 -0.1614,-0.4 z m -72.11053,-5.3386 c 0.231,-0.0924 0.507,-0.0811 0.613333,0.0253 0.106333,0.10633 -0.08267,0.18196 -0.42,0.16807 -0.372782,-0.0154 -0.448608,-0.0912 -0.193333,-0.19334 z m 135.76526,-4.12807 c 0.0154,-0.37278 0.0912,-0.4486 0.19334,-0.19333 0.0924,0.231 0.0811,0.507 -0.0253,0.61333 -0.10633,0.10634 -0.18196,-0.0827 -0.16807,-0.42 z m 0.741,-11.17333 c 5e-4,-2.464 0.0507,-3.4297 0.11162,-2.146 0.0609,1.2837 0.0605,3.2997 -9e-4,4.48 -0.0614,1.1803 -0.11122,0.13 -0.11072,-2.334 z m -22.68626,3.36 c 0.31856,-0.352 0.65119,-0.64 0.73919,-0.64 0.088,0 -0.10063,0.288 -0.41919,0.64 -0.31856,0.352 -0.65119,0.64 -0.73919,0.64 -0.088,0 0.10063,-0.288 0.41919,-0.64 z M 76.277343,232.45333 c 0.01535,-0.37278 0.09118,-0.4486 0.193333,-0.19333 0.09244,0.231 0.08107,0.507 -0.02526,0.61333 -0.106333,0.10634 -0.181965,-0.0827 -0.16807,-0.42 z m -20.48,-0.96 c 0.01535,-0.37278 0.09118,-0.4486 0.193333,-0.19333 0.09244,0.231 0.08107,0.507 -0.02526,0.61333 -0.106333,0.10634 -0.181965,-0.0827 -0.16807,-0.42 z M 201.61208,161.06807 c 0.22,-0.0888 0.58,-0.0888 0.8,0 0.22,0.0888 0.04,0.1614 -0.4,0.1614 -0.44,0 -0.62,-0.0726 -0.4,-0.1614 z m 29.22526,-84.774737 c 0.0154,-0.372781 0.0912,-0.448607 0.19334,-0.193333 0.0924,0.231 0.0811,0.507 -0.0253,0.613333 -0.10633,0.106334 -0.18196,-0.08267 -0.16807,-0.42 z"
       id="path13" /><path
       style="fill:#000000;fill-opacity:1"
       d="m 226.01208,293.63918 c 0,-0.0665 0.252,-0.31845 0.56,-0.56 0.50754,-0.39804 0.51886,-0.38672 0.12082,0.12082 -0.41804,0.53304 -0.68082,0.70255 -0.68082,0.43918 z m 32.16,-25.15918 c 0.31856,-0.352 0.65119,-0.64 0.73919,-0.64 0.088,0 -0.10063,0.288 -0.41919,0.64 -0.31856,0.352 -0.65119,0.64 -0.73919,0.64 -0.088,0 0.10063,-0.288 0.41919,-0.64 z M 69.981676,262 l -0.609596,-0.72 0.72,0.6096 c 0.396,0.33527 0.72,0.65927 0.72,0.72 0,0.25608 -0.257534,0.067 -0.830404,-0.6096 z m 69.975664,-14.50667 c 0.0154,-0.37278 0.0912,-0.4486 0.19334,-0.19333 0.0924,0.231 0.0811,0.507 -0.0253,0.61333 -0.10633,0.10634 -0.18196,-0.0827 -0.16807,-0.42 z m 60.71474,-86.43193 c 0.231,-0.0924 0.507,-0.0811 0.61333,0.0253 0.10634,0.10633 -0.0827,0.18196 -0.42,0.16807 -0.37278,-0.0154 -0.4486,-0.0912 -0.19333,-0.19334 z m -18.24,-102.719996 c 0.231,-0.09244 0.507,-0.08107 0.61333,0.02526 0.10634,0.106333 -0.0827,0.181965 -0.42,0.16807 -0.37278,-0.01535 -0.4486,-0.09118 -0.19333,-0.193333 z M 133.03195,49.52 l -0.93987,-1.04 1.04,0.939869 c 0.96943,0.87609 1.18709,1.140131 0.93987,1.140131 -0.0551,0 -0.52307,-0.468 -1.04,-1.04 z M 84.25208,49.159182 c 0,-0.06645 0.252,-0.318449 0.56,-0.56 0.507538,-0.398038 0.518856,-0.38672 0.120817,0.120818 -0.418038,0.533039 -0.680817,0.702553 -0.680817,0.439182 z"
       id="path12" /><path
       style="fill:#000000;fill-opacity:1"
       d="m 152.25208,293.76 c 0.31856,-0.352 0.65119,-0.64 0.73919,-0.64 0.088,0 -0.10063,0.288 -0.41919,0.64 -0.31856,0.352 -0.65119,0.64 -0.73919,0.64 -0.088,0 0.10063,-0.288 0.41919,-0.64 z m 47.44,-1.49193 c 0.22,-0.0888 0.58,-0.0888 0.8,0 0.22,0.0888 0.04,0.1614 -0.4,0.1614 -0.44,0 -0.62,-0.0726 -0.4,-0.1614 z m -18.96,-5.86807 c 0.31856,-0.352 0.65119,-0.64 0.73919,-0.64 0.088,0 -0.10063,0.288 -0.41919,0.64 -0.31856,0.352 -0.65119,0.64 -0.73919,0.64 -0.088,0 0.10063,-0.288 0.41919,-0.64 z m -0.23627,-111.58632 c 0.39805,-0.0765 0.97405,-0.0736 1.28,0.006 0.30595,0.0801 -0.0197,0.14272 -0.72373,0.13917 -0.704,-0.004 -0.95432,-0.0691 -0.55627,-0.14562 z M 56.35208,96.421404 c 0.231,-0.09244 0.507,-0.08107 0.613333,0.02526 0.106333,0.106333 -0.08267,0.181965 -0.42,0.16807 -0.372782,-0.01535 -0.448608,-0.09118 -0.193333,-0.193333 z m 70.06,-5.113334 c 0.22,-0.08877 0.58,-0.08877 0.8,0 0.22,0.08877 0.04,0.161404 -0.4,0.161404 -0.44,0 -0.62,-0.07263 -0.4,-0.161404 z M 191.73126,86.48 c -0.39804,-0.507538 -0.38672,-0.518856 0.12082,-0.120818 0.53304,0.418039 0.70255,0.680818 0.43918,0.680818 -0.0665,0 -0.31845,-0.252 -0.56,-0.56 z m 20.12082,-4.797602 c 1.276,-0.06074 3.364,-0.06074 4.64,0 1.276,0.06074 0.232,0.110436 -2.32,0.110436 -2.552,0 -3.596,-0.0497 -2.32,-0.110436 z M 43.891262,78.48 c -0.398039,-0.507538 -0.38672,-0.518856 0.120818,-0.120818 0.308,0.241551 0.56,0.493551 0.56,0.56 0,0.263371 -0.26278,0.09386 -0.680818,-0.439182 z M 208.03208,53.541404 c 0.231,-0.09244 0.507,-0.08107 0.61333,0.02526 0.10634,0.106333 -0.0827,0.181965 -0.42,0.16807 -0.37278,-0.01535 -0.4486,-0.09118 -0.19333,-0.193333 z"
       id="path11" /><path
       style="fill:#000000;fill-opacity:1"
       d="m 83.317343,295.81333 c 0.01535,-0.37278 0.09118,-0.4486 0.193333,-0.19333 0.09244,0.231 0.08107,0.507 -0.02526,0.61333 -0.106333,0.10634 -0.181965,-0.0827 -0.16807,-0.42 z M 148.19208,255.1414 c 0.231,-0.0924 0.507,-0.0811 0.61333,0.0253 0.10634,0.10633 -0.0827,0.18196 -0.42,0.16807 -0.37278,-0.0154 -0.4486,-0.0912 -0.19333,-0.19334 z m -20.82,-0.31333 c 0.22,-0.0888 0.58,-0.0888 0.8,0 0.22,0.0888 0.04,0.1614 -0.4,0.1614 -0.44,0 -0.62,-0.0726 -0.4,-0.1614 z m -40.88,-15.58889 c 0,-0.0665 0.252,-0.31845 0.56,-0.56 0.507538,-0.39804 0.518856,-0.38672 0.120817,0.12082 -0.418038,0.53304 -0.680817,0.70255 -0.680817,0.43918 z m 92.50526,-3.90585 c 0.0154,-0.37278 0.0912,-0.4486 0.19334,-0.19333 0.0924,0.231 0.0811,0.507 -0.0253,0.61333 -0.10633,0.10634 -0.18196,-0.0827 -0.16807,-0.42 z m -0.10526,-60.50526 c 0.22,-0.0888 0.58,-0.0888 0.8,0 0.22,0.0888 0.04,0.1614 -0.4,0.1614 -0.44,0 -0.62,-0.0726 -0.4,-0.1614 z m 3.52,0 c 0.22,-0.0888 0.58,-0.0888 0.8,0 0.22,0.0888 0.04,0.1614 -0.4,0.1614 -0.44,0 -0.62,-0.0726 -0.4,-0.1614 z M 163.34261,97.28 c 0,-0.44 0.0726,-0.62 0.1614,-0.4 0.0888,0.22 0.0888,0.58 0,0.8 -0.0888,0.22 -0.1614,0.04 -0.1614,-0.4 z M 86.542606,93.76 c 0,-0.44 0.07263,-0.62 0.161404,-0.4 0.08877,0.22 0.08877,0.58 0,0.8 -0.08877,0.22 -0.161404,0.04 -0.161404,-0.4 z M 45.15208,68.581404 c 0.231,-0.09244 0.507,-0.08107 0.613333,0.02526 0.106333,0.106333 -0.08267,0.181965 -0.42,0.16807 -0.372782,-0.01535 -0.448608,-0.09118 -0.193333,-0.193333 z m 64.96,-12.16 c 0.231,-0.09244 0.507,-0.08107 0.61333,0.02526 0.10634,0.106333 -0.0827,0.181965 -0.42,0.16807 -0.37278,-0.01535 -0.4486,-0.09118 -0.19333,-0.193333 z m 94.7,-2.892891 c 0.572,-0.07098 1.508,-0.07098 2.08,0 0.572,0.07099 0.104,0.129063 -1.04,0.129063 -1.144,0 -1.612,-0.05808 -1.04,-0.129063 z m 6.56609,-12.47027 c 0.31135,-0.08113 0.74335,-0.0758 0.96,0.01186 0.21665,0.08766 -0.0381,0.154038 -0.56609,0.147516 -0.528,-0.0065 -0.70526,-0.07824 -0.39391,-0.159373 z M 194.70261,30.4 c 0,-0.44 0.0726,-0.62 0.1614,-0.4 0.0888,0.22 0.0888,0.58 0,0.8 -0.0888,0.22 -0.1614,0.04 -0.1614,-0.4 z m -51.73053,-5.76 c 0.31856,-0.352 0.65119,-0.64 0.73919,-0.64 0.088,0 -0.10063,0.288 -0.41919,0.64 -0.31856,0.352 -0.65119,0.64 -0.73919,0.64 -0.088,0 0.10063,-0.288 0.41919,-0.64 z m 56.11918,-5.04 c -0.39804,-0.507538 -0.38672,-0.518856 0.12082,-0.120818 0.308,0.241551 0.56,0.493551 0.56,0.56 0,0.263371 -0.26278,0.09386 -0.68082,-0.439182 z"
       id="path10" /><path
       style="fill:#000000;fill-opacity:1"
       d="m 98.97208,284 c 0.59705,-0.616 1.15755,-1.12 1.24555,-1.12 0.088,0 -0.3285,0.504 -0.92555,1.12 -0.597051,0.616 -1.157547,1.12 -1.245547,1.12 -0.088,0 0.328496,-0.504 0.925547,-1.12 z m -33.28,-0.92082 c 0,-0.0665 0.252,-0.31845 0.56,-0.56 0.507538,-0.39804 0.518856,-0.38672 0.120817,0.12082 -0.418038,0.53304 -0.680817,0.70255 -0.680817,0.43918 z m 76.8,-88 c 0,-0.0665 0.252,-0.31845 0.56,-0.56 0.50754,-0.39804 0.51886,-0.38672 0.12082,0.12082 -0.41804,0.53304 -0.68082,0.70255 -0.68082,0.43918 z m 2.56,-2.56 c 0,-0.0665 0.252,-0.31845 0.56,-0.56 0.50754,-0.39804 0.51886,-0.38672 0.12082,0.12082 -0.41804,0.53304 -0.68082,0.70255 -0.68082,0.43918 z m 10.58526,-95.425847 c 0.0154,-0.372781 0.0912,-0.448607 0.19334,-0.193333 0.0924,0.231 0.0811,0.507 -0.0253,0.613333 -0.10633,0.106334 -0.18196,-0.08267 -0.16807,-0.42 z M 39.71208,68.581404 c 0.231,-0.09244 0.507,-0.08107 0.613333,0.02526 0.106333,0.106333 -0.08267,0.181965 -0.42,0.16807 -0.372782,-0.01535 -0.448608,-0.09118 -0.193333,-0.193333 z m 4.48,0 c 0.231,-0.09244 0.507,-0.08107 0.613333,0.02526 0.106333,0.106333 -0.08267,0.181965 -0.42,0.16807 -0.372782,-0.01535 -0.448608,-0.09118 -0.193333,-0.193333 z m 54.46,-11.742222 c 0,-0.06645 0.252,-0.318449 0.56,-0.56 0.507538,-0.398038 0.518856,-0.38672 0.120817,0.120818 -0.418038,0.533039 -0.680817,0.702553 -0.680817,0.439182 z m 111.28,-15.771112 c 0.22,-0.08877 0.58,-0.08877 0.8,0 0.22,0.08877 0.04,0.161404 -0.4,0.161404 -0.44,0 -0.62,-0.07263 -0.4,-0.161404 z m -68.4,-14.948888 c 0,-0.06645 0.252,-0.318449 0.56,-0.56 0.50754,-0.398038 0.51886,-0.38672 0.12082,0.120818 -0.41804,0.533039 -0.68082,0.702553 -0.68082,0.439182 z M 191.19446,16.8 c 0.007,-0.528 0.0782,-0.705259 0.15938,-0.39391 0.0811,0.31135 0.0758,0.74335 -0.0119,0.96 -0.0877,0.216651 -0.15404,-0.03809 -0.14752,-0.56609 z"
       id="path9" /><path
       style="fill:#000000;fill-opacity:1"
       d="m 158.65934,310 c -0.77801,-1.10047 -1.52153,-3.97023 -1.73496,-6.69639 l -0.1923,-2.45639 -1.76,1.08416 c -2.47144,1.52241 -4.56854,2.04121 -5.69845,1.40973 -0.69483,-0.38832 -0.88093,-0.74958 -0.96169,-1.86689 -0.14344,-1.98446 1.13077,-4.36946 3.93835,-7.37161 2.88397,-3.08384 5.29358,-7.61133 5.38434,-10.11683 l 0.0575,-1.58578 -1.32494,0.025 c -1.81147,0.0342 -5.66961,2.45102 -8.61375,5.39579 -2.63796,2.63854 -5.91452,7.41036 -6.68864,9.74104 l -0.54183,1.63129 1.01953,2.64343 c 2.55131,6.61503 0.42647,7.81362 -4.66574,2.63186 l -2.25536,-2.29503 -0.38402,1.61662 c -0.72312,3.04416 -3.16817,5.68335 -5.32185,5.7444 -2.06025,0.0584 -3.06831,-1.64163 -3.19013,-5.37996 -0.0368,-1.13016 -0.15343,-2.14129 -0.25911,-2.24697 -0.10568,-0.10568 -0.77636,0.1059 -1.4904,0.47018 -1.89197,0.96521 -2.82321,0.85846 -4.07321,-0.46693 -1.3074,-1.38624 -1.67685,-2.96685 -0.95204,-4.07305 0.28445,-0.43411 1.98964,-1.56519 3.78933,-2.5135 2.50304,-1.31893 3.84056,-2.28832 5.69035,-4.1242 2.76062,-2.73985 3.56345,-4.19145 3.75994,-6.79838 0.11496,-1.52529 -0.009,-2.13954 -0.72659,-3.60668 -1.59775,-3.26569 -4.22521,-4.12773 -8.30397,-2.72443 -4.38607,1.50903 -7.40973,4.20427 -10.42757,9.29495 -2.15411,3.63369 -4.95176,6.71454 -6.09732,6.71454 -2.60109,0 -4.07312,-4.51805 -2.46277,-7.5589 2.805,-5.29674 3.44009,-6.68027 3.44009,-7.49418 0,-0.73669 -0.1435,-0.94692 -0.64636,-0.94692 -2.04205,0 -8.808692,6.28652 -14.0214,13.02652 -3.015279,3.89873 -6.318829,6.34075 -8.274345,6.11646 -0.729765,-0.0837 -0.918196,-0.28166 -1.006312,-1.0572 -0.27475,-2.41818 1.928319,-6.3563 6.179241,-11.04578 3.025399,-3.33752 6.104641,-7.66564 6.429383,-9.03702 0.151082,-0.63802 0.07086,-0.92952 -0.294365,-1.06967 -1.142947,-0.43859 -8.028467,2.57664 -15.449152,6.76532 -9.603339,5.42069 -15.510146,7.56336 -16.745812,6.07448 -1.268684,-1.52867 1.678246,-4.82994 10.295809,-11.53378 2.940677,-2.28763 5.316677,-4.26662 5.28,-4.39775 -0.03668,-0.13114 -2.154687,-2.48722 -4.706687,-5.23575 -7.947567,-8.5596 -15.247098,-14.35742 -25.12,-19.95213 -4.58747,-2.5996 -7.220671,-4.48419 -9.681852,-6.92934 -4.089432,-4.06278 -4.483032,-7.43727 -1.20336,-10.31686 0.631115,-0.55412 1.250471,-1.01035 1.376347,-1.01384 0.125875,-0.003 1.209153,-0.14807 2.407283,-0.32131 3.966896,-0.57355 6.035838,-2.11086 7.869779,-5.84755 1.707849,-3.47978 3.359877,-5.11729 5.201857,-5.15615 1.1346,-0.0239 1.42934,0.1029 1.792394,0.77135 0.585649,1.07829 0.304446,5.21917 -0.554138,8.16 -1.943413,6.6566 -0.780236,9.94972 3.491639,9.88534 3.266442,-0.0492 6.883355,-2.70345 8.777396,-6.44116 2.185909,-4.31369 5.530209,-4.45445 6.768436,-0.28489 0.610948,2.05729 0.599359,3.89278 -0.04507,7.13932 -0.672268,3.38675 -0.416725,5.2946 0.883307,6.59463 0.859306,0.85931 1.087214,0.93028 2.406604,0.74944 3.225413,-0.44209 6.887764,-3.29402 11.542316,-8.98819 l 3.127067,-3.82551 0.162039,5.90551 c 0.146591,5.34252 0.232861,6.04971 0.90493,7.41804 1.366399,2.782 3.62809,3.95614 7.132246,3.70268 2.25504,-0.16312 5.42547,-1.67228 7.08025,-3.3703 0.65971,-0.67694 1.88371,-2.59297 2.72,-4.25785 0.89252,-1.7768 1.74349,-3.06819 2.06034,-3.12663 0.80946,-0.14932 1.42445,1.04531 2.36006,4.58449 1.50769,5.70319 4.79097,10.79341 7.91094,12.26468 2.04808,0.96581 4.31569,1.15029 5.65831,0.46035 1.71281,-0.88017 2.31124,-2.24066 2.62413,-5.96576 0.32348,-3.85127 0.94448,-5.91433 2.17761,-7.2344 1.26036,-1.34921 2.58936,-1.3236 3.64206,0.0702 0.97891,1.29612 1.80709,4.04587 1.80709,6 0,2.45774 0.80717,4.58745 2.22369,5.8672 1.55316,1.40319 3.29743,1.92611 6.41631,1.92356 2.86962,-0.002 4.63978,-0.52876 5.33235,-1.58575 0.47046,-0.71802 0.46344,-0.89435 -0.0913,-2.29144 -0.48841,-1.22999 -0.59415,-2.29298 -0.56434,-5.67357 0.0419,-4.74953 0.49366,-7.02757 2.18949,-11.04 1.84174,-4.35767 3.95611,-6.77045 5.43557,-6.20273 1.4343,0.55039 1.67737,6.78484 0.51008,13.08273 -0.46474,2.50747 -0.67081,4.65706 -0.59381,6.19456 0.10543,2.10529 0.21212,2.43559 1.0078,3.12 2.43648,2.09577 9.49685,-0.28095 12.8388,-4.32189 2.73853,-3.31132 4.16056,-6.93721 4.61504,-11.76742 0.34926,-3.7119 0.95751,-5.22525 2.10012,-5.22525 1.04737,0 2.26719,1.52759 3.76904,4.72 0.90626,1.92639 1.40416,2.64 1.84197,2.64 0.94457,0 2.43776,-1.72899 4.38232,-5.07438 0.98646,-1.69709 2.54932,-4.09362 3.47302,-5.32562 4.39941,-5.86779 7.58361,-15.53427 9.2761,-28.16 1.0562,-7.87914 1.03219,-12.95986 -0.0712,-15.06018 -2.7961,-5.32258 -10.78382,-8.23248 -22.65105,-8.25168 -10.24452,-0.0166 -18.13137,2.01198 -24.62761,6.33443 -1.96373,1.30662 -3.92215,3.09472 -7.12056,6.5013 -8.9166,9.49693 -13.60717,13.40687 -15.30294,12.75615 -1.51467,-0.58124 0.86375,-6.89182 4.35689,-11.56002 2.26033,-3.02069 9.2555,-9.92279 13.57421,-13.39362 1.93601,-1.55591 5.536,-4.16008 8,-5.78704 8.97148,-5.92382 13.73594,-8.33236 18.51401,-9.35926 3.0016,-0.64509 9.23846,-0.63329 14.12599,0.0267 13.36205,1.80447 17.47836,0.5282 19.23022,-5.96234 0.89696,-3.3232 1.91682,-10.77403 2.83673,-20.72448 0.53851,-5.82492 3.69305,-49.561583 3.69305,-51.202908 v -1.029684 l -5.52,0.125784 c -5.39242,0.122876 -5.55955,0.147473 -7.23136,1.064222 -3.23911,1.776192 -4.74693,5.210489 -5.62096,12.802586 -0.86959,7.55366 -0.64752,7.37371 -2.55886,2.073549 -2.00406,-5.557287 -3.63372,-8.760424 -5.44857,-10.709273 -2.25504,-2.421528 -3.78795,-1.886708 -5.201,1.814581 -0.39383,1.031585 -0.57436,2.958212 -0.71327,7.612321 l -0.18598,6.231182 -2.29918,-3.191182 c -3.6587,-5.078125 -6.61927,-7.553599 -10.89071,-9.106247 -1.4893,-0.54135 -2.4606,-0.689268 -3.86093,-0.587977 -3.66531,0.265125 -5.25654,2.498909 -5.7855,8.121776 -0.44855,4.76806 -1.768,7.18127 -3.92644,7.18127 -1.9019,0 -3.25334,-2.97729 -3.63134,-8 -0.11258,-1.496 -0.33767,-3.230859 -0.50019,-3.855241 -0.38599,-1.482859 -1.83373,-2.841386 -3.27769,-3.075709 -1.06988,-0.173617 -1.27942,-0.05939 -2.9432,1.604387 -2.22449,2.224496 -3.46506,4.798431 -4.28785,8.896443 -0.914,4.55231 -2.50625,7.60071 -4.20161,8.04405 -1.67583,0.43824 -3.35783,-2.38509 -4.45559,-7.47894 -0.8338,-3.869038 -2.31116,-6.820359 -4.09308,-8.176723 -2.70791,-2.061212 -7.14825,-2.144714 -10.3083,-0.19385 -1.89702,1.171132 -3.3848,4.016152 -3.88837,7.435583 -0.43877,2.97943 -1.367,5.21229 -2.59716,6.24739 -1.19676,1.00701 -1.56058,0.99504 -2.65678,-0.0874 -1.45001,-1.43181 -2.40215,-3.91169 -2.7617,-7.193016 -0.17881,-1.631841 -0.3962,-3.590197 -0.4831,-4.351901 -0.11328,-0.993122 -0.47231,-1.732872 -1.26916,-2.614872 -1.75645,-1.944184 -3.21012,-2.308029 -9.907592,-2.479823 -6.479038,-0.166191 -8.884665,0.155084 -10.341771,1.381158 -1.294523,1.089269 -1.448587,2.415409 -0.680968,5.861569 C 88.239119,101.92996 87.820581,104 85.693002,104 c -2.26059,0 -5.701986,-5.585663 -6.900457,-11.2 -0.723356,-3.38862 -2.172113,-6.827056 -3.071006,-7.288637 -0.324203,-0.166478 -1.281266,-0.392954 -2.126808,-0.503281 -0.845542,-0.110327 -4.229542,-0.793635 -7.52,-1.518463 -6.507082,-1.43339 -8.631129,-1.651448 -9.452775,-0.970437 -0.799045,0.66228 -0.66014,2.694963 0.448422,6.562058 0.953999,3.327919 1.284304,6.105532 0.816132,6.86305 -0.384052,0.62141 -2.561146,0.424523 -4.064099,-0.367539 C 51.283172,94.238563 49.137079,90.635355 48.356682,86.4 c -0.90861,-4.93119 -4.555108,-9.328507 -9.00541,-10.859635 -3.516282,-1.209778 -6.070709,-2.820166 -6.847975,-4.31717 -0.444936,-0.856941 -0.43869,-0.971693 0.07327,-1.346049 1.142261,-0.835242 4.184054,-1.175242 10.23551,-1.144087 3.344,0.01722 8.312,0.260983 11.04,0.541705 2.728,0.280722 7.48,0.581196 10.56,0.66772 4.827005,0.1356 5.819833,0.07865 7.192594,-0.412584 2.081471,-0.744841 2.888724,-1.941676 3.142476,-4.659045 0.317104,-3.395794 2.204349,-6.90781 6.499143,-12.094398 7.762022,-9.373771 18.717839,-16.636736 31.99775,-21.212339 6.2167,-2.141971 9.66648,-3.617893 15.3279,-6.557744 6.02654,-3.129449 9.1061,-5.221834 13.31771,-9.048617 3.88311,-3.528305 6.16636,-5.450069 7.92738,-6.6723317 1.01021,-0.7011471 1.11257,-0.7152559 1.48583,-0.2047939 0.22049,0.3015273 0.49897,1.2023706 0.61887,2.0018736 0.17946,1.196715 0.0733,1.745614 -0.60062,3.105568 -1.95814,3.95147 -7.08547,9.6215 -15.27955,16.896778 l -5.06752,4.499311 4.06466,4.367919 c 2.23557,2.402356 4.79113,4.929634 5.67903,5.616174 5.46327,4.224329 14.99224,6.000144 23.48142,4.37599 10.04675,-1.922147 20.09585,-6.892845 26.87036,-13.291191 3.95199,-3.732551 4.55336,-5.923678 2.68265,-9.774442 -2.44945,-5.042098 -2.98802,-11.395673 -1.31546,-15.518612 0.46358,-1.142757 0.97249,-1.92 1.25714,-1.92 0.32354,0 0.842,1.097443 1.60276,3.392602 1.30459,3.935865 2.8224,6.148939 5.88121,8.575212 4.20861,3.338296 8.80787,5.902348 15.31563,8.538339 6.94269,2.812165 14.95236,7.624688 18.6808,11.224157 2.56867,2.479821 3.4646,4.911539 3.4595,9.38969 -0.004,3.725565 -0.49509,5.484979 -3.07365,11.017361 -1.06059,2.275549 -2.5036,5.857879 -3.20669,7.960732 -1.47499,4.411578 -1.66455,6.773763 -0.8267,10.301907 1.28412,5.407374 2.86804,28.44477 5.81119,84.52104 l 1.68166,32.04103 5.08532,6.19897 c 7.2109,8.79002 9.57151,12.41343 13.56189,20.81678 2.57901,5.43115 3.94752,9.04567 5.106,13.48602 1.18223,4.53135 2.46252,7.0613 4.57191,9.03438 2.03828,1.90658 3.95639,2.75557 9.34696,4.13716 5.05794,1.29633 8.71772,2.86083 9.74386,4.16536 0.62547,0.79515 0.65642,0.97733 0.26594,1.56542 -1.09839,1.65427 -7.29839,4.1803 -15.31403,6.23933 -11.23532,2.88607 -14.88643,6.19694 -21.12174,19.15342 -4.36252,9.065 -8.14517,15.39171 -11.30121,18.90199 -1.75526,1.95227 -2.9724,2.21649 -3.87371,0.84091 -0.9196,-1.40347 -0.8792,-3.49881 0.15697,-8.14181 1.02769,-4.60505 2.07236,-11.21387 1.90532,-12.05358 -0.15856,-0.79712 -4.52918,3.9967 -7.52849,8.25747 -2.86604,4.07145 -4.40336,5.55642 -6.27656,6.06283 -2.77051,0.74899 -2.9901,0.26178 -2.48361,-5.51048 0.22181,-2.52793 0.35478,-6.32192 0.2955,-8.43108 l -0.10779,-3.83484 -5.74186,5.37139 c -6.09209,5.69902 -9.00489,7.88248 -11.84901,8.88211 -4.17441,1.46719 -7.61178,0.1428 -7.07369,-2.72544 0.30518,-1.62675 2.0126,-3.32808 8.76879,-8.73755 7.24936,-5.80434 7.25861,-5.34858 -0.10423,-5.13087 -3.98844,0.11793 -4.80313,0.24303 -7.42493,1.14011 -9.10717,3.1161 -17.70463,9.54944 -20.24554,15.14939 -0.84331,1.85859 -0.84065,5.02536 0.007,8.34531 0.36109,1.41428 0.61309,3.16627 0.56,3.89332 -0.0935,1.28082 -0.13448,1.32504 -1.3171,1.42245 -1.45201,0.11961 -4.14261,-1.11243 -7.19996,-3.29689 -1.11128,-0.79401 -2.29559,-1.44365 -2.63178,-1.44365 -0.7141,0 -1.23102,0.90897 -2.5477,4.48 -1.70842,4.63348 -2.7071,6.08 -4.19764,6.08 -0.55473,0 -1.07642,-0.26924 -1.3951,-0.72 z M 226.9446,62.035773 c 1.15638,-1.241227 1.68436,-3.42733 1.8626,-7.712168 C 229.1242,46.702943 227.74035,43.2 224.41277,43.2 c -1.21136,0 -3.83518,-0.536294 -6.24069,-1.27556 -1.056,-0.324533 -3.00286,-0.677296 -4.32635,-0.78392 -2.92339,-0.235515 -9.3074,0.285598 -13.27396,1.083526 -7.42901,1.494448 -14.71776,6.193909 -18.36608,11.84164 -1.57199,2.433508 -1.86149,3.354154 -1.27641,4.059142 0.64028,0.771482 4.54968,0.406158 6.83121,-0.63836 2.10461,-0.963522 2.73967,-1.887803 3.8796,-5.646468 0.99081,-3.266976 1.37996,-3.767348 2.59706,-3.339318 1.4385,0.505895 2.33493,2.174656 2.33493,4.346641 0,1.029972 0.108,1.867618 0.24,1.861436 0.132,-0.0062 1.176,-0.217124 2.32,-0.468759 2.53094,-0.556705 10.77107,-0.632064 13.18425,-0.120574 2.62215,0.555785 3.90887,1.36837 6.80553,4.297822 1.76353,1.783491 3.25988,2.978885 4.38382,3.502117 2.09215,0.973964 2.62324,0.991941 3.43892,0.116408 z m -87.19538,-1.73863 c 0.68336,-0.68336 0.6501,-0.891298 -0.48239,-3.016067 -1.99373,-3.740624 -7.41574,-9.641718 -12.13475,-13.206973 -2.48687,-1.878855 -5.75389,-3.699891 -7.94723,-4.429788 -1.92495,-0.640579 -2.28555,-0.667905 -4.04311,-0.306368 -3.96123,0.814843 -9.75779,3.602462 -17.792648,8.556642 -5.539546,3.415608 -9.257012,6.776561 -9.257012,8.369245 0,1.497294 0.851135,1.808328 4.96,1.812549 3.169601,0.0033 3.663345,-0.07653 4.96,-0.801564 1.368632,-0.765274 1.487875,-0.949283 2.40599,-3.712763 1.48281,-4.463194 3.16065,-6.19029 5.13834,-5.289195 1.31988,0.601377 2.05313,2.197365 2.05447,4.471754 0.001,1.810268 0.10023,2.123646 0.93658,2.96 1.19624,1.196241 0.76551,1.217025 6.56275,-0.316683 2.24006,-0.592626 2.84977,-0.632759 5.1917,-0.34174 3.44813,0.428481 7.66298,1.648479 10.67017,3.088505 2.6941,1.290101 6.52189,2.629315 7.57714,2.650986 0.38343,0.0079 0.92343,-0.211969 1.2,-0.48854 z"
       id="path8" /></g></svg>
