<?xml version="1.0" encoding="UTF-8" standalone="no"?>
<!-- Created with Inkscape (http://www.inkscape.org/) -->

<svg
   version="1.1"
   id="svg1"
   width="320"
   height="320"
   viewBox="0 0 320 320"
   xmlns="http://www.w3.org/2000/svg"
   xmlns:svg="http://www.w3.org/2000/svg">
  <defs
     id="defs1" />
  <g
     id="g1">
    <g
       id="g2"
       style="fill:#000000">
      <path
         style="fill:#000000;fill-opacity:1"
         d="m 122.82,83.621404 c 0.231,-0.09244 0.507,-0.08107 0.61333,0.02526 0.10634,0.106333 -0.0827,0.181965 -0.42,0.16807 -0.37278,-0.01535 -0.4486,-0.09118 -0.19333,-0.193333 z"
         id="path8" />
      <path
         style="fill:#000000;fill-opacity:1"
         d="m 260.24609,297.69824 c 0.31135,-0.0811 0.74335,-0.0758 0.96,0.0119 0.21665,0.0877 -0.0381,0.15404 -0.56609,0.14752 -0.528,-0.007 -0.70526,-0.0782 -0.39391,-0.15938 z m -14.78083,-38.36491 c 0.0154,-0.37278 0.0912,-0.4486 0.19334,-0.19333 0.0924,0.231 0.0811,0.507 -0.0253,0.61333 -0.10633,0.10634 -0.18196,-0.0827 -0.16807,-0.42 z M 195.12,237.52408 c 0.924,-0.0646 2.436,-0.0646 3.36,0 0.924,0.0646 0.168,0.11753 -1.68,0.11753 -1.848,0 -2.604,-0.0529 -1.68,-0.11753 z M 165.51424,212.8 c 0,-0.616 0.0659,-0.868 0.14634,-0.56 0.0805,0.308 0.0805,0.812 0,1.12 -0.0805,0.308 -0.14634,0.056 -0.14634,-0.56 z m -97.37846,-62 -0.77578,-0.88 0.88,0.77578 c 0.822493,0.72508 1.026748,0.98422 0.77578,0.98422 -0.05732,0 -0.45332,-0.396 -0.88,-0.88 z M 121.52,83.62807 c 0.22,-0.08877 0.58,-0.08877 0.8,0 0.22,0.08877 0.04,0.161404 -0.4,0.161404 -0.44,0 -0.62,-0.07263 -0.4,-0.161404 z M 113.01053,39.36 c 0,-0.44 0.0726,-0.62 0.1614,-0.4 0.0888,0.22 0.0888,0.58 0,0.8 -0.0888,0.22 -0.1614,0.04 -0.1614,-0.4 z"
         id="path7" />
      <path
         style="fill:#000000;fill-opacity:1"
         d="m 192.08,237.53942 c 0.308,-0.0805 0.812,-0.0805 1.12,0 0.308,0.0805 0.056,0.14634 -0.56,0.14634 -0.616,0 -0.868,-0.0659 -0.56,-0.14634 z m 8.32,0 c 0.308,-0.0805 0.812,-0.0805 1.12,0 0.308,0.0805 0.056,0.14634 -0.56,0.14634 -0.616,0 -0.868,-0.0659 -0.56,-0.14634 z M 45.145263,135.81333 c 0.01535,-0.37278 0.09118,-0.4486 0.193333,-0.19333 0.09244,0.231 0.08107,0.507 -0.02526,0.61333 -0.106333,0.10634 -0.181965,-0.0827 -0.16807,-0.42 z M 97.089596,113.2 96.48,112.48 l 0.72,0.6096 c 0.676622,0.57287 0.865677,0.8304 0.609596,0.8304 -0.06072,0 -0.384722,-0.324 -0.72,-0.72 z M 103.36,68.059869 c 0,-0.05507 0.468,-0.523072 1.04,-1.04 L 105.44,66.08 104.50013,67.12 C 103.62404,68.089426 103.36,68.307089 103.36,68.059869 Z M 170.53578,44.88 169.76,44 l 0.88,0.77578 c 0.484,0.42668 0.88,0.82268 0.88,0.88 0,0.250968 -0.25914,0.04671 -0.98422,-0.77578 z"
         id="path6" />
      <path
         style="fill:#000000;fill-opacity:1"
         d="m 254.66,305.0614 c 0.231,-0.0924 0.507,-0.0811 0.61333,0.0253 0.10634,0.10633 -0.0827,0.18196 -0.42,0.16807 -0.37278,-0.0154 -0.4486,-0.0912 -0.19333,-0.19334 z M 116.08,294.18807 c 0.22,-0.0888 0.58,-0.0888 0.8,0 0.22,0.0888 0.04,0.1614 -0.4,0.1614 -0.44,0 -0.62,-0.0726 -0.4,-0.1614 z m 74.40609,-56.64983 c 0.31135,-0.0811 0.74335,-0.0758 0.96,0.0119 0.21665,0.0877 -0.0381,0.15404 -0.56609,0.14752 -0.528,-0.007 -0.70526,-0.0782 -0.39391,-0.15938 z m 11.84,0 c 0.31135,-0.0811 0.74335,-0.0758 0.96,0.0119 0.21665,0.0877 -0.0381,0.15404 -0.56609,0.14752 -0.528,-0.007 -0.70526,-0.0782 -0.39391,-0.15938 z M 144.4496,162.16 l -0.6096,-0.72 0.72,0.6096 c 0.67662,0.57287 0.86568,0.8304 0.6096,0.8304 -0.0607,0 -0.38473,-0.324 -0.72,-0.72 z M 100.8,70.599182 c 0,-0.06645 0.252,-0.318449 0.56,-0.56 0.50754,-0.398038 0.51886,-0.38672 0.12082,0.120818 C 101.06278,70.693039 100.8,70.862553 100.8,70.599182 Z M 113.65053,49.6 c 0,-0.44 0.0726,-0.62 0.1614,-0.4 0.0888,0.22 0.0888,0.58 0,0.8 -0.0888,0.22 -0.1614,0.04 -0.1614,-0.4 z"
         id="path5" />
      <path
         style="fill:#000000;fill-opacity:1"
         d="m 253.7,305.0614 c 0.231,-0.0924 0.507,-0.0811 0.61333,0.0253 0.10634,0.10633 -0.0827,0.18196 -0.42,0.16807 -0.37278,-0.0154 -0.4486,-0.0912 -0.19333,-0.19334 z M 117.52609,294.17824 c 0.31135,-0.0811 0.74335,-0.0758 0.96,0.0119 0.21665,0.0877 -0.0381,0.15404 -0.56609,0.14752 -0.528,-0.007 -0.70526,-0.0782 -0.39391,-0.15938 z m 71.36,-56.64 c 0.31135,-0.0811 0.74335,-0.0758 0.96,0.0119 0.21665,0.0877 -0.0381,0.15404 -0.56609,0.14752 -0.528,-0.007 -0.70526,-0.0782 -0.39391,-0.15938 z m 15.03391,0.001 c 0.308,-0.0805 0.812,-0.0805 1.12,0 0.308,0.0805 0.056,0.14634 -0.56,0.14634 -0.616,0 -0.868,-0.0659 -0.56,-0.14634 z M 157.14526,134.85333 c 0.0154,-0.37278 0.0912,-0.4486 0.19334,-0.19333 0.0924,0.231 0.0811,0.507 -0.0253,0.61333 -0.10633,0.10634 -0.18196,-0.0827 -0.16807,-0.42 z M 129.52,124.26807 c 0.22,-0.0888 0.58,-0.0888 0.8,0 0.22,0.0888 0.04,0.1614 -0.4,0.1614 -0.44,0 -0.62,-0.0726 -0.4,-0.1614 z M 273.54,82.021404 c 0.231,-0.09244 0.507,-0.08107 0.61333,0.02526 0.10634,0.106333 -0.0827,0.181965 -0.42,0.16807 -0.37278,-0.01535 -0.4486,-0.09118 -0.19333,-0.193333 z M 101.76,69.639182 c 0,-0.06645 0.252,-0.318449 0.56,-0.56 0.50754,-0.398038 0.51886,-0.38672 0.12082,0.120818 -0.41804,0.533039 -0.68082,0.702553 -0.68082,0.439182 z m 11.86526,-21.185849 c 0.0154,-0.372781 0.0912,-0.448607 0.19334,-0.193333 0.0924,0.231 0.0811,0.507 -0.0253,0.613333 -0.10633,0.106334 -0.18196,-0.08267 -0.16807,-0.42 z M 162.36535,35.52 c 0,-2.376 0.0504,-3.348 0.11195,-2.16 0.0616,1.188 0.0616,3.132 0,4.32 -0.0616,1.188 -0.11195,0.216 -0.11195,-2.16 z"
         id="path4" />
      <path
         style="fill:#000000;fill-opacity:1"
         d="m 187.44,237.54807 c 0.22,-0.0888 0.58,-0.0888 0.8,0 0.22,0.0888 0.04,0.1614 -0.4,0.1614 -0.44,0 -0.62,-0.0726 -0.4,-0.1614 z m 18.26,-0.007 c 0.231,-0.0924 0.507,-0.0811 0.61333,0.0253 0.10634,0.10633 -0.0827,0.18196 -0.42,0.16807 -0.37278,-0.0154 -0.4486,-0.0912 -0.19333,-0.19334 z m -74.9,-113.273 c 0.22,-0.0888 0.58,-0.0888 0.8,0 0.22,0.0888 0.04,0.1614 -0.4,0.1614 -0.44,0 -0.62,-0.0726 -0.4,-0.1614 z m -4.72,-36.068888 c 0,-0.06645 0.252,-0.318449 0.56,-0.56 0.50754,-0.398038 0.51886,-0.38672 0.12082,0.120818 -0.41804,0.533039 -0.68082,0.702553 -0.68082,0.439182 z M 206.78238,76.64 c 0.007,-0.528 0.0782,-0.705259 0.15938,-0.39391 0.0811,0.31135 0.0758,0.74335 -0.0119,0.96 -0.0877,0.216651 -0.15404,-0.03809 -0.14752,-0.56609 z"
         id="path3" />
      <path
         style="fill:#000000;fill-opacity:1"
         d="m 246.66322,304.04634 c -2.23123,-0.46549 -4.13315,-0.92426 -4.2265,-1.0195 -0.0933,-0.0952 0.18748,-3.55125 0.62404,-7.68 1.60869,-15.21385 2.43785,-28.55005 2.61048,-41.98684 0.14156,-11.01879 0.10087,-12.72 -0.30425,-12.72 -0.25721,0 -6.49708,-0.57512 -13.86636,-1.27804 -7.36928,-0.70292 -17.14763,-1.44155 -21.72966,-1.6414 -24.18841,-1.05501 -57.88327,1.41164 -73.05384,5.34793 -3.85937,1.00139 -4.86311,1.5637 -5.67713,3.18042 -0.58049,1.1529 -0.63787,1.88105 -0.61706,7.83109 0.024,6.85048 0.28395,9.404 2.06892,20.32 1.43571,8.7801 1.97099,13.91308 2.02183,19.388 0.0576,6.20444 0.0641,6.19233 -3.13474,5.89405 -3.50206,-0.32656 -9.68058,-1.66259 -13.17282,-2.84846 -5.71803,-1.94169 -6.13669,-2.42718 -2.10724,-2.44365 3.12745,-0.0128 9.09803,-1.03706 10.1809,-1.74658 0.66719,-0.43717 0.7932,-0.71843 0.64771,-1.44585 -0.31462,-1.57312 -3.40531,-9.81697 -6.53746,-17.43751 -1.66379,-4.048 -3.99923,-9.736 -5.18988,-12.64 -4.56346,-11.13036 -8.20786,-22.00709 -8.53903,-25.4848 l -0.1871,-1.96479 1.72298,-0.48936 c 0.94765,-0.26914 3.66699,-0.99638 6.04299,-1.61609 4.13059,-1.07733 6.88127,-1.69768 25.76,-5.80955 12.59639,-2.74354 19.96264,-4.57139 21.78496,-5.40568 3.47408,-1.59048 4.3852,-4.37548 3.69797,-11.3035 -0.54402,-5.48427 -1.14023,-8.83696 -2.32004,-13.04623 -4.52398,-16.14055 -14.13579,-31.75008 -23.24583,-37.75113 -1.18981,-0.78376 -1.57596,-0.87561 -3.04,-0.72306 -3.40901,0.3552 -15.04155,4.55669 -35.07514,12.66857 l -12.598086,5.10114 -0.881053,-1.00776 C 87.838202,173.73349 84.742702,170.04 81.443892,166.08 70.502868,152.94603 69.617846,151.92891 67.063027,149.55266 64.661947,147.31941 61.359553,145.28 60.14434,145.28 c -0.888782,0 -1.80045,0.9535 -3.423833,3.58093 -0.836279,1.3535 -2.371281,3.54112 -3.411116,4.86137 l -1.890608,2.40044 -1.789392,-1.2907 c -0.984165,-0.70988 -3.267247,-2.30072 -5.073516,-3.5352 l -3.284126,-2.24451 1.029215,-1.79888 c 3.869117,-6.76252 4.375667,-7.87121 3.860802,-8.45021 -0.677427,-0.76181 -0.888262,-3.46565 -0.404866,-5.19217 0.804866,-2.8747 3.714822,-5.07391 5.966072,-4.50888 0.416365,0.1045 0.757028,0.12155 0.757028,0.0379 0,-0.34483 -22.760656,-15.24873 -32.031809,-20.97474 l -4.99181,-3.08302 1.375683,-2.38116 c 0.756625,-1.30963 1.382939,-2.52799 1.391809,-2.707461 C 18.232743,99.814217 17.52,99.097057 16.64,98.4 c -0.88,-0.697057 -1.6,-1.455004 -1.6,-1.684327 0,-0.545506 1.497081,-3.494295 1.900664,-3.743723 0.172059,-0.106338 1.323202,0.315471 2.558097,0.937354 1.234894,0.621883 2.300469,1.130696 2.367945,1.130696 0.06747,0 0.652114,-0.797381 1.299197,-1.771958 0.749004,-1.128082 1.317789,-1.69036 1.565305,-1.547397 1.36408,0.787875 47.429895,32.877745 48.163849,33.551385 0.333883,0.30644 -0.119849,1.17438 -2.32,4.43791 -2.569423,3.81129 -2.735042,4.15851 -2.734805,5.73352 4.71e-4,3.12538 1.180078,4.98772 8.468422,13.36976 1.766229,2.03127 5.913132,6.96604 9.21534,10.96614 l 6.004013,7.27292 1.035987,-0.53177 c 0.569792,-0.29248 7.299986,-3.91608 14.955986,-8.05244 14.35603,-7.75624 18.12748,-9.65176 24.16,-12.14273 7.04481,-2.90897 11.08109,-4.08846 15.59137,-4.55615 7.10934,-0.7372 10.85428,-3.99104 9.83692,-8.54694 -0.5445,-2.43834 -1.72135,-4.15692 -3.44298,-5.02786 -4.28776,-2.16909 -10.45833,-3.27877 -21.50531,-3.86738 -10.64395,-0.56713 -15.76738,-1.42774 -22.4,-3.76262 C 102.3391,117.952 96.514312,113.57856 94.379244,109.01603 92.80949,105.66154 92.397161,102.79105 92.371667,95.04 92.329179,82.121692 93.942489,78.002644 102.50191,69.175832 c 6.18247,-6.375618 8.11339,-9.009964 9.90383,-13.511794 1.35788,-3.414221 1.56939,-5.32445 1.17007,-10.567378 -0.19534,-2.564837 -0.30582,-4.961982 -0.24549,-5.326989 0.0796,-0.481613 0.98743,0.693789 3.30968,4.285136 1.76,2.721832 3.5922,5.622977 4.07156,6.446989 2.17927,3.74617 4.32693,4.734981 9.67647,4.455166 2.46268,-0.128814 5.41704,-0.696159 12.66443,-2.432034 11.68256,-2.798174 13.36732,-3.314326 15.09406,-4.624266 1.55939,-1.182982 3.25938,-3.543454 3.80543,-5.283923 0.20306,-0.647206 0.43904,-3.403817 0.52441,-6.125802 l 0.15521,-4.949062 2.70784,5.358123 c 2.43313,4.814551 2.95703,5.611819 5.16421,7.85885 4.05477,4.127977 8.1109,6.491716 14.61491,8.516952 4.38882,1.366599 7.22892,2.707132 10.88147,5.136072 4.84442,3.221527 7.50817,6.440133 9.48599,11.461908 0.85276,2.165189 1.05007,3.158549 1.16594,5.870142 0.25982,6.08029 -1.1511,9.734611 -5.99319,15.52254 -3.42722,4.09669 -7.4352,7.57421 -13.29874,11.538638 -5.43653,3.67573 -9.94649,7.80304 -12.04354,11.02173 -1.12029,1.71948 -1.38535,2.4242 -1.4981,3.98293 -0.27823,3.84646 1.3948,9.02056 3.05119,9.43629 1.58439,0.39766 8.84594,-0.1759 12.73045,-1.00551 9.73348,-2.07878 10.19185,-2.14742 14.4,-2.15634 6.65523,-0.0141 9.64263,0.79415 23.36,6.32013 9.96392,4.01392 19.08273,7.19567 20.62259,7.19567 1.51736,0 2.74409,-0.78439 4.16031,-2.66016 2.70063,-3.57696 5.74703,-11.40181 8.30812,-21.33984 1.45894,-5.66128 3.23773,-14.306138 3.21091,-15.604942 -0.0154,-0.744945 -0.93778,-1.610938 -6.20345,-5.824121 -4.44456,-3.556189 -6.13238,-5.087233 -5.99704,-5.44 0.58783,-1.53224 22.41892,-51.917965 22.55312,-52.052162 0.089,-0.08899 0.91044,0.217559 1.82544,0.681225 0.915,0.463666 1.70191,0.797347 1.74868,0.741515 0.0468,-0.05583 0.33007,-0.851623 0.62955,-1.768423 l 0.54451,-1.666908 1.49863,0.594091 c 3.7506,1.486821 4.21863,1.707055 4.21863,1.985108 0,0.162741 -0.35802,1.002402 -0.79559,1.865914 l -0.79559,1.57002 3.19389,1.699342 c 1.75664,0.934637 3.19465,1.827707 3.19559,1.984599 0.003,0.427792 -7.71108,16.420535 -14.25486,29.554742 -3.17868,6.38 -5.75104,11.6 -5.71637,11.6 0.0347,0 0.69076,-0.284837 1.45798,-0.632972 2.06004,-0.934763 4.45054,-0.852652 6.42246,0.220602 1.93884,1.055245 3.90022,3.652475 4.61494,6.111018 0.56802,1.953947 0.65047,4.932888 0.17088,6.174414 -0.31395,0.812747 -0.19761,0.913043 4.77102,4.112843 3.22793,2.078785 5.01156,3.414225 4.8709,3.646935 -0.12205,0.20194 -0.81831,1.30316 -1.54723,2.44716 -0.72893,1.144 -1.94746,3.25918 -2.70786,4.70039 l -1.38253,2.62039 -1.14881,-0.5945 c -0.63185,-0.32698 -3.01253,-1.68615 -5.2904,-3.02039 -4.63059,-2.71233 -5.505,-2.90854 -6.87158,-1.54196 -1.26451,1.26451 -1.98385,3.44973 -3.81724,11.59607 -0.89122,3.96 -2.18108,9.216 -2.86634,11.68 -0.68526,2.464 -2.01715,7.23569 -2.95975,10.60375 l -1.71384,6.12374 -1.77483,-0.13448 c -0.97616,-0.074 -10.70284,-0.55816 -21.61484,-1.07599 -10.912,-0.51783 -21.0286,-1.02997 -22.48134,-1.1381 l -2.64134,-0.1966 0.0813,37.04982 0.0813,37.04982 12.16,2.45796 c 6.688,1.35187 13.672,2.84745 15.52,3.32349 4.81481,1.2403 13.17232,4.04565 16.14688,5.42 3.64864,1.6858 11.7658,7.22946 11.51554,7.86461 -0.43823,1.11221 -10.08817,29.59503 -11.27928,33.29198 -3.03942,9.43376 -5.18314,17.86737 -5.18314,20.39105 0,1.47942 0.1382,1.84008 1.12267,2.92977 1.70532,1.88758 3.73344,2.60874 8.22252,2.92375 2.57454,0.18067 4.06786,0.43384 4.59453,0.77893 0.91431,0.59908 0.91313,0.59295 0.33068,1.71239 -2.14072,4.11441 -10.04996,5.59092 -19.44718,3.63045 z M 118.81327,93.164367 c 3.82496,-1.905261 7.80595,-4.945384 8.80605,-6.724817 1.28157,-2.280239 0.35491,-2.922985 -4.20015,-2.913303 -5.19615,0.01104 -12.6726,1.27771 -15.31222,2.59421 -2.15368,1.074139 -3.13396,3.215851 -2.28794,4.998706 1.09934,2.31669 4.5271,4.00585 7.71426,3.801493 1.62558,-0.10423 2.64233,-0.442434 5.28,-1.756289 z m 52.07385,-9.165865 c 5.10252,-1.073348 9.40946,-2.932701 10.44142,-4.507679 0.50371,-0.76875 0.48875,-0.836005 -0.3899,-1.753122 -2.64226,-2.757922 -13.72018,-3.405168 -20.82864,-1.216947 -2.35908,0.726201 -3.74808,1.931048 -4.28248,3.714697 -0.34841,1.162912 -0.32217,1.440759 0.22482,2.380562 0.37946,0.651967 1.04686,1.211889 1.72346,1.445925 1.64238,0.568095 10.30845,0.526166 13.11132,-0.06344 z"
         id="path2" />
    </g>
  </g>
</svg>
