<?xml version="1.0" encoding="UTF-8" standalone="no"?>
<!-- Created with Inkscape (http://www.inkscape.org/) -->

<svg
   version="1.1"
   id="svg1"
   width="320"
   height="320"
   viewBox="0 0 320 320"
   xmlns="http://www.w3.org/2000/svg"
   xmlns:svg="http://www.w3.org/2000/svg">
  <defs
     id="defs1" />
  <g
     id="g1">
    <g
       id="g2"
       style="fill:#000000">
      <path
         style="fill:#000000;fill-opacity:1"
         d="m 166.4,290.75918 c 0,-0.0665 0.252,-0.31845 0.56,-0.56 0.50754,-0.39804 0.51886,-0.38672 0.12082,0.12082 -0.41804,0.53304 -0.68082,0.70255 -0.68082,0.43918 z m -2,-6.49111 c 0.22,-0.0888 0.58,-0.0888 0.8,0 0.22,0.0888 0.04,0.1614 -0.4,0.1614 -0.44,0 -0.62,-0.0726 -0.4,-0.1614 z M 5.12,262.27918 c 0,-0.0664 0.252,-0.31845 0.56,-0.56 0.5075378,-0.39804 0.5188563,-0.38672 0.1208177,0.12082 C 5.3827794,262.37304 5.12,262.54255 5.12,262.27918 Z m 136.02526,-32.06585 c 0.0154,-0.37278 0.0912,-0.4486 0.19334,-0.19333 0.0924,0.231 0.0811,0.507 -0.0253,0.61333 -0.10633,0.10634 -0.18196,-0.0827 -0.16807,-0.42 z M 153.97053,228.8 c 0,-0.44 0.0726,-0.62 0.1614,-0.4 0.0888,0.22 0.0888,0.58 0,0.8 -0.0888,0.22 -0.1614,0.04 -0.1614,-0.4 z M 283.84,199.87918 c 0,-0.0665 0.252,-0.31845 0.56,-0.56 0.50754,-0.39804 0.51886,-0.38672 0.12082,0.12082 -0.41804,0.53304 -0.68082,0.70255 -0.68082,0.43918 z M 279.8096,157.36 279.2,156.64 l 0.72,0.6096 c 0.396,0.33527 0.72,0.65927 0.72,0.72 0,0.25608 -0.25753,0.067 -0.8304,-0.6096 z M 202.56,148.03918 c 0,-0.0664 0.252,-0.31845 0.56,-0.56 0.50754,-0.39804 0.51886,-0.38672 0.12082,0.12082 -0.41804,0.53304 -0.68082,0.70255 -0.68082,0.43918 z"
         id="path8" />
      <path
         style="fill:#000000;fill-opacity:1"
         d="m 127.73053,226.88 c 0,-0.44 0.0726,-0.62 0.1614,-0.4 0.0888,0.22 0.0888,0.58 0,0.8 -0.0888,0.22 -0.1614,0.04 -0.1614,-0.4 z M 148.1,226.3414 c 0.231,-0.0924 0.507,-0.0811 0.61333,0.0253 0.10634,0.10633 -0.0827,0.18196 -0.42,0.16807 -0.37278,-0.0154 -0.4486,-0.0912 -0.19333,-0.19334 z m 124.8,-21.44 c 0.231,-0.0924 0.507,-0.0811 0.61333,0.0253 0.10634,0.10633 -0.0827,0.18196 -0.42,0.16807 -0.37278,-0.0154 -0.4486,-0.0912 -0.19333,-0.19334 z m 11.9,-5.98222 c 0,-0.0665 0.252,-0.31845 0.56,-0.56 0.50754,-0.39804 0.51886,-0.38672 0.12082,0.12082 -0.41804,0.53304 -0.68082,0.70255 -0.68082,0.43918 z M 256.05053,187.84 c 0,-0.44 0.0726,-0.62 0.1614,-0.4 0.0888,0.22 0.0888,0.58 0,0.8 -0.0888,0.22 -0.1614,0.04 -0.1614,-0.4 z m -0.64,-33.92 c 0,-0.44 0.0726,-0.62 0.1614,-0.4 0.0888,0.22 0.0888,0.58 0,0.8 -0.0888,0.22 -0.1614,0.04 -0.1614,-0.4 z M 62.66,145.3814 c 0.231,-0.0924 0.507,-0.0811 0.613333,0.0253 0.106334,0.10633 -0.08267,0.18196 -0.42,0.16807 -0.372781,-0.0154 -0.448607,-0.0912 -0.193333,-0.19334 z M 301.81053,82.56 c 0,-0.44 0.0726,-0.62 0.1614,-0.4 0.0888,0.22 0.0888,0.58 0,0.8 -0.0888,0.22 -0.1614,0.04 -0.1614,-0.4 z"
         id="path7" />
      <path
         style="fill:#000000;fill-opacity:1"
         d="m 145.23918,292.88 c -0.39804,-0.50754 -0.38672,-0.51886 0.12082,-0.12082 0.53304,0.41804 0.70255,0.68082 0.43918,0.68082 -0.0665,0 -0.31845,-0.252 -0.56,-0.56 z m 2.33135,-19.6 c 0,-0.44 0.0726,-0.62 0.1614,-0.4 0.0888,0.22 0.0888,0.58 0,0.8 -0.0888,0.22 -0.1614,0.04 -0.1614,-0.4 z M 192.26,263.4614 c 0.231,-0.0924 0.507,-0.0811 0.61333,0.0253 0.10634,0.10633 -0.0827,0.18196 -0.42,0.16807 -0.37278,-0.0154 -0.4486,-0.0912 -0.19333,-0.19334 z M 48.16,247.04 c 0.318556,-0.352 0.651192,-0.64 0.739192,-0.64 0.088,0 -0.100636,0.288 -0.419192,0.64 -0.318556,0.352 -0.651192,0.64 -0.739192,0.64 -0.088,0 0.100636,-0.288 0.419192,-0.64 z m 225.84609,-42.14176 c 0.31135,-0.0811 0.74335,-0.0758 0.96,0.0119 0.21665,0.0877 -0.0381,0.15404 -0.56609,0.14752 -0.528,-0.007 -0.70526,-0.0782 -0.39391,-0.15938 z M 252.75918,107.92 c -0.39804,-0.50754 -0.38672,-0.51886 0.12082,-0.12082 0.308,0.24155 0.56,0.49355 0.56,0.56 0,0.26337 -0.26278,0.0939 -0.68082,-0.43918 z M 184.88,105.38807 c 0.22,-0.0888 0.58,-0.0888 0.8,0 0.22,0.0888 0.04,0.1614 -0.4,0.1614 -0.44,0 -0.62,-0.0726 -0.4,-0.1614 z M 254.03918,97.68 c -0.39804,-0.507538 -0.38672,-0.518856 0.12082,-0.120818 0.53304,0.418039 0.70255,0.680818 0.43918,0.680818 -0.0665,0 -0.31845,-0.252 -0.56,-0.56 z m -79.3434,-56.32 -0.77578,-0.88 0.88,0.77578 c 0.484,0.42668 0.88,0.82268 0.88,0.88 0,0.250968 -0.25914,0.04671 -0.98422,-0.77578 z"
         id="path6" />
      <path
         style="fill:#000000;fill-opacity:1"
         d="m 73.86,272.1014 c 0.231,-0.0924 0.507,-0.0811 0.613333,0.0253 0.106334,0.10633 -0.08267,0.18196 -0.42,0.16807 -0.372781,-0.0154 -0.448607,-0.0912 -0.193333,-0.19334 z m 116.6244,-28.17103 c 0.48642,-0.0736 1.20642,-0.0716 1.6,0.004 0.39358,0.076 -0.004,0.13614 -0.8844,0.13374 -0.88,-0.002 -1.20202,-0.0645 -0.7156,-0.13811 z M 54.450526,232.96 c 0,-0.44 0.07263,-0.62 0.161404,-0.4 0.08877,0.22 0.08877,0.58 0,0.8 -0.08877,0.22 -0.161404,0.04 -0.161404,-0.4 z m 9.894737,-4.02667 c 0.01535,-0.37278 0.09118,-0.4486 0.193333,-0.19333 0.09244,0.231 0.08107,0.507 -0.02526,0.61333 -0.106333,0.10634 -0.181965,-0.0827 -0.16807,-0.42 z M 160.4496,177.84 l -0.6096,-0.72 0.72,0.6096 c 0.67662,0.57287 0.86568,0.8304 0.6096,0.8304 -0.0607,0 -0.38473,-0.324 -0.72,-0.72 z m 117.90958,-10.72 c -0.39804,-0.50754 -0.38672,-0.51886 0.12082,-0.12082 0.308,0.24155 0.56,0.49355 0.56,0.56 0,0.26337 -0.26278,0.0939 -0.68082,-0.43918 z M 127.68,44.32 c 0.41336,-0.44 0.82356,-0.8 0.91156,-0.8 0.088,0 -0.1782,0.36 -0.59156,0.8 -0.41336,0.44 -0.82356,0.8 -0.91156,0.8 -0.088,0 0.1782,-0.36 0.59156,-0.8 z"
         id="path5" />
      <path
         style="fill:#000000;fill-opacity:1"
         d="m 152.56,295.78807 c 0.22,-0.0888 0.58,-0.0888 0.8,0 0.22,0.0888 0.04,0.1614 -0.4,0.1614 -0.44,0 -0.62,-0.0726 -0.4,-0.1614 z M 113.4096,290.8 112.8,290.08 l 0.72,0.6096 c 0.67662,0.57287 0.86568,0.8304 0.6096,0.8304 -0.0607,0 -0.38473,-0.324 -0.72,-0.72 z m 43.79649,-5.26176 c 0.31135,-0.0811 0.74335,-0.0758 0.96,0.0119 0.21665,0.0877 -0.0381,0.15404 -0.56609,0.14752 -0.528,-0.007 -0.70526,-0.0782 -0.39391,-0.15938 z M 121.12,270.72 c 0.31856,-0.352 0.65119,-0.64 0.73919,-0.64 0.088,0 -0.10063,0.288 -0.41919,0.64 -0.31856,0.352 -0.65119,0.64 -0.73919,0.64 -0.088,0 0.10063,-0.288 0.41919,-0.64 z m 50.14238,-11.36 c 0.007,-0.528 0.0782,-0.70526 0.15938,-0.39391 0.0811,0.31135 0.0758,0.74335 -0.0119,0.96 -0.0877,0.21665 -0.15404,-0.0381 -0.14752,-0.56609 z M 192.9,243.9414 c 0.231,-0.0924 0.507,-0.0811 0.61333,0.0253 0.10634,0.10633 -0.0827,0.18196 -0.42,0.16807 -0.37278,-0.0154 -0.4486,-0.0912 -0.19333,-0.19334 z m -51.2,-17.28 c 0.231,-0.0924 0.507,-0.0811 0.61333,0.0253 0.10634,0.10633 -0.0827,0.18196 -0.42,0.16807 -0.37278,-0.0154 -0.4486,-0.0912 -0.19333,-0.19334 z M 182.35918,196.24 c -0.39804,-0.50754 -0.38672,-0.51886 0.12082,-0.12082 0.308,0.24155 0.56,0.49355 0.56,0.56 0,0.26337 -0.26278,0.0939 -0.68082,-0.43918 z M 226.82,178.3414 c 0.231,-0.0924 0.507,-0.0811 0.61333,0.0253 0.10634,0.10633 -0.0827,0.18196 -0.42,0.16807 -0.37278,-0.0154 -0.4486,-0.0912 -0.19333,-0.19334 z m 63.36,-16.64 c 0.231,-0.0924 0.507,-0.0811 0.61333,0.0253 0.10634,0.10633 -0.0827,0.18196 -0.42,0.16807 -0.37278,-0.0154 -0.4486,-0.0912 -0.19333,-0.19334 z m -75.75474,-4.44807 c 0.0154,-0.37278 0.0912,-0.4486 0.19334,-0.19333 0.0924,0.231 0.0811,0.507 -0.0253,0.61333 -0.10633,0.10634 -0.18196,-0.0827 -0.16807,-0.42 z M 224.64,138.77987 c 0,-0.0551 0.468,-0.52307 1.04,-1.04 l 1.04,-0.93987 -0.93987,1.04 c -0.87609,0.96943 -1.14013,1.18709 -1.14013,0.93987 z M 250.83918,131.92 c -0.39804,-0.50754 -0.38672,-0.51886 0.12082,-0.12082 0.308,0.24155 0.56,0.49355 0.56,0.56 0,0.26337 -0.26278,0.0939 -0.68082,-0.43918 z m 1.0632,-40.24 c 0.007,-0.528 0.0782,-0.705259 0.15938,-0.39391 0.0811,0.31135 0.0758,0.74335 -0.0119,0.96 -0.0877,0.216651 -0.15404,-0.03809 -0.14752,-0.56609 z M 122.6896,78.96 122.08,78.24 l 0.72,0.609596 c 0.67662,0.57287 0.86568,0.830404 0.6096,0.830404 -0.0607,0 -0.38473,-0.324 -0.72,-0.72 z m 10.06958,-4.64 c -0.39804,-0.507538 -0.38672,-0.518856 0.12082,-0.120818 0.53304,0.418039 0.70255,0.680818 0.43918,0.680818 -0.0664,0 -0.31845,-0.252 -0.56,-0.56 z M 80.96,72.48 c 0.413359,-0.44 0.823561,-0.8 0.911561,-0.8 0.088,0 -0.178202,0.36 -0.591561,0.8 -0.413359,0.44 -0.823561,0.8 -0.911561,0.8 -0.088,0 0.178202,-0.36 0.591561,-0.8 z M 250.26526,52.613333 c 0.0154,-0.372781 0.0912,-0.448607 0.19334,-0.193333 0.0924,0.231 0.0811,0.507 -0.0253,0.613333 -0.10633,0.106334 -0.18196,-0.08267 -0.16807,-0.42 z m 0,-2.56 c 0.0154,-0.372781 0.0912,-0.448607 0.19334,-0.193333 0.0924,0.231 0.0811,0.507 -0.0253,0.613333 -0.10633,0.106334 -0.18196,-0.08267 -0.16807,-0.42 z M 222.34,32.101404 c 0.231,-0.09244 0.507,-0.08107 0.61333,0.02526 0.10634,0.106333 -0.0827,0.181965 -0.42,0.16807 -0.37278,-0.01535 -0.4486,-0.09118 -0.19333,-0.193333 z"
         id="path4" />
      <path
         style="fill:#000000;fill-opacity:1"
         d="m 41.84,296.10807 c 0.22,-0.0888 0.58,-0.0888 0.8,0 0.22,0.0888 0.04,0.1614 -0.4,0.1614 -0.44,0 -0.62,-0.0726 -0.4,-0.1614 z m 38.74,-0.007 c 0.231,-0.0924 0.507,-0.0811 0.613333,0.0253 0.106334,0.10633 -0.08267,0.18196 -0.42,0.16807 -0.372781,-0.0154 -0.448607,-0.0912 -0.193333,-0.19334 z M 34.905263,291.013 c 0.01535,-0.37278 0.09118,-0.4486 0.193333,-0.19333 0.09244,0.231 0.08107,0.507 -0.02526,0.61333 -0.106333,0.10634 -0.181965,-0.0827 -0.16807,-0.42 z M 84.210526,284.8 c 0,-0.44 0.07263,-0.62 0.161404,-0.4 0.08877,0.22 0.08877,0.58 0,0.8 -0.08877,0.22 -0.161404,0.04 -0.161404,-0.4 z M 193.86,243.9414 c 0.231,-0.0924 0.507,-0.0811 0.61333,0.0253 0.10634,0.10633 -0.0827,0.18196 -0.42,0.16807 -0.37278,-0.0154 -0.4486,-0.0912 -0.19333,-0.19334 z M 71.489596,242.8 70.88,242.08 l 0.72,0.6096 c 0.396,0.33527 0.72,0.65927 0.72,0.72 0,0.25608 -0.257534,0.067 -0.830404,-0.6096 z M 196.48,204.03918 c 0,-0.0664 0.252,-0.31845 0.56,-0.56 0.50754,-0.39804 0.51886,-0.38672 0.12082,0.12082 -0.41804,0.53304 -0.68082,0.70255 -0.68082,0.43918 z M 206.67918,172.24 c -0.39804,-0.50754 -0.38672,-0.51886 0.12082,-0.12082 0.308,0.24155 0.56,0.49355 0.56,0.56 0,0.26337 -0.26278,0.0939 -0.68082,-0.43918 z M 291.12,161.70807 c 0.22,-0.0888 0.58,-0.0888 0.8,0 0.22,0.0888 0.04,0.1614 -0.4,0.1614 -0.44,0 -0.62,-0.0726 -0.4,-0.1614 z M 313.6807,137.76 c 0.004,-0.704 0.0691,-0.95432 0.14562,-0.55627 0.0765,0.39805 0.0736,0.97405 -0.006,1.28 -0.0801,0.30595 -0.14272,-0.0197 -0.13917,-0.72373 z M 227.52,119.23918 c 0,-0.0665 0.252,-0.31845 0.56,-0.56 0.50754,-0.39804 0.51886,-0.38672 0.12082,0.12082 -0.41804,0.53304 -0.68082,0.70255 -0.68082,0.43918 z M 294,113.70807 c 0.22,-0.0888 0.58,-0.0888 0.8,0 0.22,0.0888 0.04,0.1614 -0.4,0.1614 -0.44,0 -0.62,-0.0726 -0.4,-0.1614 z m -20.8,-10.24 c 0.22,-0.0888 0.58,-0.0888 0.8,0 0.22,0.0888 0.04,0.1614 -0.4,0.1614 -0.44,0 -0.62,-0.0726 -0.4,-0.1614 z M 121.55918,77.84 c -0.39804,-0.507538 -0.38672,-0.518856 0.12082,-0.120818 0.308,0.241551 0.56,0.493551 0.56,0.56 0,0.263371 -0.26278,0.09386 -0.68082,-0.439182 z M 293.10277,66.96 292,65.76 l 1.2,1.102773 c 1.11693,1.026438 1.34713,1.297227 1.10277,1.297227 -0.0535,0 -0.59347,-0.54 -1.2,-1.2 z M 264.16,58.56 c 0.31856,-0.352 0.65119,-0.64 0.73919,-0.64 0.088,0 -0.10063,0.288 -0.41919,0.64 -0.31856,0.352 -0.65119,0.64 -0.73919,0.64 -0.088,0 0.10063,-0.288 0.41919,-0.64 z m -13.85762,-7.2 c 0.007,-0.528 0.0782,-0.705259 0.15938,-0.39391 0.0811,0.31135 0.0758,0.74335 -0.0119,0.96 -0.0877,0.216651 -0.15404,-0.03809 -0.14752,-0.56609 z"
         id="path3" />
      <path
         style="fill:#000000;fill-opacity:1"
         d="m 38.145014,295.17246 c -0.913356,-0.45514 -1.96936,-1.26108 -2.346676,-1.79097 -0.599148,-0.84142 -0.663287,-1.25333 -0.506451,-3.25246 0.222172,-2.83196 1.93318,-7.84908 4.153602,-12.17944 3.004825,-5.86013 7.617982,-9.49696 12.874234,-10.14953 3.860827,-0.47932 4.960277,-1.28487 4.960277,-3.6343 0,-2.72883 -3.252848,-3.84576 -11.2,-3.84576 -4.351489,0 -5.8609,0.13009 -8.583304,0.73979 -8.483352,1.89988 -15.847608,4.60204 -19.991187,7.33536 -4.786987,3.15774 -9.903907,3.03229 -13.3399244,-0.32705 -1.2213221,-1.19407 -1.2363752,-2.23581 -0.059131,-4.09213 C 7.8134401,258.13066 17.937236,253.96032 30.4,253.14476 43.993347,252.25522 50.717604,247.83314 53.794238,237.76 c 1.025124,-3.35634 0.997083,-6.32369 -0.08165,-8.64 -2.064549,-4.43312 -5.660398,-7.83534 -11.385971,-10.77287 -4.035488,-2.07043 -6.284738,-3.68253 -7.91671,-5.67414 C 33.18121,211.17352 32,208.51985 32,207.25894 c 0,-0.4038 0.858257,-4.22298 1.907238,-8.48706 1.048981,-4.26409 2.557608,-10.95215 3.352504,-14.86238 2.206664,-10.85494 4.295358,-16.54387 8.837134,-24.0695 3.174783,-5.26055 9.19787,-11.76451 12.315446,-13.29869 1.375233,-0.67676 2.015865,-0.77849 4.787678,-0.76025 3.69528,0.0243 5.44233,0.43604 15.04,3.54448 5.414254,1.75354 30.90238,9.58525 52.96,16.27296 20.12678,6.10229 24.92838,8.12876 29.15435,12.30427 3.63602,3.59262 5.50176,7.6737 7.61513,16.65723 1.78083,7.56993 3.01599,15.55192 3.54052,22.88 0.51761,7.23132 1.01336,9.17304 2.84653,11.14931 2.20831,2.38067 5.87916,3.33281 18.12347,4.70083 13.82915,1.54508 25.56414,4.594 28.33093,7.36079 1.46122,1.46122 0.41003,3.41772 -2.25093,4.18949 -2.11444,0.61326 -9.80481,0.52322 -16.16,-0.1892 -6.87259,-0.77042 -15.36411,-0.81052 -18.61036,-0.0879 -5.86597,1.30583 -9.32839,4.33666 -11.53108,10.09377 -1.07156,2.80069 -1.17671,6.12361 -0.24524,7.74996 1.61825,2.82546 6.70571,3.58474 14.15063,2.11192 6.29969,-1.24626 9.71814,-1.08564 11.51605,0.54111 2.89715,2.62133 -3.98882,9.11097 -10.78076,10.16024 -5.65714,0.87396 -13.57367,-1.30717 -20.97854,-5.77993 -7.32146,-4.42237 -12.6094,-5.83597 -15.2285,-4.07096 -4.30836,2.9034 -4.00954,13.02637 0.52053,17.63403 2.45691,2.49899 5.33381,3.1447 9.54973,2.14343 1.54444,-0.36681 3.37985,-0.66692 4.0787,-0.66692 4.27325,0 4.75076,3.66089 0.87691,6.72299 -3.44427,2.72253 -8.35361,4.47701 -12.52751,4.47701 -6.06708,0 -9.15762,-2.75762 -12.54965,-11.19772 -3.4217,-8.51398 -6.35224,-13.07688 -10.02324,-15.60642 -1.43181,-0.98659 -1.96577,-1.17151 -3.36,-1.1636 -2.08161,0.0118 -3.94117,0.94076 -5.99547,2.99507 -2.23052,2.23052 -3.256,4.43738 -3.42591,7.37267 -0.2421,4.18247 0.7852,6.04976 5.5456,10.08 2.1792,1.84495 2.87501,3.8393 2.0054,5.74789 -0.58647,1.28717 -2.25622,1.63499 -4.76945,0.99351 -5.35358,-1.36646 -10.07986,-6.3706 -12.35428,-13.08061 -0.53422,-1.57607 -0.86333,-3.49593 -1.04483,-6.09508 -0.33262,-4.76306 -0.71603,-5.43829 -3.16977,-5.58239 -1.29412,-0.076 -2.27968,0.15397 -4.607605,1.07513 -4.918871,1.94638 -9.072909,4.26867 -11.32182,6.32939 -3.46996,3.17958 -4.222968,5.39835 -3.428397,10.10191 0.6374,3.77317 0.279507,5.89037 -1.255122,7.425 -0.984906,0.98491 -1.035542,0.997 -3.577531,0.85418 -3.197955,-0.17968 -5.954379,-1.03823 -7.430769,-2.31446 -1.095719,-0.94718 -1.126622,-1.03724 -1.102942,-3.21448 0.03221,-2.96186 0.99332,-6.2947 2.999092,-10.39999 1.224242,-2.5057 1.67557,-3.81992 1.775097,-5.1689 0.122992,-1.66702 0.06792,-1.85184 -0.702169,-2.35642 -1.018298,-0.66721 -2.340638,-0.52294 -7.396794,0.80701 -8.899515,2.3409 -16.443562,5.5623 -19.440481,8.30131 -2.786437,2.54665 -3.345231,4.43527 -2.316055,7.82786 0.648087,2.13636 0.596749,3.66805 -0.164807,4.91712 C 45.282777,295.63334 44.344943,296 41.801998,296 c -1.505703,0 -2.404471,-0.20338 -3.656984,-0.82754 z M 85.28,247.07702 c 1.056,-0.50737 2.431831,-1.40725 3.057403,-1.99975 1.706263,-1.61606 3.953984,-4.94273 5.459275,-8.07984 1.097695,-2.28765 1.369683,-3.22866 1.494254,-5.16974 0.121077,-1.88664 0.03985,-2.54462 -0.39631,-3.21028 -0.860884,-1.31388 -3.026402,-2.08793 -6.405245,-2.28951 l -2.974846,-0.17748 0.0067,3.64479 c 0.0056,3.01339 -0.11703,3.96695 -0.707625,5.50448 -1.753657,4.56539 -5.44181,5.6229 -8.599087,2.46562 -1.90023,-1.90023 -3.454551,-5.74187 -4.040941,-9.98753 -0.205489,-1.4878 -0.223436,-1.50684 -1.870539,-1.98452 -3.178504,-0.9218 -4.241809,-0.97451 -4.96995,-0.24637 -3.432713,3.43271 2.70749,15.79868 10.027671,20.19508 4.055418,2.43563 6.84662,2.8113 9.91922,1.33505 z m 58.36003,-4.1599 c 2.71348,-0.84453 4.49457,-1.96946 6.37388,-4.02572 3.0937,-3.38501 5.11587,-9.4309 3.90875,-11.68643 -0.48632,-0.90869 -1.86937,-1.05428 -7.65733,-0.80606 l -5.32915,0.22855 0.0119,3.40627 c 0.0179,5.12277 -1.13613,6.90246 -4.46809,6.8904 -2.03183,-0.007 -3.76852,-0.89428 -5.5629,-2.84094 -1.74688,-1.89515 -2.63793,-3.91378 -2.84027,-6.4345 l -0.15978,-1.99049 -3.30878,-0.8291 C 122.78843,224.3731 120.86001,224 120.32288,224 c -2.27285,0 -1.94436,2.85565 1.00527,8.73904 2.68891,5.36334 6.8635,8.81421 12.43185,10.27661 2.60924,0.68527 7.51902,0.6363 9.88003,-0.0985 z M 225.12,223.00478 c -2.97382,-0.4293 -6.65223,-1.72623 -11.2,-3.94889 -4.81634,-2.35392 -6.60404,-3.75191 -7.37318,-5.76585 -0.89303,-2.33838 -0.30085,-4.70531 3.32501,-13.29004 4.40233,-10.42309 10.13743,-18.94557 14.01111,-20.82079 4.4447,-2.15164 14.108,1.73044 22.41828,9.00621 7.04491,6.16791 9.21669,12.98454 6.61879,20.77458 -2.0543,6.16001 -6.26054,10.06212 -13.48783,12.51258 -5.07296,1.72001 -9.63101,2.20798 -14.31218,1.5322 z M 192.76766,203.97 c -2.53971,-1.34466 -6.41324,-4.26249 -9.36961,-7.05788 -4.49004,-4.24555 -7.8132,-10.39791 -8.69855,-16.1041 -0.44698,-2.88086 0.0284,-7.49627 1.18378,-11.49338 0.9132,-3.15924 1.53117,-4.3502 2.71515,-5.23263 1.20498,-0.89809 4.80369,-1.82171 7.99687,-2.05242 2.3099,-0.1669 3.13756,-0.0843 5.12,0.51085 4.60461,1.38241 9.48283,4.46704 14.11259,8.92376 3.22724,3.10663 4.09211,4.61709 4.09211,7.14674 0,2.4187 -0.80013,4.55557 -4.10147,10.95364 -3.59835,6.97369 -6.04575,10.91309 -8.2774,13.32353 -2.02686,2.18926 -2.48557,2.29322 -4.77347,1.08189 z m 75.55234,0.29985 c -9.64192,-2.05742 -13.40949,-9.41642 -11.5033,-22.46878 1.19848,-8.20642 3.48114,-14.19482 6.64674,-17.43722 2.8743,-2.94403 5.15545,-3.12416 9.89959,-0.7817 2.16755,1.07025 3.17813,1.85295 5.67697,4.39685 1.672,1.70215 3.616,3.53663 4.32,4.07663 2.86004,2.19376 7.42797,3.94437 10.29217,3.94437 4.75172,0 4.40044,3.28548 -1.37638,12.87338 -4.85665,8.06067 -10.16004,13.47353 -15.08227,15.39359 -1.70896,0.66663 -5.75674,0.66794 -8.87352,0.003 z m -37.28,-36.74004 c -8.01092,-1.33106 -14.35004,-4.27516 -15.80446,-7.34012 -0.70526,-1.48622 -0.65319,-4.4894 0.11662,-6.72691 2.94978,-8.57368 13.74933,-20.66278 18.45867,-20.66278 4.32895,0 12.81727,6.11122 17.77885,12.8 2.40527,3.24258 3.48755,5.5013 3.68632,7.69332 0.20439,2.25403 -0.22664,3.65419 -2.02564,6.58014 -2.39578,3.8966 -5.39494,6.05065 -10.21036,7.33328 -2.69159,0.71693 -8.66214,0.87767 -12,0.32307 z m 55.36776,-6.4249 c -3.44393,-0.96064 -6.17477,-3.06098 -8.45458,-6.50255 -1.80561,-2.72573 -2.71535,-4.92767 -4.4618,-10.7994 -2.26013,-7.59874 -2.88754,-10.66348 -2.48709,-12.14877 0.78595,-2.91509 5.77952,-9.71872 8.84691,-12.05371 2.20483,-1.67838 7.20808,-4.2001 10.02181,-5.05116 5.69859,-1.72364 13.6672,0.33287 18.14218,4.68205 1.80367,1.75297 3.67409,5.57584 4.70089,9.60799 0.63065,2.4765 0.72106,3.62003 0.70531,8.92064 -0.0164,5.53127 -0.0941,6.36126 -0.86038,9.19638 -2.04206,7.55521 -5.40678,10.96476 -13.36101,13.53905 -2.26992,0.73462 -3.40836,0.89832 -6.88,0.98927 -3.03615,0.0795 -4.63338,-0.0231 -5.91224,-0.37979 z M 150.24,159.77968 c -7.59139,-0.98396 -14.51957,-3.36787 -27.04,-9.30419 -11.54843,-5.47546 -16.34098,-7.55882 -18.56,-8.06821 -4.752721,-1.091 -14.315927,-4.06103 -18.962622,-5.88919 -7.231784,-2.84521 -17.701012,-7.31906 -21.530102,-9.20052 -10.12407,-4.97455 -10.646008,-8.79403 -3.225035,-23.60037 3.745825,-7.473682 7.041162,-13.210149 11.234712,-19.5572 4.01058,-6.070122 6.612773,-9.319829 10.05342,-12.55505 6.622188,-6.226806 14.506436,-7.570708 24.057177,-4.100644 5.44075,1.97678 10.11344,5.146549 15.70597,10.654309 7.80739,7.689039 21.75637,17.848551 37.22648,27.113285 7.24715,4.34018 10.53719,6.51789 14.4,9.53151 5.28096,4.12001 8.48,7.6538 8.48,9.36736 0,1.2229 -8.09714,19.50398 -9.84587,22.22923 -3.21594,5.01177 -8.19742,9.9566 -11.94194,11.85409 -2.95578,1.49781 -6.32336,2.0089 -10.05219,1.52559 z m 39.25641,-8.42197 c -2.08045,-0.43966 -4.75238,-1.76541 -5.18422,-2.57231 -0.67358,-1.25859 0.23662,-5.45028 2.6015,-11.98052 0.77162,-2.13073 1.40046,-3.2592 2.42876,-4.35854 1.56658,-1.6748 4.56419,-3.28435 7.14926,-3.83875 3.76324,-0.80707 9.55715,0.42914 10.97318,2.34126 0.6345,0.8568 0.63567,0.9165 0.0841,4.30142 -0.75154,4.61246 -2.25309,9.25206 -3.59094,11.09558 -1.33708,1.84247 -3.56228,3.51012 -5.87808,4.40526 -1.99429,0.77086 -6.34977,1.07866 -8.58359,0.6066 z M 254.72,134.8566 c -2.79826,-1.58507 -7.94862,-7.30891 -10.63267,-11.8166 -2.16277,-3.63223 -3.77048,-8.27366 -3.7642,-10.86723 0.004,-1.82619 1.24614,-4.25979 2.99084,-5.86162 2.69055,-2.47024 4.11964,-2.59625 6.81083,-0.60057 6.93582,5.14333 14.90569,18.52208 14.00357,23.50732 -0.11765,0.65016 -0.42653,1.6141 -0.6864,2.1421 -0.60466,1.22855 -2.55058,3.28078 -3.66608,3.86637 -1.3514,0.70944 -3.41743,0.55834 -5.05589,-0.36977 z m -39.2737,-11.9939 c -3.32914,-0.65706 -6.0949,-2.61645 -6.9857,-4.94896 -0.4603,-1.20527 -0.48361,-1.64431 -0.15641,-2.94508 1.05107,-4.17852 4.60369,-8.44823 8.68953,-10.4435 8.11328,-3.96201 13.42637,-2.23206 14.23339,4.6344 0.43329,3.68667 -0.96082,7.42484 -3.75229,10.0614 -3.28773,3.10527 -7.80982,4.47438 -12.02852,3.64174 z m -35.19056,-18.39284 c -10.30161,-3.04652 -29.74821,-15.007646 -43.4682,-26.736216 -8.10092,-6.925095 -12.88078,-14.345133 -14.2293,-22.088921 -0.46151,-2.650151 -0.14538,-3.942738 1.63973,-6.70466 5.68927,-8.802407 16.18622,-14.250254 30.25014,-15.699632 5.88522,-0.60651 9.76483,0.264223 14.25821,3.200083 8.67084,5.665309 20.50942,21.476114 29.88774,39.916055 3.54675,6.973721 5.06994,11.353118 4.7522,13.663323 -0.76875,5.589524 -7.20078,12.312668 -14.04219,14.677768 -2.35038,0.81253 -5.82642,0.72502 -9.04833,-0.2278 z M 271.36,103.36583 c -7.47414,-0.60746 -13.73204,-2.65204 -16.81499,-5.49381 -2.0503,-1.889907 -2.51657,-3.392089 -2.29621,-7.397752 0.1917,-3.484755 0.87101,-6.448863 3.31455,-14.462658 2.53792,-8.323309 5.11306,-13.465486 8.53364,-17.040406 2.54384,-2.658614 3.87579,-3.172211 7.01439,-2.704727 5.09428,0.758777 12.64723,3.6035 16.72862,6.300625 2.47238,1.633836 6.84925,5.81456 8.87042,8.472898 0.86979,1.144 2.3007,3.525868 3.17979,5.293039 3.26531,6.564039 2.34737,10.302201 -4.0845,16.633496 -3.77694,3.717885 -6.37869,5.612512 -10.52571,7.664935 -5.24307,2.59488 -8.28473,3.19236 -13.92,2.73436 z M 218.24,88.515041 c -4.15874,-0.924664 -6.42768,-3.119056 -9.27058,-8.965978 C 207.93475,77.421078 206.48136,74.096 205.73966,72.16 204.06365,67.785246 197.06275,51.266792 193.2623,42.72 c -1.56521,-3.52 -2.88555,-6.753425 -2.93407,-7.185388 -0.12126,-1.079416 0.97499,-1.562901 5.16441,-2.277692 5.5579,-0.948278 13.77296,-1.363527 22.58736,-1.14173 19.1586,0.48209 27.18373,3.18019 30.54766,10.27032 1.41194,2.97592 1.72773,5.259363 1.52,10.990916 -0.15089,4.16351 -0.40319,6.082413 -1.47363,11.208178 -3.68206,17.631498 -5.56692,21.007681 -12.70901,22.764572 -2.59501,0.638351 -11.62959,1.631757 -14.40581,1.584005 -0.85756,-0.01475 -2.35121,-0.202913 -3.31921,-0.41814 z"
         id="path2" />
    </g>
  </g>
</svg>
