<?xml version="1.0" encoding="UTF-8" standalone="no"?>
<!-- Created with Inkscape (http://www.inkscape.org/) -->

<svg
   version="1.1"
   id="svg1"
   width="320"
   height="320"
   viewBox="0 0 320 320"
   xmlns="http://www.w3.org/2000/svg"
   xmlns:svg="http://www.w3.org/2000/svg">
  <defs
     id="defs1" />
  <g
     id="g1">
    <g
       id="g2"
       style="fill:#000000">
      <path
         style="fill:#000000;fill-opacity:1"
         d="m 175.09053,255.04 c 0,-0.44 0.0726,-0.62 0.1614,-0.4 0.0888,0.22 0.0888,0.58 0,0.8 -0.0888,0.22 -0.1614,0.04 -0.1614,-0.4 z M 270.72,236.35918 c 0,-0.0665 0.252,-0.31845 0.56,-0.56 0.50754,-0.39804 0.51886,-0.38672 0.12082,0.12082 -0.41804,0.53304 -0.68082,0.70255 -0.68082,0.43918 z M 51.81578,202.64 51.04,201.76 l 0.88,0.77578 c 0.822493,0.72508 1.026748,0.98422 0.77578,0.98422 -0.05732,0 -0.45332,-0.396 -0.88,-0.88 z m 21.423402,-37.12 c -0.398038,-0.50754 -0.38672,-0.51886 0.120818,-0.12082 0.533039,0.41804 0.702553,0.68082 0.439182,0.68082 -0.06645,0 -0.318449,-0.252 -0.56,-0.56 z M 201.22,127.7814 c 0.231,-0.0924 0.507,-0.0811 0.61333,0.0253 0.10634,0.10633 -0.0827,0.18196 -0.42,0.16807 -0.37278,-0.0154 -0.4486,-0.0912 -0.19333,-0.19334 z m 7.5044,-112.651026 c 0.48642,-0.07355 1.20642,-0.07159 1.6,0.0044 0.39358,0.07596 -0.004,0.136136 -0.8844,0.133733 -0.88,-0.0024 -1.20202,-0.06455 -0.7156,-0.138101 z"
         id="path8" />
      <path
         style="fill:#000000;fill-opacity:1"
         d="m 150.96373,304.41368 c 0.39805,-0.0765 0.97405,-0.0736 1.28,0.006 0.30595,0.0801 -0.0197,0.14272 -0.72373,0.13917 -0.704,-0.004 -0.95432,-0.0691 -0.55627,-0.14562 z m 92.58153,-41.56035 c 0.0154,-0.37278 0.0912,-0.4486 0.19334,-0.19333 0.0924,0.231 0.0811,0.507 -0.0253,0.61333 -0.10633,0.10634 -0.18196,-0.0827 -0.16807,-0.42 z M 161.99424,227.2 c 0,-0.616 0.0659,-0.868 0.14634,-0.56 0.0805,0.308 0.0805,0.812 0,1.12 -0.0805,0.308 -0.14634,0.056 -0.14634,-0.56 z M 118.17589,224 c 0,-0.968 0.06,-1.364 0.13331,-0.88 0.0733,0.484 0.0733,1.276 0,1.76 -0.0733,0.484 -0.13331,0.088 -0.13331,-0.88 z m 76.79563,-20 c 0.002,-0.88 0.0645,-1.20202 0.13811,-0.7156 0.0735,0.48642 0.0716,1.20642 -0.004,1.6 -0.076,0.39358 -0.13614,-0.004 -0.13374,-0.8844 z M 25.051525,197.28 c 0.0024,-0.88 0.06455,-1.20202 0.138101,-0.7156 0.07355,0.48642 0.07159,1.20642 -0.0044,1.6 -0.07596,0.39358 -0.136136,-0.004 -0.133733,-0.8844 z M 56,193.12 c -0.777289,-0.792 -1.341253,-1.44 -1.253253,-1.44 0.088,0 0.795964,0.648 1.573253,1.44 0.777289,0.792 1.341253,1.44 1.253253,1.44 -0.088,0 -0.795964,-0.648 -1.573253,-1.44 z m 27.78,-24.0586 c 0.231,-0.0924 0.507,-0.0811 0.613333,0.0253 0.106334,0.10633 -0.08267,0.18196 -0.42,0.16807 -0.372781,-0.0154 -0.448607,-0.0912 -0.193333,-0.19334 z m 137.04526,-23.96807 c 0.0154,-0.37278 0.0912,-0.4486 0.19334,-0.19333 0.0924,0.231 0.0811,0.507 -0.0253,0.61333 -0.10633,0.10634 -0.18196,-0.0827 -0.16807,-0.42 z m -151.039997,-0.32 c 0.01535,-0.37278 0.09118,-0.4486 0.193333,-0.19333 0.09244,0.231 0.08107,0.507 -0.02526,0.61333 -0.106333,0.10634 -0.181965,-0.0827 -0.16807,-0.42 z m -7.04,-8 c 0.01535,-0.37278 0.09118,-0.4486 0.193333,-0.19333 0.09244,0.231 0.08107,0.507 -0.02526,0.61333 -0.106333,0.10634 -0.181965,-0.0827 -0.16807,-0.42 z m 95.359997,-2.56 c 0.0154,-0.37278 0.0912,-0.4486 0.19334,-0.19333 0.0924,0.231 0.0811,0.507 -0.0253,0.61333 -0.10633,0.10634 -0.18196,-0.0827 -0.16807,-0.42 z m 0,-2.56 c 0.0154,-0.37278 0.0912,-0.4486 0.19334,-0.19333 0.0924,0.231 0.0811,0.507 -0.0253,0.61333 -0.10633,0.10634 -0.18196,-0.0827 -0.16807,-0.42 z m 37.12,-0.64 c 0.0154,-0.37278 0.0912,-0.4486 0.19334,-0.19333 0.0924,0.231 0.0811,0.507 -0.0253,0.61333 -0.10633,0.10634 -0.18196,-0.0827 -0.16807,-0.42 z M 185.01053,130.56 c 0,-0.44 0.0726,-0.62 0.1614,-0.4 0.0888,0.22 0.0888,0.58 0,0.8 -0.0888,0.22 -0.1614,0.04 -0.1614,-0.4 z M 69.465263,128.77333 c 0.01536,-0.37278 0.09118,-0.4486 0.193333,-0.19333 0.09244,0.231 0.08107,0.507 -0.02526,0.61333 -0.106333,0.10634 -0.181965,-0.0827 -0.16807,-0.42 z M 202.18,127.7814 c 0.231,-0.0924 0.507,-0.0811 0.61333,0.0253 0.10634,0.10633 -0.0827,0.18196 -0.42,0.16807 -0.37278,-0.0154 -0.4486,-0.0912 -0.19333,-0.19334 z m -50.56,-5.12 c 0.231,-0.0924 0.507,-0.0811 0.61333,0.0253 0.10634,0.10633 -0.0827,0.18196 -0.42,0.16807 -0.37278,-0.0154 -0.4486,-0.0912 -0.19333,-0.19334 z m 2.56,0 c 0.231,-0.0924 0.507,-0.0811 0.61333,0.0253 0.10634,0.10633 -0.0827,0.18196 -0.42,0.16807 -0.37278,-0.0154 -0.4486,-0.0912 -0.19333,-0.19334 z M 268.22238,64.16 c 0.007,-0.528 0.0782,-0.705259 0.15938,-0.39391 0.0811,0.31135 0.0758,0.74335 -0.0119,0.96 -0.0877,0.216651 -0.15404,-0.03809 -0.14752,-0.56609 z"
         id="path7" />
      <path
         style="fill:#000000;fill-opacity:1"
         d="m 148.79478,280.72 -3.67478,-3.76 3.76,3.67478 c 2.068,2.02113 3.76,3.71313 3.76,3.76 0,0.23045 -0.43187,-0.18227 -3.84522,-3.67478 z M 234.8,280.10807 c 0.22,-0.0888 0.58,-0.0888 0.8,0 0.22,0.0888 0.04,0.1614 -0.4,0.1614 -0.44,0 -0.62,-0.0726 -0.4,-0.1614 z M 243.61152,264.8 c 0.002,-0.88 0.0645,-1.20202 0.13811,-0.7156 0.0736,0.48642 0.0716,1.20642 -0.004,1.6 -0.076,0.39358 -0.13614,-0.004 -0.13374,-0.8844 z M 205.36,256.10807 c 0.22,-0.0888 0.58,-0.0888 0.8,0 0.22,0.0888 0.04,0.1614 -0.4,0.1614 -0.44,0 -0.62,-0.0726 -0.4,-0.1614 z M 161.98238,228.96 c 0.007,-0.528 0.0782,-0.70526 0.15938,-0.39391 0.0811,0.31135 0.0758,0.74335 -0.0119,0.96 -0.0877,0.21665 -0.15404,-0.0381 -0.14752,-0.56609 z m -43.84,-7.36 c 0.007,-0.528 0.0782,-0.70526 0.15938,-0.39391 0.0811,0.31135 0.0758,0.74335 -0.0119,0.96 -0.0877,0.21665 -0.15404,-0.0381 -0.14752,-0.56609 z M 109.28,210.56 c 0.31856,-0.352 0.65119,-0.64 0.73919,-0.64 0.088,0 -0.10063,0.288 -0.41919,0.64 -0.31856,0.352 -0.65119,0.64 -0.73919,0.64 -0.088,0 0.10063,-0.288 0.41919,-0.64 z m 85.67424,-4.16 c 0,-0.616 0.0659,-0.868 0.14634,-0.56 0.0805,0.308 0.0805,0.812 0,1.12 -0.0805,0.308 -0.14634,0.056 -0.14634,-0.56 z m 49.93185,-0.54176 c 0.31135,-0.0811 0.74335,-0.0758 0.96,0.0119 0.21665,0.0877 -0.0381,0.15404 -0.56609,0.14752 -0.528,-0.007 -0.70526,-0.0782 -0.39391,-0.15938 z M 53.719182,204.56 c -0.398038,-0.50754 -0.38672,-0.51886 0.120818,-0.12082 0.308,0.24155 0.56,0.49355 0.56,0.56 0,0.26337 -0.262779,0.0939 -0.680818,-0.43918 z m 141.186078,-2.50667 c 0.0154,-0.37278 0.0912,-0.4486 0.19334,-0.19333 0.0924,0.231 0.0811,0.507 -0.0253,0.61333 -0.10633,0.10634 -0.18196,-0.0827 -0.16807,-0.42 z M 163.76,164.90807 c 0.22,-0.0888 0.58,-0.0888 0.8,0 0.22,0.0888 0.04,0.1614 -0.4,0.1614 -0.44,0 -0.62,-0.0726 -0.4,-0.1614 z m -29.04,-1.82889 c 0,-0.0665 0.252,-0.31845 0.56,-0.56 0.50754,-0.39804 0.51886,-0.38672 0.12082,0.12082 -0.41804,0.53304 -0.68082,0.70255 -0.68082,0.43918 z M 175.97578,161.04 175.2,160.16 l 0.88,0.77578 c 0.484,0.42668 0.88,0.82268 0.88,0.88 0,0.25097 -0.25914,0.0467 -0.98422,-0.77578 z m -17.8334,-28.08 c 0.007,-0.528 0.0782,-0.70526 0.15938,-0.39391 0.0811,0.31135 0.0758,0.74335 -0.0119,0.96 -0.0877,0.21665 -0.15404,-0.0381 -0.14752,-0.56609 z m -88.677117,-3.22667 c 0.01536,-0.37278 0.09118,-0.4486 0.193333,-0.19333 0.09244,0.231 0.08107,0.507 -0.02526,0.61333 -0.106333,0.10634 -0.181965,-0.0827 -0.16807,-0.42 z m 83.260827,-7.07509 c 0.31135,-0.0811 0.74335,-0.0758 0.96,0.0119 0.21665,0.0877 -0.0381,0.15404 -0.56609,0.14752 -0.528,-0.007 -0.70526,-0.0782 -0.39391,-0.15938 z M 236.16,121.47918 c 0,-0.0665 0.252,-0.31845 0.56,-0.56 0.50754,-0.39804 0.51886,-0.38672 0.12082,0.12082 -0.41804,0.53304 -0.68082,0.70255 -0.68082,0.43918 z M 57.2,107.30807 c 0.22,-0.0888 0.58,-0.0888 0.8,0 0.22,0.0888 0.04,0.1614 -0.4,0.1614 -0.44,0 -0.62,-0.0726 -0.4,-0.1614 z M 160.96,96.8 c 0.41336,-0.44 0.82356,-0.8 0.91156,-0.8 0.088,0 -0.1782,0.36 -0.59156,0.8 -0.41336,0.44 -0.82356,0.8 -0.91156,0.8 -0.088,0 0.1782,-0.36 0.59156,-0.8 z m 9.12,-10.4 c 0.31856,-0.352 0.65119,-0.64 0.73919,-0.64 0.088,0 -0.10063,0.288 -0.41919,0.64 -0.31856,0.352 -0.65119,0.64 -0.73919,0.64 -0.088,0 0.10063,-0.288 0.41919,-0.64 z M 123.22526,75.013333 c 0.0154,-0.372781 0.0912,-0.448607 0.19334,-0.193333 0.0924,0.231 0.0811,0.507 -0.0253,0.613333 -0.10633,0.106334 -0.18196,-0.08267 -0.16807,-0.42 z"
         id="path6" />
      <path
         style="fill:#000000;fill-opacity:1"
         d="m 133.49053,289.92 c 0,-0.44 0.0726,-0.62 0.1614,-0.4 0.0888,0.22 0.0888,0.58 0,0.8 -0.0888,0.22 -0.1614,0.04 -0.1614,-0.4 z M 98.96609,256.09824 c 0.31135,-0.0811 0.74335,-0.0758 0.96,0.0119 0.21665,0.0877 -0.03809,0.15404 -0.56609,0.14752 -0.528,-0.007 -0.705259,-0.0782 -0.39391,-0.15938 z m 19.13917,-35.80491 c 0.0154,-0.37278 0.0912,-0.4486 0.19334,-0.19333 0.0924,0.231 0.0811,0.507 -0.0253,0.61333 -0.10633,0.10634 -0.18196,-0.0827 -0.16807,-0.42 z m 76.8,-12.48 c 0.0154,-0.37278 0.0912,-0.4486 0.19334,-0.19333 0.0924,0.231 0.0811,0.507 -0.0253,0.61333 -0.10633,0.10634 -0.18196,-0.0827 -0.16807,-0.42 z m 0,-6.72 c 0.0154,-0.37278 0.0912,-0.4486 0.19334,-0.19333 0.0924,0.231 0.0811,0.507 -0.0253,0.61333 -0.10633,0.10634 -0.18196,-0.0827 -0.16807,-0.42 z m -71.68,-127.039997 c 0.0154,-0.372781 0.0912,-0.448607 0.19334,-0.193333 0.0924,0.231 0.0811,0.507 -0.0253,0.613333 -0.10633,0.106334 -0.18196,-0.08267 -0.16807,-0.42 z m 0,-3.2 c 0.0154,-0.372781 0.0912,-0.448607 0.19334,-0.193333 0.0924,0.231 0.0811,0.507 -0.0253,0.613333 -0.10633,0.106334 -0.18196,-0.08267 -0.16807,-0.42 z"
         id="path5" />
      <path
         style="fill:#000000;fill-opacity:1"
         d="m 167.41053,255.68 c 0,-0.44 0.0726,-0.62 0.1614,-0.4 0.0888,0.22 0.0888,0.58 0,0.8 -0.0888,0.22 -0.1614,0.04 -0.1614,-0.4 z m -49.28,-36.48 c 0,-0.44 0.0726,-0.62 0.1614,-0.4 0.0888,0.22 0.0888,0.58 0,0.8 -0.0888,0.22 -0.1614,0.04 -0.1614,-0.4 z m -54.467757,-4.08 -1.102773,-1.2 1.2,1.10277 c 0.66,0.60653 1.2,1.14653 1.2,1.2 0,0.24436 -0.270789,0.0142 -1.297227,-1.10277 z M 65.92,203.68 c -0.777289,-0.792 -1.341253,-1.44 -1.253253,-1.44 0.088,0 0.795964,0.648 1.573253,1.44 0.777289,0.792 1.341253,1.44 1.253253,1.44 -0.088,0 -0.795964,-0.648 -1.573253,-1.44 z m -23.36,-4.12082 c 0,-0.0665 0.252,-0.31845 0.56,-0.56 0.507538,-0.39804 0.518856,-0.38672 0.120818,0.12082 -0.418039,0.53304 -0.680818,0.70255 -0.680818,0.43918 z m -4.71391,-16.10094 c 0.31135,-0.0811 0.74335,-0.0758 0.96,0.0119 0.216651,0.0877 -0.03809,0.15404 -0.56609,0.14752 -0.528,-0.007 -0.705259,-0.0782 -0.39391,-0.15938 z M 86,182.82807 c 0.22,-0.0888 0.58,-0.0888 0.8,0 0.22,0.0888 0.04,0.1614 -0.4,0.1614 -0.44,0 -0.62,-0.0726 -0.4,-0.1614 z m 2.56,0 c 0.22,-0.0888 0.58,-0.0888 0.8,0 0.22,0.0888 0.04,0.1614 -0.4,0.1614 -0.44,0 -0.62,-0.0726 -0.4,-0.1614 z m 18.66526,-2.85474 c 0.0154,-0.37278 0.0912,-0.4486 0.19334,-0.19333 0.0924,0.231 0.0811,0.507 -0.0253,0.61333 -0.10633,0.10634 -0.18196,-0.0827 -0.16807,-0.42 z m -44.159997,-32.64 c 0.01535,-0.37278 0.09118,-0.4486 0.193333,-0.19333 0.09244,0.231 0.08107,0.507 -0.02526,0.61333 -0.106333,0.10634 -0.181965,-0.0827 -0.16807,-0.42 z M 69.520699,132 c 0.0036,-0.704 0.06908,-0.95432 0.145624,-0.55627 0.07654,0.39805 0.07364,0.97405 -0.0065,1.28 -0.08009,0.30595 -0.142719,-0.0197 -0.139167,-0.72373 z m 67.398481,0.56 c -0.39804,-0.50754 -0.38672,-0.51886 0.12082,-0.12082 0.53304,0.41804 0.70255,0.68082 0.43918,0.68082 -0.0665,0 -0.31845,-0.252 -0.56,-0.56 z m 12.8,-38.08 c -0.39804,-0.507538 -0.38672,-0.518856 0.12082,-0.120818 0.53304,0.418039 0.70255,0.680818 0.43918,0.680818 -0.0665,0 -0.31845,-0.252 -0.56,-0.56 z m 41.37135,-6.8 c 0,-0.44 0.0726,-0.62 0.1614,-0.4 0.0888,0.22 0.0888,0.58 0,0.8 -0.0888,0.22 -0.1614,0.04 -0.1614,-0.4 z M 123.2807,72.48 c 0.004,-0.704 0.0691,-0.954321 0.14562,-0.556269 0.0765,0.398052 0.0736,0.974052 -0.006,1.28 -0.0801,0.305948 -0.14272,-0.01973 -0.13917,-0.723731 z"
         id="path4" />
      <path
         style="fill:#000000;fill-opacity:1"
         d="m 153.87918,285.84 c -0.39804,-0.50754 -0.38672,-0.51886 0.12082,-0.12082 0.308,0.24155 0.56,0.49355 0.56,0.56 0,0.26337 -0.26278,0.0939 -0.68082,-0.43918 z M 195.52,260.99918 c 0,-0.0665 0.252,-0.31845 0.56,-0.56 0.50754,-0.39804 0.51886,-0.38672 0.12082,0.12082 -0.41804,0.53304 -0.68082,0.70255 -0.68082,0.43918 z M 116.8,259.04 c 0.59705,-0.616 1.15755,-1.12 1.24555,-1.12 0.088,0 -0.3285,0.504 -0.92555,1.12 -0.59705,0.616 -1.15755,1.12 -1.24555,1.12 -0.088,0 0.3285,-0.504 0.92555,-1.12 z m -5.92,-8.48 c 0.31856,-0.352 0.65119,-0.64 0.73919,-0.64 0.088,0 -0.10063,0.288 -0.41919,0.64 -0.31856,0.352 -0.65119,0.64 -0.73919,0.64 -0.088,0 0.10063,-0.288 0.41919,-0.64 z m 159.84,-31.48082 c 0,-0.0665 0.252,-0.31845 0.56,-0.56 0.50754,-0.39804 0.51886,-0.38672 0.12082,0.12082 -0.41804,0.53304 -0.68082,0.70255 -0.68082,0.43918 z M 102.4,218.08 c 0.41336,-0.44 0.82356,-0.8 0.91156,-0.8 0.088,0 -0.1782,0.36 -0.59156,0.8 -0.41336,0.44 -0.82356,0.8 -0.91156,0.8 -0.088,0 0.1782,-0.36 0.59156,-0.8 z M 67.799182,205.52 c -0.398038,-0.50754 -0.38672,-0.51886 0.120818,-0.12082 0.533039,0.41804 0.702553,0.68082 0.439182,0.68082 -0.06645,0 -0.318449,-0.252 -0.56,-0.56 z M 94.08,205.63918 c 0,-0.0665 0.252,-0.31845 0.56,-0.56 0.507538,-0.39804 0.518856,-0.38672 0.120818,0.12082 C 94.342779,205.73304 94.08,205.90255 94.08,205.63918 Z M 39.2,203.84 c 0.318556,-0.352 0.651192,-0.64 0.739192,-0.64 0.088,0 -0.100636,0.288 -0.419192,0.64 -0.318556,0.352 -0.651192,0.64 -0.739192,0.64 -0.088,0 0.100636,-0.288 0.419192,-0.64 z m 48.08,-21.01193 c 0.22,-0.0888 0.58,-0.0888 0.8,0 0.22,0.0888 0.04,0.1614 -0.4,0.1614 -0.44,0 -0.62,-0.0726 -0.4,-0.1614 z m 65.3,-8.00667 c 0.231,-0.0924 0.507,-0.0811 0.61333,0.0253 0.10634,0.10633 -0.0827,0.18196 -0.42,0.16807 -0.37278,-0.0154 -0.4486,-0.0912 -0.19333,-0.19334 z m 1.28,0 c 0.231,-0.0924 0.507,-0.0811 0.61333,0.0253 0.10634,0.10633 -0.0827,0.18196 -0.42,0.16807 -0.37278,-0.0154 -0.4486,-0.0912 -0.19333,-0.19334 z M 63.065263,146.37333 c 0.01535,-0.37278 0.09118,-0.4486 0.193333,-0.19333 0.09244,0.231 0.08107,0.507 -0.02526,0.61333 -0.106333,0.10634 -0.181965,-0.0827 -0.16807,-0.42 z M 69.535893,134.72 c 0,-0.968 0.05999,-1.364 0.133308,-0.88 0.07332,0.484 0.07332,1.276 0,1.76 -0.07332,0.484 -0.133308,0.088 -0.133308,-0.88 z M 155.52,132.03918 c 0,-0.0664 0.252,-0.31845 0.56,-0.56 0.50754,-0.39804 0.51886,-0.38672 0.12082,0.12082 -0.41804,0.53304 -0.68082,0.70255 -0.68082,0.43918 z m -17.57474,-6.78585 c 0.0154,-0.37278 0.0912,-0.4486 0.19334,-0.19333 0.0924,0.231 0.0811,0.507 -0.0253,0.61333 -0.10633,0.10634 -0.18196,-0.0827 -0.16807,-0.42 z m 47.04,-29.439997 c 0.0154,-0.372781 0.0912,-0.448607 0.19334,-0.193333 0.0924,0.231 0.0811,0.507 -0.0253,0.613333 -0.10633,0.106334 -0.18196,-0.08267 -0.16807,-0.42 z"
         id="path3" />
      <path
         style="fill:#000000;fill-opacity:1"
         d="m 146.24,303.82269 c -6.37545,-1.36835 -10.02808,-4.38509 -11.8627,-9.7975 -0.57972,-1.71027 -0.66225,-2.52279 -0.53078,-5.22519 0.24195,-4.97323 2.05692,-9.94709 6.67491,-18.2924 6.73922,-12.17866 9.8697,-22.79362 9.46891,-32.1076 -0.26756,-6.21771 -2.54261,-14.21129 -6.02901,-21.18347 -1.29383,-2.58742 -9.24913,-15.0754 -9.46565,-14.85888 -0.0691,0.0691 -0.91562,5.77992 -1.88116,12.69071 -3.92819,28.11575 -6.47896,34.98447 -16.6186,44.75069 -5.10527,4.91726 -10.34898,8.05914 -15.81395,9.47526 -5.012218,1.29879 -11.039291,-0.3002 -22.910446,-6.07818 -6.413566,-3.12163 -12.156728,-5.68265 -16.939139,-7.55356 -4.066015,-1.59065 -5.362872,-2.46284 -6.469363,-4.35093 -1.633812,-2.78789 -0.998998,-6.38965 1.641267,-9.31211 1.622931,-1.79639 3.588217,-2.52589 5.386243,-1.99932 1.95674,0.57304 3.849992,1.73195 7.109468,4.35187 8.789105,7.06455 16.780855,10.31253 28.8,11.70479 2.771103,0.32099 3.47878,0.29886 5.28,-0.1651 4.48291,-1.15472 9.6957,-5.16102 11.73525,-9.01915 1.96214,-3.71172 3.5816,-10.22432 4.29015,-17.25262 0.62024,-6.1524 0.003,-18.86363 -1.0767,-22.16848 -0.81099,-2.48265 -3.24328,-1.36317 -8.0687,3.71368 -8.08867,8.51012 -9.819809,10.10217 -12.32,11.33013 -3.699401,1.81695 -6.0759,2.2707 -11.84,2.26064 -9.898413,-0.0173 -13.540286,-1.92607 -23.28059,-12.2019 -15.434994,-16.28361 -16.254654,-16.76158 -19.8804,-11.59272 -3.641254,5.19096 -8.057418,6.98256 -12.165486,4.93542 -3.28815,-1.63855 -4.396495,-4.42831 -4.114651,-10.35677 0.433392,-9.11623 3.301629,-11.68434 13.041127,-11.67654 3.91019,0.003 4.505137,0.0812 6.271615,0.82326 4.54894,1.91083 7.473813,4.47266 20.448385,17.91025 7.206399,7.46358 11.238392,10.21393 15.342486,10.46561 2.684629,0.16463 4.000919,-0.31576 7.976904,-2.91128 3.367402,-2.19822 5.634185,-4.21044 8.529172,-7.5713 4.501298,-5.22568 7.416408,-10.47295 9.287628,-16.71801 1.59945,-5.33805 1.36501,-8.92345 -0.61599,-9.42065 -1.827,-0.45855 -5.06578,1.04904 -5.95727,2.77299 -1.907096,3.68792 -13.914733,4.75308 -23.188877,2.05701 -2.049464,-0.5958 -3.034676,-1.53278 -6.56846,-6.24692 -2.760112,-3.68205 -3.47171,-5.08218 -4.294383,-8.44957 -1.478204,-6.05063 -2.162791,-12.79781 -2.596925,-25.59485 -0.17315,-5.104 -0.459114,-10.36 -0.635474,-11.68 -0.403409,-3.01938 -1.188471,-5.76 -1.649979,-5.76 -1.20273,0 -3.747178,2.49509 -6.914375,6.78025 -3.123429,4.22593 -5.622112,4.61076 -8.867217,1.36566 -2.258117,-2.25812 -2.907267,-4.45692 -2.247198,-7.61172 1.331021,-6.3616 7.356685,-14.8357 11.403808,-16.03757 3.835731,-1.13909 8.60342,-0.18619 10.985167,2.19556 3.149808,3.1498 4.138182,8.825 4.491126,25.78782 0.287155,13.80093 1.056146,23.11419 2.236795,27.08986 0.546492,1.84024 1.887653,3.25095 4.163062,4.37894 2.520373,1.24942 4.230251,1.60465 7.84,1.62876 4.153015,0.0277 6.990856,-0.80279 10.360226,-3.03203 6.294434,-4.16452 13.491904,-14.8333 16.203284,-24.01805 1.83904,-6.22974 4.72154,-12.85813 8.73542,-20.08736 2.95964,-5.33047 4.35742,-8.5168 5.21157,-11.88012 0.91558,-3.60525 0.84338,-15.190698 -0.15857,-25.44 -0.92741,-9.486876 -0.83563,-18.15213 0.23724,-22.4 1.84855,-7.31898 6.12407,-14.191951 13.33083,-21.429514 5.57629,-5.600121 10.81997,-9.124824 21.44,-14.411576 8.78878,-4.375139 16.55399,-6.921669 27.68,-9.077406 11.84563,-2.29517 28.75796,-2.657717 37.71105,-0.808406 8.04532,1.661806 18.42493,5.689171 23.63492,9.170524 3.07482,2.054616 8.59101,7.545797 11.05288,11.002785 3.48125,4.888392 6.37228,11.894007 7.97021,19.313593 1.07295,4.981928 1.01902,11.813734 -0.13639,17.28 -1.82595,8.63862 -3.75706,14.000771 -6.77487,18.811952 -4.94035,7.876209 -12.75559,17.368908 -24.68886,29.988048 -9.5928,10.14416 -13.08843,14.97541 -14.35569,19.84074 -0.61304,2.35362 -0.6168,3.70167 -0.0206,7.37769 0.66041,4.07175 1.54741,6.78787 3.57158,10.93673 2.59369,5.31617 5.62862,8.29266 7.76433,7.61481 2.01383,-0.63916 3.41718,-2.68176 11.06968,-16.11202 4.9994,-8.77402 5.88253,-10.1404 7.09188,-10.97245 2.58765,-1.78036 7.76254,-3.62029 12.42985,-4.41944 4.19769,-0.71873 11.06398,-1.37815 14.4,-1.38292 6.05559,-0.009 8.91358,1.08735 12.64799,4.8504 2.6774,2.69793 3.86804,4.81172 4.48668,7.96538 0.79854,4.07074 -0.0449,8.09188 -3.16331,15.08027 -4.42286,9.91184 -9.60003,15.91613 -12.70552,14.73542 -1.88015,-0.71483 -3.59061,-5.65225 -3.22477,-9.30861 0.21564,-2.15516 1.4995,-5.87667 2.85316,-8.27044 0.54256,-0.95944 1.91888,-2.75944 3.0585,-4 2.30746,-2.51186 4.32158,-6.26758 4.15094,-7.74024 -0.12771,-1.10212 -1.5952,-2.15283 -4.08357,-2.92379 -1.4311,-0.4434 -3.00349,-0.55039 -8.0201,-0.54573 -13.94237,0.013 -17.26287,2.35926 -21.53767,15.2187 -1.53152,4.60711 -3.91793,10.18045 -5.85238,13.66796 -2.601,4.68918 -8.14963,8.68094 -12.75175,9.17378 -2.50243,0.26799 -3.86021,0.77287 -5.27106,1.96003 -2.04149,1.7178 -2.3959,3.45153 -1.28282,6.27543 1.08962,2.76439 3.41864,5.99005 6.67137,9.23979 3.54968,3.54642 5.97415,4.94047 9.55661,5.49498 2.5592,0.39613 2.14218,0.44448 16.96266,-1.96694 5.50822,-0.89624 10.33222,-1.62812 10.72,-1.6264 1.1815,0.005 3.83484,1.42681 5.12849,2.74768 3.34438,3.41475 5.72042,10.36445 5.01834,14.6782 -0.89981,5.52864 -8.47846,16.11051 -14.20914,19.83983 -2.99275,1.94759 -5.93297,2.83397 -8.82674,2.661 -2.72631,-0.16296 -4.57378,-0.94128 -5.85855,-2.46814 -1.19059,-1.41495 -1.35021,-2.60124 -0.58329,-4.33501 1.41984,-3.20977 4.69297,-6.18986 12.19593,-11.10402 7.1215,-4.66431 9.28,-6.70282 9.28,-8.76408 0,-0.79238 -0.31178,-1.30447 -1.41127,-2.31795 -2.36159,-2.17683 -4.79174,-2.14789 -9.89186,0.1178 -6.49996,2.88755 -10.94839,3.84307 -16.53687,3.55209 -3.92787,-0.20451 -6.42821,-0.95897 -11.4961,-3.46888 -4.11124,-2.03612 -6.87567,-4.07616 -9.75481,-7.19868 -2.53908,-2.75372 -6.16895,-5.43515 -7.76219,-5.73404 -2.08277,-0.39073 -3.2311,1.43923 -3.64439,5.80768 -0.49376,5.21885 -2.09282,8.55045 -5.98251,12.46436 -1.616,1.62607 -2.32,2.57283 -2.32,3.12001 0,1.50464 1.78601,2.88554 8.69744,6.72462 13.45032,7.47124 24.74785,16.94876 28.08584,23.56127 2.04454,4.05022 2.41672,6.0019 2.41672,12.67313 0,5.46491 -0.075,6.31879 -0.74147,8.44038 -1.63369,5.2006 -3.89149,7.02761 -8.25209,6.67759 -4.63154,-0.37178 -7.33458,-3.65668 -6.52438,-7.92884 0.1774,-0.93539 0.90166,-2.77438 1.60949,-4.08664 2.15215,-3.98995 2.6995,-6.07521 2.70429,-10.30249 0.004,-3.309 -0.0806,-3.86065 -0.83611,-5.47188 -0.98526,-2.10108 -4.28785,-5.71868 -7.28988,-7.98518 -4.059,-3.06452 -14.75272,-7.96472 -21.23573,-9.73089 -7.44095,-2.02714 -14.09583,-2.68121 -16.358,-1.60774 -2.0851,0.98944 -3.86372,3.40647 -6.74296,9.16322 -4.48691,8.9711 -5.44862,13.07729 -3.8453,16.41817 1.02682,2.13963 4.38033,5.4027 6.92864,6.7418 4.26865,2.24312 7.2167,1.45795 12.09563,-3.22148 3.15523,-3.02622 4.64517,-4.02881 7.33259,-4.93413 3.69462,-1.24463 7.43635,-0.6012 8.96179,1.54108 0.38676,0.54315 0.86195,1.74793 1.05599,2.67729 0.69997,3.35246 -0.96108,6.54987 -4.63683,8.92562 -3.62162,2.34077 -13.01838,5.49127 -19.55513,6.55636 -4.22273,0.68804 -6.09178,0.40775 -9.97189,-1.49542 -3.76068,-1.84459 -5.94387,-3.92336 -7.48551,-7.1275 -1.85102,-3.84713 -2.60815,-7.03097 -2.7893,-11.72932 -0.13746,-3.56547 -0.0644,-4.34732 0.67214,-7.19728 0.89157,-3.44959 2.41058,-6.93767 4.07436,-9.35588 0.57401,-0.8343 2.88551,-3.50889 5.13666,-5.94352 2.25115,-2.43464 4.093,-4.56668 4.093,-4.73788 0,-0.46895 -9.87002,-15.10989 -13.19666,-19.57559 -3.5183,-4.72298 -7.79802,-9.18985 -8.80482,-9.18985 -2.01004,0 -2.2529,3.38162 -0.60021,8.35762 2.3779,7.15954 3.43628,19.00414 2.28347,25.55482 -1.00041,5.68466 -3.72522,14.80508 -6.40366,21.4342 -0.74964,1.85535 -3.26989,7.45432 -5.60056,12.44216 l -4.23757,9.06879 5.76427,5.81121 c 7.22165,7.28044 9.08645,10.05648 9.11401,13.56757 0.01,1.24864 -0.24145,2.19356 -0.98469,3.70328 -1.15326,2.34262 -1.78198,2.99385 -3.4724,3.59673 -1.58245,0.56437 -6.67998,0.54607 -9.38118,-0.0337 z m 48.69672,-93.29353 c 0.43728,-3.06595 0.11006,-13.1904 -0.51981,-16.08316 -0.57862,-2.65744 -1.40702,-4.17082 -2.35867,-4.30898 -1.96453,-0.28522 -5.37398,2.11888 -6.49952,4.58298 -0.897,1.9638 -0.77493,4.93772 0.31617,7.70224 1.30276,3.30083 3.78118,7.32083 5.88192,9.54049 1.66943,1.76394 1.88261,1.89499 2.33941,1.43819 0.28026,-0.28025 0.65209,-1.5507 0.8405,-2.87176 z m -22.51961,-30.75234 c 0.20225,-1.06313 -4.29782,-2.74099 -11.02418,-4.11039 -4.31855,-0.87921 -11.71996,-0.96275 -15.47293,-0.17466 -2.49007,0.52289 -4.96,1.89901 -4.96,2.76345 0,0.52295 0.82499,0.53883 7.52,0.1448 5.19385,-0.30569 12.93328,0.27231 17.12,1.27857 3.74335,0.89969 6.65666,0.94167 6.81711,0.0982 z m 12.13817,-9.56209 c 0.84891,-1.66382 0.15887,-4.22592 -2.02628,-7.52345 -2.89545,-4.36944 -10.2156,-10.78131 -13.3274,-11.67377 -1.54707,-0.44369 -2.68812,0.30609 -6.60603,4.3408 -3.79854,3.91179 -6.69156,6.08062 -8.58473,6.43578 -1.45319,0.27262 -3.51647,-0.35264 -3.76685,-1.14152 -0.34606,-1.09034 2.21358,-5.51589 6.39256,-11.05257 2.49794,-3.30948 4.86109,-8.00456 6.12043,-12.16 0.71519,-2.35989 0.87574,-3.51569 0.889,-6.4 0.0157,-3.41628 -0.022,-3.60958 -1.27943,-6.56 -0.82168,-1.92796 -1.46222,-3.02233 -1.75108,-2.9917 -0.25051,0.0266 -1.37941,0.29303 -2.50868,0.59214 -1.53779,0.40731 -3.0038,0.51568 -5.84001,0.43169 -2.08274,-0.0617 -3.7823,-0.0401 -3.7768,0.0479 0.005,0.088 0.36476,0.736 0.79837,1.44 1.09844,1.78342 1.0572,3.5374 -0.12142,5.16444 -2.81732,3.88919 -7.14311,3.39673 -10.02072,-1.1408 -1.20774,-1.9044 -1.23517,-3.87097 -0.0778,-5.57424 0.45564,-0.67055 0.77964,-1.26783 0.72,-1.3273 -0.0597,-0.0595 -1.32483,-0.69628 -2.81152,-1.41512 -4.0471,-1.95684 -4.81693,-1.75174 -4.81693,1.28331 0,2.16338 0.9595,5.48573 2.33533,8.08626 1.42051,2.68498 3.26605,4.45729 5.5308,5.31135 1.68351,0.63486 2.3204,0.69768 5.73387,0.56557 5.77418,-0.22348 8.97499,-1.44757 11.07287,-4.2346 0.45808,-0.60855 0.92608,-1.01325 1.04,-0.89933 0.38032,0.38032 0.20192,6.31261 -0.25461,8.46653 -0.24785,1.16934 -0.73572,2.68489 -1.08416,3.36788 -0.69472,1.36177 -3.09682,3.73994 -4.8541,4.80574 -1.38602,0.84063 -4.24348,1.70031 -5.6516,1.70031 -2.39031,0 -6.86454,2.59149 -9.72378,5.63204 -3.03766,3.23028 -5.90686,8.3894 -5.6885,10.22852 0.29063,2.44773 2.48869,1.37214 6.09882,-2.98438 4.62538,-5.58168 7.95188,-8.07618 10.76985,-8.07618 0.72337,0 1.3126,0.108 1.30941,0.24 -0.007,0.28112 -1.33065,2.64966 -2.98537,5.34117 -1.45351,2.36422 -1.47439,3.37264 -0.1239,5.98145 1.87668,3.62526 4.13028,4.31898 8.2115,2.52773 2.65425,-1.16496 6.85808,-1.93035 10.60226,-1.93035 2.65979,0 2.85139,-0.0464 3.47808,-0.84315 0.5695,-0.724 0.66323,-1.29073 0.66323,-4.01005 0,-3.78937 0.15417,-3.9347 2.8038,-2.64312 2.56505,1.25036 6.82969,5.61177 8.82065,9.02082 1.79804,3.07873 3.02744,4.63096 3.53529,4.46365 0.19814,-0.0653 0.53814,-0.46732 0.75554,-0.89342 z m 8.89684,-32.10954 c 1.2997,-0.64234 3.48466,-2.00528 4.85548,-3.02876 2.5435,-1.89901 6.4924,-5.79017 6.4924,-6.39747 0,-0.67016 -1.19336,-0.92226 -5.12,-1.08163 -2.2,-0.0893 -4.27515,-0.2755 -4.61144,-0.41381 -0.5313,-0.21851 -0.58138,-0.15004 -0.3821,0.52251 0.48269,1.629 0.54913,4.60709 0.12077,5.41255 -1.39305,2.61934 -7.18786,3.10588 -8.74198,0.73399 -0.89818,-1.37078 -0.98957,-4.49837 -0.18463,-6.31807 0.37366,-0.84472 0.67938,-1.58955 0.67938,-1.65518 0,-0.0656 -0.396,-0.12248 -0.88,-0.12635 -1.24076,-0.01 -3.1776,-0.98744 -4.99484,-2.52092 -0.85517,-0.72163 -1.6781,-1.31205 -1.82874,-1.31205 -0.74449,0 -1.00671,1.5203 -0.8504,4.93058 0.29914,6.52679 1.50014,8.40526 7.11398,11.12687 3.84416,1.86367 4.79037,1.87817 8.33212,0.12774 z m 6.80803,-35.35841 c 3.39909,-0.68223 6.24794,-1.3082 6.33078,-1.39105 0.0829,-0.0828 -0.75422,-0.2484 -1.86015,-0.36791 -4.60341,-0.49744 -10.83641,-1.505252 -12.12808,-1.960981 -2.14228,-0.75584 -2.8427,-1.584305 -2.8427,-3.362387 0,-0.827193 0.2139,-2.110251 0.47534,-2.851241 0.81236,-2.302481 1.20337,-5.204522 0.83262,-6.179665 -0.46826,-1.231613 -1.34602,-1.103187 -2.69951,0.394965 -2.49477,2.761415 -3.58697,6.584331 -3.08164,10.786342 0.5056,4.204247 2.66041,6.191117 6.70099,6.178737 1.15071,-0.004 4.87327,-0.56459 8.27235,-1.24681 z M 159.84,102.64894 c 1.77285,-0.67416 4.29567,-2.45998 6.18265,-4.37649 3.20653,-3.256709 7.42457,-10.083166 8.1806,-13.239477 0.28894,-1.206275 -0.44277,-1.443241 -1.82282,-0.590324 -1.33365,0.824246 -3.38213,2.990517 -7.18196,7.594937 -3.70228,4.486218 -6.15479,6.752691 -7.60043,7.023895 -1.58281,0.296936 -3.31112,-0.661363 -6.71804,-3.724944 -4.58024,-4.118659 -6.82066,-5.489724 -7.73315,-4.732426 -0.59382,0.492823 -0.3134,1.787029 0.9179,4.236368 1.4114,2.807597 3.33723,4.675213 6.40529,6.211681 4.40287,2.20493 6.7285,2.60125 9.36996,1.59678 z"
         id="path2" />
    </g>
  </g>
</svg>
