<?xml version="1.0" encoding="UTF-8" standalone="no"?>
<!-- Created with Inkscape (http://www.inkscape.org/) -->

<svg
   version="1.1"
   id="svg1"
   width="320"
   height="320"
   viewBox="0 0 320 320"
   xmlns="http://www.w3.org/2000/svg"
   xmlns:svg="http://www.w3.org/2000/svg">
  <defs
     id="defs1" />
  <g
     id="g1">
    <g
       id="g2"
       style="fill:#000000">
      <path
         style="fill:#000000;fill-opacity:1"
         d="m 58.00609,280.73824 c 0.31135,-0.0811 0.74335,-0.0758 0.96,0.0119 0.216651,0.0877 -0.03809,0.15404 -0.56609,0.14752 -0.528,-0.007 -0.705259,-0.0782 -0.39391,-0.15938 z m 95.99831,-0.008 c 0.48642,-0.0736 1.20642,-0.0716 1.6,0.004 0.39358,0.076 -0.004,0.13614 -0.8844,0.13374 -0.88,-0.002 -1.20202,-0.0645 -0.7156,-0.13811 z M 38.02,280.4214 c 0.231,-0.0924 0.507,-0.0811 0.613333,0.0253 0.106334,0.10633 -0.08267,0.18196 -0.42,0.16807 -0.372781,-0.0154 -0.448607,-0.0912 -0.193333,-0.19334 z m 155.82373,-0.008 c 0.39805,-0.0765 0.97405,-0.0736 1.28,0.006 0.30595,0.0801 -0.0197,0.14272 -0.72373,0.13917 -0.704,-0.004 -0.95432,-0.0691 -0.55627,-0.14562 z M 216.56,280.10807 c 0.22,-0.0888 0.58,-0.0888 0.8,0 0.22,0.0888 0.04,0.1614 -0.4,0.1614 -0.44,0 -0.62,-0.0726 -0.4,-0.1614 z m 28.48,-45.76 c 0.22,-0.0888 0.58,-0.0888 0.8,0 0.22,0.0888 0.04,0.1614 -0.4,0.1614 -0.44,0 -0.62,-0.0726 -0.4,-0.1614 z M 55.705263,175.81333 c 0.01535,-0.37278 0.09118,-0.4486 0.193333,-0.19333 0.09244,0.231 0.08107,0.507 -0.02526,0.61333 -0.106333,0.10634 -0.181965,-0.0827 -0.16807,-0.42 z M 143.62,173.5414 c 0.231,-0.0924 0.507,-0.0811 0.61333,0.0253 0.10634,0.10633 -0.0827,0.18196 -0.42,0.16807 -0.37278,-0.0154 -0.4486,-0.0912 -0.19333,-0.19334 z m 1.28,0 c 0.231,-0.0924 0.507,-0.0811 0.61333,0.0253 0.10634,0.10633 -0.0827,0.18196 -0.42,0.16807 -0.37278,-0.0154 -0.4486,-0.0912 -0.19333,-0.19334 z m -89.194737,-1.88807 c 0.01535,-0.37278 0.09118,-0.4486 0.193333,-0.19333 0.09244,0.231 0.08107,0.507 -0.02526,0.61333 -0.106333,0.10634 -0.181965,-0.0827 -0.16807,-0.42 z M 295.73053,159.36 c 0,-0.44 0.0726,-0.62 0.1614,-0.4 0.0888,0.22 0.0888,0.58 0,0.8 -0.0888,0.22 -0.1614,0.04 -0.1614,-0.4 z M 77.06,146.0214 c 0.231,-0.0924 0.507,-0.0811 0.613333,0.0253 0.106334,0.10633 -0.08267,0.18196 -0.42,0.16807 -0.372781,-0.0154 -0.448607,-0.0912 -0.193333,-0.19334 z m -2.256269,-12.80772 c 0.398052,-0.0765 0.974052,-0.0736 1.28,0.006 0.305948,0.0801 -0.01973,0.14272 -0.723731,0.13917 -0.704,-0.004 -0.954321,-0.0691 -0.556269,-0.14562 z"
         id="path8" />
      <path
         style="fill:#000000;fill-opacity:1"
         d="m 60.085731,280.72809 c 0.575152,-0.0712 1.439152,-0.0697 1.92,0.003 0.480848,0.073 0.01027,0.13129 -1.045731,0.12949 -1.056,-0.002 -1.449421,-0.0615 -0.874269,-0.13275 z m 88.644999,-0.004 c 0.9299,-0.0648 2.3699,-0.0642 3.2,0.002 0.8301,0.0657 0.0693,0.11873 -1.69073,0.1179 -1.76,-8.4e-4 -2.43917,-0.0546 -1.50927,-0.11942 z M 39.12609,280.41824 c 0.31135,-0.0811 0.74335,-0.0758 0.96,0.0119 0.216651,0.0877 -0.03809,0.15404 -0.56609,0.14752 -0.528,-0.007 -0.705259,-0.0782 -0.39391,-0.15938 z m 151.51964,-0.0102 c 0.57515,-0.0712 1.43915,-0.0697 1.92,0.003 0.48085,0.073 0.0103,0.13129 -1.04573,0.12949 -1.056,-0.002 -1.44942,-0.0615 -0.87427,-0.13275 z M 214.8,280.09942 c 0.308,-0.0805 0.812,-0.0805 1.12,0 0.308,0.0805 0.056,0.14634 -0.56,0.14634 -0.616,0 -0.868,-0.0659 -0.56,-0.14634 z m 15.84,-0.31135 c 0.22,-0.0888 0.58,-0.0888 0.8,0 0.22,0.0888 0.04,0.1614 -0.4,0.1614 -0.44,0 -0.62,-0.0726 -0.4,-0.1614 z m 10.58,-0.32667 c 0.231,-0.0924 0.507,-0.0811 0.61333,0.0253 0.10634,0.10633 -0.0827,0.18196 -0.42,0.16807 -0.37278,-0.0154 -0.4486,-0.0912 -0.19333,-0.19334 z m -92.49627,-36.16772 c 0.39805,-0.0765 0.97405,-0.0736 1.28,0.006 0.30595,0.0801 -0.0197,0.14272 -0.72373,0.13917 -0.704,-0.004 -0.95432,-0.0691 -0.55627,-0.14562 z M 96.88,220.58807 c 0.22,-0.0888 0.58,-0.0888 0.8,0 0.22,0.0888 0.04,0.1614 -0.4,0.1614 -0.44,0 -0.62,-0.0726 -0.4,-0.1614 z M 203.46,191.1414 c 0.231,-0.0924 0.507,-0.0811 0.61333,0.0253 0.10634,0.10633 -0.0827,0.18196 -0.42,0.16807 -0.37278,-0.0154 -0.4486,-0.0912 -0.19333,-0.19334 z M 55.775893,173.76 c 0,-0.968 0.05999,-1.364 0.133308,-0.88 0.07332,0.484 0.07332,1.276 0,1.76 -0.07332,0.484 -0.133308,0.088 -0.133308,-0.88 z M 74.16,166.50807 c 0.22,-0.0888 0.58,-0.0888 0.8,0 0.22,0.0888 0.04,0.1614 -0.4,0.1614 -0.44,0 -0.62,-0.0726 -0.4,-0.1614 z M 71.94,146.0214 c 0.231,-0.0924 0.507,-0.0811 0.613333,0.0253 0.106334,0.10633 -0.08267,0.18196 -0.42,0.16807 -0.372781,-0.0154 -0.448607,-0.0912 -0.193333,-0.19334 z m 6.06,0.007 c 0.22,-0.0888 0.58,-0.0888 0.8,0 0.22,0.0888 0.04,0.1614 -0.4,0.1614 -0.44,0 -0.62,-0.0726 -0.4,-0.1614 z m -4.46,-12.807 c 0.231,-0.0924 0.507,-0.0811 0.613333,0.0253 0.106334,0.10633 -0.08267,0.18196 -0.42,0.16807 -0.372781,-0.0154 -0.448607,-0.0912 -0.193333,-0.19334 z m 3.2,0 c 0.231,-0.0924 0.507,-0.0811 0.613333,0.0253 0.106334,0.10633 -0.08267,0.18196 -0.42,0.16807 -0.372781,-0.0154 -0.448607,-0.0912 -0.193333,-0.19334 z m 1.892863,-14.09235 c 0.568074,-0.0707 1.576074,-0.0719 2.24,-0.003 0.663925,0.0693 0.199137,0.12712 -1.032863,0.12854 -1.232,0.001 -1.775212,-0.0553 -1.207137,-0.12595 z M 294.48,99.924787 c 0.836,-0.06592 2.204,-0.06592 3.04,0 0.836,0.06592 0.152,0.119853 -1.52,0.119853 -1.672,0 -2.356,-0.05393 -1.52,-0.119853 z M 96.24,98.654165 c 0.396,-0.07627 1.044,-0.07627 1.44,0 0.396,0.07627 0.072,0.138678 -0.72,0.138678 -0.792,0 -1.116,-0.0624 -0.72,-0.138678 z m 7.99286,-13.125119 c 0.56808,-0.07069 1.57608,-0.07185 2.24,-0.0026 0.66393,0.06927 0.19914,0.127111 -1.03286,0.12853 -1.232,0.0014 -1.77521,-0.05526 -1.20714,-0.125949 z M 252.2896,64.24 251.68,63.52 l 0.72,0.609596 c 0.396,0.335278 0.72,0.659278 0.72,0.72 0,0.256081 -0.25753,0.06703 -0.8304,-0.609596 z M 151.3,59.621404 c 0.231,-0.09244 0.507,-0.08107 0.61333,0.02526 0.10634,0.106333 -0.0827,0.181965 -0.42,0.16807 -0.37278,-0.01535 -0.4486,-0.09118 -0.19333,-0.193333 z M 257.4096,57.84 256.8,57.12 l 0.72,0.609596 c 0.67662,0.57287 0.86568,0.830404 0.6096,0.830404 -0.0607,0 -0.38473,-0.324 -0.72,-0.72 z"
         id="path7" />
      <path
         style="fill:#000000;fill-opacity:1"
         d="m 63.12609,280.73824 c 0.31135,-0.0811 0.74335,-0.0758 0.96,0.0119 0.216651,0.0877 -0.03809,0.15404 -0.56609,0.14752 -0.528,-0.007 -0.705259,-0.0782 -0.39391,-0.15938 z m 81.59391,-0.007 c 0.484,-0.0733 1.276,-0.0733 1.76,0 0.484,0.0733 0.088,0.13331 -0.88,0.13331 -0.968,0 -1.364,-0.06 -0.88,-0.13331 z M 40.58,280.4214 c 0.231,-0.0924 0.507,-0.0811 0.613333,0.0253 0.106334,0.10633 -0.08267,0.18196 -0.42,0.16807 -0.372781,-0.0154 -0.448607,-0.0912 -0.193333,-0.19334 z m 147.50373,-0.008 c 0.39805,-0.0765 0.97405,-0.0736 1.28,0.006 0.30595,0.0801 -0.0197,0.14272 -0.72373,0.13917 -0.704,-0.004 -0.95432,-0.0691 -0.55627,-0.14562 z M 213.36,280.10807 c 0.22,-0.0888 0.58,-0.0888 0.8,0 0.22,0.0888 0.04,0.1614 -0.4,0.1614 -0.44,0 -0.62,-0.0726 -0.4,-0.1614 z m 16,-0.32 c 0.22,-0.0888 0.58,-0.0888 0.8,0 0.22,0.0888 0.04,0.1614 -0.4,0.1614 -0.44,0 -0.62,-0.0726 -0.4,-0.1614 z m -64.64,-46.4 c 0.22,-0.0888 0.58,-0.0888 0.8,0 0.22,0.0888 0.04,0.1614 -0.4,0.1614 -0.44,0 -0.62,-0.0726 -0.4,-0.1614 z M 261.81053,172.48 c 0,-0.44 0.0726,-0.62 0.1614,-0.4 0.0888,0.22 0.0888,0.58 0,0.8 -0.0888,0.22 -0.1614,0.04 -0.1614,-0.4 z M 82.18,119.1414 c 0.231,-0.0924 0.507,-0.0811 0.613333,0.0253 0.106334,0.10633 -0.08267,0.18196 -0.42,0.16807 -0.372781,-0.0154 -0.448607,-0.0912 -0.193333,-0.19334 z m 16.3,-20.47333 c 0.22,-0.08877 0.58,-0.08877 0.8,0 0.22,0.08877 0.04,0.161404 -0.4,0.161404 -0.44,0 -0.62,-0.07263 -0.4,-0.161404 z m 9.28,-13.12 c 0.22,-0.08877 0.58,-0.08877 0.8,0 0.22,0.08877 0.04,0.161404 -0.4,0.161404 -0.44,0 -0.62,-0.07263 -0.4,-0.161404 z M 269.71918,80.4 c -0.39804,-0.507538 -0.38672,-0.518856 0.12082,-0.120818 0.308,0.241551 0.56,0.493551 0.56,0.56 0,0.263371 -0.26278,0.09386 -0.68082,-0.439182 z m -28.7834,-11.2 -0.77578,-0.88 0.88,0.77578 c 0.484,0.42668 0.88,0.82268 0.88,0.88 0,0.250968 -0.25914,0.04671 -0.98422,-0.77578 z M 176.26,53.541404 c 0.231,-0.09244 0.507,-0.08107 0.61333,0.02526 0.10634,0.106333 -0.0827,0.181965 -0.42,0.16807 -0.37278,-0.01535 -0.4486,-0.09118 -0.19333,-0.193333 z"
         id="path6" />
      <path
         style="fill:#000000;fill-opacity:1"
         d="m 64.88,280.73417 c 0.396,-0.0763 1.044,-0.0763 1.44,0 0.396,0.0763 0.072,0.13867 -0.72,0.13867 -0.792,0 -1.116,-0.0624 -0.72,-0.13867 z m 76.48573,-0.006 c 0.57515,-0.0712 1.43915,-0.0697 1.92,0.003 0.48085,0.073 0.0103,0.13129 -1.04573,0.12949 -1.056,-0.002 -1.44942,-0.0615 -0.87427,-0.13275 z M 41.52,280.42807 c 0.22,-0.0888 0.58,-0.0888 0.8,0 0.22,0.0888 0.04,0.1614 -0.4,0.1614 -0.44,0 -0.62,-0.0726 -0.4,-0.1614 z m 144.48,-0.009 c 0.308,-0.0805 0.812,-0.0805 1.12,0 0.308,0.0805 0.056,0.14634 -0.56,0.14634 -0.616,0 -0.868,-0.0659 -0.56,-0.14634 z m 26.08,-0.31135 c 0.22,-0.0888 0.58,-0.0888 0.8,0 0.22,0.0888 0.04,0.1614 -0.4,0.1614 -0.44,0 -0.62,-0.0726 -0.4,-0.1614 z m 16.34,-0.32667 c 0.231,-0.0924 0.507,-0.0811 0.61333,0.0253 0.10634,0.10633 -0.0827,0.18196 -0.42,0.16807 -0.37278,-0.0154 -0.4486,-0.0912 -0.19333,-0.19334 z m -72,-75.52 c 0.231,-0.0924 0.507,-0.0811 0.61333,0.0253 0.10634,0.10633 -0.0827,0.18196 -0.42,0.16807 -0.37278,-0.0154 -0.4486,-0.0912 -0.19333,-0.19334 z m 79.66,-3.83333 c 0.22,-0.0888 0.58,-0.0888 0.8,0 0.22,0.0888 0.04,0.1614 -0.4,0.1614 -0.44,0 -0.62,-0.0726 -0.4,-0.1614 z M 65.559182,175.12 c -0.398038,-0.50754 -0.38672,-0.51886 0.120818,-0.12082 0.308,0.24155 0.56,0.49355 0.56,0.56 0,0.26337 -0.262779,0.0939 -0.680818,-0.43918 z m 203.906078,-0.90667 c 0.0154,-0.37278 0.0912,-0.4486 0.19334,-0.19333 0.0924,0.231 0.0811,0.507 -0.0253,0.61333 -0.10633,0.10634 -0.18196,-0.0827 -0.16807,-0.42 z M 167.3,131.3014 c 0.231,-0.0924 0.507,-0.0811 0.61333,0.0253 0.10634,0.10633 -0.0827,0.18196 -0.42,0.16807 -0.37278,-0.0154 -0.4486,-0.0912 -0.19333,-0.19334 z M 90.64,108.89942 c 0.308,-0.0805 0.812,-0.0805 1.12,0 0.308,0.0805 0.056,0.14634 -0.56,0.14634 -0.616,0 -0.868,-0.0659 -0.56,-0.14634 z M 288.66526,95.493333 c 0.0154,-0.372781 0.0912,-0.448607 0.19334,-0.193333 0.0924,0.231 0.0811,0.507 -0.0253,0.613333 -0.10633,0.106334 -0.18196,-0.08267 -0.16807,-0.42 z M 109.04,85.54807 c 0.22,-0.08877 0.58,-0.08877 0.8,0 0.22,0.08877 0.04,0.161404 -0.4,0.161404 -0.44,0 -0.62,-0.07263 -0.4,-0.161404 z m 164.26526,-8.614737 c 0.0154,-0.372781 0.0912,-0.448607 0.19334,-0.193333 0.0924,0.231 0.0811,0.507 -0.0253,0.613333 -0.10633,0.106334 -0.18196,-0.08267 -0.16807,-0.42 z M 255.8096,56.24 255.2,55.52 l 0.72,0.609596 c 0.67662,0.57287 0.86568,0.830404 0.6096,0.830404 -0.0607,0 -0.38473,-0.324 -0.72,-0.72 z"
         id="path5" />
      <path
         style="fill:#000000;fill-opacity:1"
         d="m 68.571684,280.72318 c 1.018426,-0.0637 2.602426,-0.0631 3.52,10e-4 0.917574,0.0644 0.08432,0.11653 -1.851684,0.11581 -1.936,-7.2e-4 -2.686742,-0.0534 -1.668316,-0.11712 z m 67.359046,5.3e-4 c 0.9299,-0.0648 2.3699,-0.0642 3.2,0.002 0.8301,0.0657 0.0693,0.11873 -1.69073,0.1179 -1.76,-8.4e-4 -2.43917,-0.0546 -1.50927,-0.11942 z M 42.96,280.41942 c 0.308,-0.0805 0.812,-0.0805 1.12,0 0.308,0.0805 0.056,0.14634 -0.56,0.14634 -0.616,0 -0.868,-0.0659 -0.56,-0.14634 z m 139.2,-0.0125 c 0.66,-0.069 1.74,-0.069 2.4,0 0.66,0.069 0.12,0.12552 -1.2,0.12552 -1.32,0 -1.86,-0.0565 -1.2,-0.12552 z M 30.98,280.1014 c 0.231,-0.0924 0.507,-0.0811 0.613333,0.0253 0.106334,0.10633 -0.08267,0.18196 -0.42,0.16807 -0.372781,-0.0154 -0.448607,-0.0912 -0.193333,-0.19334 z m 179.18373,-0.008 c 0.39805,-0.0765 0.97405,-0.0736 1.28,0.006 0.30595,0.0801 -0.0197,0.14272 -0.72373,0.13917 -0.704,-0.004 -0.95432,-0.0691 -0.55627,-0.14562 z m 16.80236,-0.31544 c 0.31135,-0.0811 0.74335,-0.0758 0.96,0.0119 0.21665,0.0877 -0.0381,0.15404 -0.56609,0.14752 -0.528,-0.007 -0.70526,-0.0782 -0.39391,-0.15938 z M 238.98,279.4614 c 0.231,-0.0924 0.507,-0.0811 0.61333,0.0253 0.10634,0.10633 -0.0827,0.18196 -0.42,0.16807 -0.37278,-0.0154 -0.4486,-0.0912 -0.19333,-0.19334 z m -8.87474,-39.00807 c 0.0154,-0.37278 0.0912,-0.4486 0.19334,-0.19333 0.0924,0.231 0.0811,0.507 -0.0253,0.61333 -0.10633,0.10634 -0.18196,-0.0827 -0.16807,-0.42 z M 242.18,234.0214 c 0.231,-0.0924 0.507,-0.0811 0.61333,0.0253 0.10634,0.10633 -0.0827,0.18196 -0.42,0.16807 -0.37278,-0.0154 -0.4486,-0.0912 -0.19333,-0.19334 z m -101.03474,-4.76807 c 0.0154,-0.37278 0.0912,-0.4486 0.19334,-0.19333 0.0924,0.231 0.0811,0.507 -0.0253,0.61333 -0.10633,0.10634 -0.18196,-0.0827 -0.16807,-0.42 z m 61.50083,-14.75509 c 0.31135,-0.0811 0.74335,-0.0758 0.96,0.0119 0.21665,0.0877 -0.0381,0.15404 -0.56609,0.14752 -0.528,-0.007 -0.70526,-0.0782 -0.39391,-0.15938 z M 235.14,200.4214 c 0.231,-0.0924 0.507,-0.0811 0.61333,0.0253 0.10634,0.10633 -0.0827,0.18196 -0.42,0.16807 -0.37278,-0.0154 -0.4486,-0.0912 -0.19333,-0.19334 z m 2.24,0 c 0.231,-0.0924 0.507,-0.0811 0.61333,0.0253 0.10634,0.10633 -0.0827,0.18196 -0.42,0.16807 -0.37278,-0.0154 -0.4486,-0.0912 -0.19333,-0.19334 z m 14.46,-6.30222 c 0,-0.0665 0.252,-0.31845 0.56,-0.56 0.50754,-0.39804 0.51886,-0.38672 0.12082,0.12082 -0.41804,0.53304 -0.68082,0.70255 -0.68082,0.43918 z M 269.51424,172.8 c 0,-0.616 0.0659,-0.868 0.14634,-0.56 0.0805,0.308 0.0805,0.812 0,1.12 -0.0805,0.308 -0.14634,0.056 -0.14634,-0.56 z M 218.72,146.88 c 0.86677,-0.88 1.64794,-1.6 1.73594,-1.6 0.088,0 -0.54917,0.72 -1.41594,1.6 -0.86677,0.88 -1.64794,1.6 -1.73594,1.6 -0.088,0 0.54917,-0.72 1.41594,-1.6 z m 88.82526,-8.50667 c 0.0154,-0.37278 0.0912,-0.4486 0.19334,-0.19333 0.0924,0.231 0.0811,0.507 -0.0253,0.61333 -0.10633,0.10634 -0.18196,-0.0827 -0.16807,-0.42 z M 235.44,135.14807 c 0.22,-0.0888 0.58,-0.0888 0.8,0 0.22,0.0888 0.04,0.1614 -0.4,0.1614 -0.44,0 -0.62,-0.0726 -0.4,-0.1614 z m -70.4,-3.8539 c 0.396,-0.0763 1.044,-0.0763 1.44,0 0.396,0.0763 0.072,0.13867 -0.72,0.13867 -0.792,0 -1.116,-0.0624 -0.72,-0.13867 z m 142.50526,-1.24084 c 0.0154,-0.37278 0.0912,-0.4486 0.19334,-0.19333 0.0924,0.231 0.0811,0.507 -0.0253,0.61333 -0.10633,0.10634 -0.18196,-0.0827 -0.16807,-0.42 z M 83.78,119.1414 c 0.231,-0.0924 0.507,-0.0811 0.613333,0.0253 0.106334,0.10633 -0.08267,0.18196 -0.42,0.16807 -0.372781,-0.0154 -0.448607,-0.0912 -0.193333,-0.19334 z m 4.783731,-10.24772 c 0.398052,-0.0765 0.974052,-0.0736 1.28,0.006 0.305948,0.0801 -0.01973,0.14272 -0.723731,0.13917 -0.704,-0.004 -0.954321,-0.0691 -0.556269,-0.14562 z m 4.16,0 c 0.398052,-0.0765 0.974052,-0.0736 1.28,0.006 0.305948,0.0801 -0.01973,0.14272 -0.723731,0.13917 -0.704,-0.004 -0.954321,-0.0691 -0.556269,-0.14562 z M 86.72,94.599182 c 0,-0.06645 0.252,-0.318449 0.56,-0.56 0.507538,-0.398038 0.518856,-0.38672 0.120818,0.120818 C 86.982779,94.693039 86.72,94.862553 86.72,94.599182 Z m 4.48,-4.48 c 0,-0.06645 0.252,-0.318449 0.56,-0.56 0.507538,-0.398038 0.518856,-0.38672 0.120818,0.120818 C 91.462779,90.213039 91.2,90.382553 91.2,90.119182 Z m 19.14,-4.577778 c 0.231,-0.09244 0.507,-0.08107 0.61333,0.02526 0.10634,0.106333 -0.0827,0.181965 -0.42,0.16807 -0.37278,-0.01535 -0.4486,-0.09118 -0.19333,-0.193333 z m 162.96526,-7.648071 c 0.0154,-0.372781 0.0912,-0.448607 0.19334,-0.193333 0.0924,0.231 0.0811,0.507 -0.0253,0.613333 -0.10633,0.106334 -0.18196,-0.08267 -0.16807,-0.42 z M 176.9,58.341404 c 0.231,-0.09244 0.507,-0.08107 0.61333,0.02526 0.10634,0.106333 -0.0827,0.181965 -0.42,0.16807 -0.37278,-0.01535 -0.4486,-0.09118 -0.19333,-0.193333 z M 214,34.34807 c 0.22,-0.08877 0.58,-0.08877 0.8,0 0.22,0.08877 0.04,0.161404 -0.4,0.161404 -0.44,0 -0.62,-0.07263 -0.4,-0.161404 z"
         id="path4" />
      <path
         style="fill:#000000;fill-opacity:1"
         d="m 74.485731,280.72809 c 0.575152,-0.0712 1.439152,-0.0697 1.92,0.003 0.480848,0.073 0.01027,0.13129 -1.045731,0.12949 -1.056,-0.002 -1.449421,-0.0615 -0.874269,-0.13275 z m 57.434269,0.003 c 0.484,-0.0733 1.276,-0.0733 1.76,0 0.484,0.0733 0.088,0.13331 -0.88,0.13331 -0.968,0 -1.364,-0.06 -0.88,-0.13331 z m -87.2,-0.30273 c 0.22,-0.0888 0.58,-0.0888 0.8,0 0.22,0.0888 0.04,0.1614 -0.4,0.1614 -0.44,0 -0.62,-0.0726 -0.4,-0.1614 z m 134.2444,-0.0177 c 0.48642,-0.0736 1.20642,-0.0716 1.6,0.004 0.39358,0.076 -0.004,0.13614 -0.8844,0.13374 -0.88,-0.002 -1.20202,-0.0645 -0.7156,-0.13811 z m 29.44169,-0.31213 c 0.31135,-0.0811 0.74335,-0.0758 0.96,0.0119 0.21665,0.0877 -0.0381,0.15404 -0.56609,0.14752 -0.528,-0.007 -0.70526,-0.0782 -0.39391,-0.15938 z M 225.86,279.7814 c 0.231,-0.0924 0.507,-0.0811 0.61333,0.0253 0.10634,0.10633 -0.0827,0.18196 -0.42,0.16807 -0.37278,-0.0154 -0.4486,-0.0912 -0.19333,-0.19334 z m 12.16,-0.32 c 0.231,-0.0924 0.507,-0.0811 0.61333,0.0253 0.10634,0.10633 -0.0827,0.18196 -0.42,0.16807 -0.37278,-0.0154 -0.4486,-0.0912 -0.19333,-0.19334 z M 17.12,267.52 c 0.318556,-0.352 0.651192,-0.64 0.739192,-0.64 0.088,0 -0.100636,0.288 -0.419192,0.64 -0.318556,0.352 -0.651192,0.64 -0.739192,0.64 -0.088,0 0.100636,-0.288 0.419192,-0.64 z M 88.9,229.5414 c 0.231,-0.0924 0.507,-0.0811 0.613333,0.0253 0.106334,0.10633 -0.08267,0.18196 -0.42,0.16807 -0.372781,-0.0154 -0.448607,-0.0912 -0.193333,-0.19334 z m 1.6,0 c 0.231,-0.0924 0.507,-0.0811 0.613333,0.0253 0.106334,0.10633 -0.08267,0.18196 -0.42,0.16807 -0.372781,-0.0154 -0.448607,-0.0912 -0.193333,-0.19334 z m 46.72,-7.04 c 0.231,-0.0924 0.507,-0.0811 0.61333,0.0253 0.10634,0.10633 -0.0827,0.18196 -0.42,0.16807 -0.37278,-0.0154 -0.4486,-0.0912 -0.19333,-0.19334 z m 23.68,-4.48 c 0.231,-0.0924 0.507,-0.0811 0.61333,0.0253 0.10634,0.10633 -0.0827,0.18196 -0.42,0.16807 -0.37278,-0.0154 -0.4486,-0.0912 -0.19333,-0.19334 z m 41.92,-33.92 c 0.231,-0.0924 0.507,-0.0811 0.61333,0.0253 0.10634,0.10633 -0.0827,0.18196 -0.42,0.16807 -0.37278,-0.0154 -0.4486,-0.0912 -0.19333,-0.19334 z M 219.36,156.8 c 0.31856,-0.352 0.65119,-0.64 0.73919,-0.64 0.088,0 -0.10063,0.288 -0.41919,0.64 -0.31856,0.352 -0.65119,0.64 -0.73919,0.64 -0.088,0 0.10063,-0.288 0.41919,-0.64 z m 39.47918,-11.76 c -0.39804,-0.50754 -0.38672,-0.51886 0.12082,-0.12082 0.53304,0.41804 0.70255,0.68082 0.43918,0.68082 -0.0664,0 -0.31845,-0.252 -0.56,-0.56 z m 37.44,-25.28 c -0.39804,-0.50754 -0.38672,-0.51886 0.12082,-0.12082 0.308,0.24155 0.56,0.49355 0.56,0.56 0,0.26337 -0.26278,0.0939 -0.68082,-0.43918 z M 94.66,108.9014 c 0.231,-0.0924 0.507,-0.0811 0.613333,0.0253 0.106334,0.10633 -0.08267,0.18196 -0.42,0.16807 -0.372781,-0.0154 -0.448607,-0.0912 -0.193333,-0.19334 z M 89.28,92 c 0.955976,-0.968 1.810137,-1.76 1.898137,-1.76 0.088,0 -0.622161,0.792 -1.578137,1.76 -0.955976,0.968 -1.810137,1.76 -1.898137,1.76 -0.088,0 0.622161,-0.792 1.578137,-1.76 z m 86.66,-33.658596 c 0.231,-0.09244 0.507,-0.08107 0.61333,0.02526 0.10634,0.106333 -0.0827,0.181965 -0.42,0.16807 -0.37278,-0.01535 -0.4486,-0.09118 -0.19333,-0.193333 z m 43.2,-17.28 c 0.231,-0.09244 0.507,-0.08107 0.61333,0.02526 0.10634,0.106333 -0.0827,0.181965 -0.42,0.16807 -0.37278,-0.01535 -0.4486,-0.09118 -0.19333,-0.193333 z"
         id="path3" />
      <path
         style="fill:#000000;fill-opacity:1"
         d="m 56.48,280.63566 c -30.426303,-0.39168 -35.759537,-0.7697 -40.305351,-2.8568 -2.476371,-1.13697 -3.511108,-2.23955 -3.469786,-3.6973 0.04425,-1.56114 0.945219,-2.84777 4.330704,-6.18447 3.623438,-3.57123 7.378944,-6.58539 13.95163,-11.19755 6.311129,-4.42863 10.185313,-7.6723 14.452803,-12.10066 6.010848,-6.23744 8.033254,-9.30329 12.999212,-19.70602 l 3.394767,-7.11138 -0.678563,-4.17074 c -0.37321,-2.29391 -1.465233,-8.99474 -2.426718,-14.89074 -2.105815,-12.91324 -2.729809,-18.60783 -2.725272,-24.8709 0.0068,-9.40539 1.383388,-18.33208 5.154286,-33.42404 4.33323,-17.34254 4.921345,-18.75068 11.929238,-28.56254 6.661632,-9.32705 9.759213,-13.014826 16.960193,-20.191691 C 105.34512,76.424082 116.19173,68.62727 135.2,59.213838 c 12.00257,-5.944013 18.53138,-8.497417 35.2,-13.766651 18.98061,-6.000093 27.37148,-8.276701 37.2213,-10.098868 5.36812,-0.993073 8.12043,-0.991247 13.9334,0.0092 19.4303,3.344218 34.98472,7.985857 46.4453,13.859876 2.51672,1.289924 3.40473,2.003222 7.04,5.654913 4.78438,4.805993 10.723,11.951897 13.9483,16.783884 3.73463,5.595062 8.42146,15.384265 11.97117,25.003778 4.47764,12.13412 6.6284,24.12691 6.65343,37.09999 0.0413,21.39195 -3.92919,35.48465 -17.36203,61.62438 -10.33598,20.11337 -20.80621,36.17831 -28.13946,43.17562 -7.0623,6.73878 -11.79907,11.57189 -12.31052,12.56092 -0.50266,0.97205 -0.49931,1.06066 0.0614,1.6214 0.32624,0.32624 1.87668,0.90562 3.44542,1.28752 6.30296,1.53442 13.05125,5.91977 25.17765,16.36163 0.44546,0.38359 -4.22385,5.37042 -5.51052,5.88524 -4.25879,1.70404 -16.67241,2.73142 -41.13487,3.40445 -31.0347,0.85384 -137.96649,1.43588 -175.36,0.9545 z m 102.08,-38.21941 c 4.72347,-0.9692 7.51129,-2.29152 9.02581,-4.28113 1.28664,-1.69024 1.3542,-2.86258 0.22587,-3.91934 -0.72982,-0.68352 -1.10085,-0.77031 -3.12,-0.72975 -1.63975,0.0329 -2.92891,0.29214 -4.53168,0.91114 -3.68085,1.42158 -7.01968,2.35357 -9.85,2.74951 -2.29141,0.32056 -2.92669,0.299 -4.47795,-0.15197 -2.91601,-0.84771 -3.92174,-2.55951 -4.43736,-7.55268 -0.48098,-4.65759 -1.74253,-6.85003 -3.94158,-6.85003 -1.5934,0 -3.97748,1.6156 -5.12465,3.47278 -0.8822,1.42821 -0.96805,1.81222 -0.96386,4.31154 0.004,2.33642 0.14069,3.0398 0.92144,4.73866 1.87894,4.08838 6.37137,6.83281 13.25983,8.10043 2.45178,0.45117 8.82911,0.0596 13.01413,-0.79916 z m 74.81028,0.67099 c 1.47988,-0.62195 3.5094,-2.9722 4.67427,-5.41295 1.44549,-3.02876 2.43001,-3.57708 5.90324,-3.28776 4.14341,0.34514 8.11564,-0.85967 12.30233,-3.73141 3.24252,-2.22411 6.59062,-3.22896 7.90003,-2.371 0.43303,0.28373 0.93133,0.51588 1.10733,0.51588 0.67814,0 1.07912,-1.53873 1.32906,-5.10013 0.41137,-5.86176 1.27011,-7.70022 3.96232,-8.48286 2.04804,-0.59539 2.58542,-1.24127 3.04382,-3.65841 0.59425,-3.13347 4.24673,-10.51194 11.50353,-23.2386 3.4728,-6.09043 5.635,-10.45051 7.5693,-15.26347 2.38485,-5.93403 3.03378,-8.55008 3.31817,-13.37653 0.26279,-4.45978 0.84694,-6.72 1.73677,-6.72 1.52871,0 2.63852,-4.1473 2.37001,-8.85658 -0.19743,-3.46267 -0.98878,-5.29198 -2.52021,-5.82584 -0.97086,-0.33844 -1.00406,-0.40751 -0.80236,-1.66891 0.26215,-1.6394 0.58769,-2.27589 3.95799,-7.73867 1.49643,-2.4255 2.66528,-4.45325 2.59745,-4.5061 -0.0678,-0.0529 -1.27533,-0.7816 -2.68333,-1.61944 -3.89205,-2.31599 -6.39013,-4.98446 -4.66617,-4.98446 2.87064,0 1.82792,-1.61124 -3.09383,-4.78064 -1.452,-0.93503 -2.64,-1.76291 -2.64,-1.83973 0,-0.0768 1.944,-2.54253 4.32,-5.47933 2.376,-2.93681 4.32,-5.4478 4.32,-5.57998 0,-0.132174 -1.56251,-0.24032 -3.47225,-0.24032 -1.90974,0 -3.93011,-0.159612 -4.48972,-0.354694 -2.07032,-0.721717 -2.45704,-3.452467 -1.319,-9.313959 0.68622,-3.534372 0.81861,-5.691347 0.34934,-5.691347 -0.1604,0 -0.85583,0.828 -1.5454,1.84 -1.44198,2.116222 -3.06468,3.351167 -4.22393,3.214598 -1.78593,-0.210398 -3.89518,-6.35531 -5.92242,-17.253933 -1.0215,-5.491711 -3.30905,-11.386244 -4.75536,-12.253595 -0.4594,-0.275499 -0.67386,-0.218977 -1.04,0.274091 -0.61385,0.826645 -0.59304,5.275936 0.0405,8.658839 0.66985,3.576832 0.97705,11.030606 0.49198,11.936971 -0.50142,0.936916 -1.36616,0.88686 -2.59892,-0.150442 -2.01974,-1.699498 -3.31562,-4.445785 -3.83893,-8.135605 -0.39457,-2.782086 -1.1895,-4.570788 -3.75571,-8.450924 -3.19208,-4.82647 -10.86772,-12.261363 -16.13103,-15.625087 -1.25324,-0.80093 -2.58352,-1.312693 -4.32,-1.661923 -1.38003,-0.277541 -4.81314,-1.279826 -7.62914,-2.2273 -2.816,-0.947475 -6.27651,-2.015385 -7.69003,-2.373134 -5.34414,-1.352556 -12.65175,-1.521011 -12.88529,-0.297033 -0.15107,0.791773 1.83496,1.824473 8.57532,4.458996 10.03884,3.923762 18.29201,8.453499 24.47077,13.430734 5.69667,4.588889 7.8696,7.124451 6.91803,8.07255 -0.21959,0.218789 -1.1883,0.367341 -2.26572,0.347451 -2.57687,-0.04757 -5.88692,-1.646809 -8.81197,-4.257474 -7.05163,-6.293704 -23.69419,-13.610692 -40.81935,-17.946432 -6.41493,-1.624131 -10.6752,-2.000144 -12.92537,-1.140798 -1.82538,0.697121 -2.2821,1.859618 -1.09215,2.779856 1.83238,1.417052 8.46492,3.642531 19.32576,6.48455 12.36635,3.235977 22.96352,7.391879 28.95375,11.354821 2.25314,1.490607 5.56018,4.585403 6.75395,6.320476 1.01606,1.476805 1.21465,2.911484 0.44395,3.207232 -0.85445,0.327882 -4.87013,-1.194266 -7.92117,-3.002525 -5.98456,-3.546872 -13.17397,-6.632336 -23.27048,-9.986945 -17.22242,-5.722223 -33.01848,-9.204228 -38.59442,-8.50756 -2.13099,0.266249 -3.64558,1.463297 -3.64558,2.881258 0,1.210196 1.36007,1.664369 5.76,1.923459 6.24432,0.367698 17.58365,3.022166 26.72,6.254989 7.73771,2.737926 22.34314,8.956883 25.05283,10.667439 1.43789,0.9077 3.43665,3.064046 3.74727,4.042708 0.35044,1.104159 -0.52313,1.750936 -2.26267,1.675228 -2.0469,-0.08908 -7.15988,-1.86747 -12.61743,-4.388562 -11.12092,-5.137266 -21.40386,-8.631794 -36.64053,-12.451821 -11.77868,-2.953066 -30.64368,-5.471249 -31.10217,-4.151655 -0.29456,0.847765 13.37683,5.906491 30.4627,11.271894 19.58481,6.150136 31.52,11.01046 31.52,12.835777 0,1.0572 -2.17522,1.510769 -4.24347,0.884832 -7.04551,-2.132256 -9.49417,-2.814566 -11.75761,-3.276222 -3.59861,-0.733978 -17.02256,-2.648914 -16.72352,-2.385622 0.13453,0.118448 3.2686,1.402055 6.9646,2.852459 3.696,1.450403 7.52994,3.065201 8.51987,3.588438 2.12263,1.121936 4.05313,2.66763 3.73594,2.991257 -1.48734,1.517509 -15.15399,-1.389969 -41.36395,-8.799873 -18.45496,-5.217462 -32.61105,-7.501871 -35.94461,-5.800489 -2.18245,1.113876 -2.91334,2.464036 -1.97775,3.653445 1.27562,1.621692 10.06674,4.028992 27.1905,7.44566 13.09696,2.61321 33.90238,7.234693 37.30648,8.286845 2.79205,0.862976 3.53872,1.434119 3.83924,2.936718 0.23046,1.152269 -0.47823,2.031383 -1.63757,2.031383 -2.93483,0 -17.8462,-2.781244 -30.89878,-5.763185 -14.08131,-3.216962 -26.17669,-5.570201 -33.59094,-6.535348 -2.03586,-0.265018 -6.67841,-0.580787 -10.31678,-0.701709 -5.91985,-0.196747 -6.74622,-0.160785 -7.86144,0.342111 -2.07979,0.937852 -2.512575,2.796424 -0.89594,3.847534 2.44764,1.591414 18.57473,4.871801 37.12323,7.551179 14.12079,2.039783 27.21937,4.784918 33.8125,7.086248 2.53684,0.88548 11.72806,5.91178 11.40365,6.23619 -0.0805,0.0805 -2.35523,-0.29317 -5.05499,-0.83035 -7.94165,-1.58016 -13.87148,-2.52833 -48.26866,-7.71814 -24.25812,-3.660036 -37.422798,-4.43727 -39.733784,-2.345856 -0.802427,0.726186 -0.737101,1.225516 0.284229,2.172546 1.287642,1.19397 4.315763,2.285 7.929555,2.85701 4.73699,0.7498 17.12494,1.74338 26.4,2.11742 16.0624,0.64776 30.01861,2.42901 36.8,4.69683 3.7412,1.25113 8.63171,3.4648 10.97127,4.96609 1.59626,1.02432 2.59402,2.44258 2.28497,3.24796 -0.41938,1.09289 -2.4365,0.86318 -11.81624,-1.34562 -11.81003,-2.78111 -21.47115,-4.49349 -35.36,-6.26737 -23.84591,-3.0456 -39.270407,-3.99617 -45.118068,-2.78052 -1.822248,0.37882 -1.607436,1.1592 0.540311,1.96287 5.834078,2.18308 14.211796,3.56541 60.097757,9.91615 17.26065,2.38892 21.15455,3.05617 25.28,4.33194 5.65564,1.74898 7.1414,3.68089 3.80878,4.95252 -0.95556,0.36461 -2.67641,0.47161 -7.32878,0.45572 -5.22021,-0.0178 -6.69765,-0.1412 -10.44771,-0.87234 -2.40223,-0.46836 -6.00223,-1.34609 -8,-1.9505 -5.2315,-1.58277 -8.09186,-2.27354 -13.87229,-3.35016 -17.86293,-3.32699 -50.009746,-6.52245 -56.921415,-5.6581 -3.013696,0.37688 -4.233947,2.23058 -2.728337,4.14465 1.386883,1.76314 4.470468,2.77596 13.249752,4.35197 6.914568,1.24126 21.24797,3.29078 29.12,4.16383 17.98684,1.99485 37.75034,5.48871 45.41339,8.02834 6.47672,2.14646 11.38661,4.95693 11.38661,6.5178 0,1.92938 -2.71011,2.07149 -7.68,0.40269 -10.79356,-3.62427 -43.98378,-9.18134 -75.2,-12.5908 -9.902227,-1.08153 -18.161083,-1.22472 -19.776464,-0.34287 -1.218398,0.66513 -1.492644,1.18561 -1.212612,2.30135 0.6642,2.64638 12.1228,4.95021 33.469076,6.72916 13.55187,1.12939 27.80083,3.40785 36.04897,5.76435 7.03084,2.00873 15.19171,5.84245 18.0871,8.49677 1.6628,1.52436 1.68848,1.57443 1.06393,2.07458 -1.30975,1.04884 -7.52855,-0.095 -16.76177,-3.08301 -13.04543,-4.22172 -33.46818,-8.05156 -51.07823,-9.57859 -6.48844,-0.56263 -17.652765,-0.75617 -20.458964,-0.35465 -5.832161,0.83446 -6.099916,3.12486 -0.661036,5.65455 3.031615,1.41004 4.975313,1.87426 14.699475,3.51069 24.073625,4.05123 44.654825,8.71849 61.906645,14.03875 4.90314,1.51207 6.48518,2.98952 3.95388,3.69249 -4.24831,1.17982 -18.22157,-0.89799 -31.09401,-4.62366 -11.88305,-3.4393 -22.004025,-5.42506 -37.78599,-7.4137 -8.644129,-1.08922 -16.911155,-1.24806 -17.819159,-0.34236 -0.526353,0.52502 -0.529369,0.62325 -0.04421,1.44 0.734106,1.23586 2.644585,2.48089 4.998181,3.25725 1.94258,0.64079 3.671865,0.88358 11.568891,1.62432 6.515058,0.61112 18.239823,2.86164 29.776297,5.71544 3.97337,0.9829 42.44805,11.17562 49.17872,13.02843 2.80307,0.77163 4.39346,2.61189 3.14949,3.6443 -1.27613,1.05909 -15.99877,-1.71374 -41.60821,-7.83641 -17.18266,-4.10801 -43.36104,-10.09729 -46.239998,-10.57912 -4.058206,-0.67919 -6.885597,-0.61206 -7.68,0.18234 -1.320961,1.32096 -0.541693,3.53639 1.814006,5.15716 3.237011,2.22712 8.117871,3.84001 17.705994,5.85097 13.089982,2.74543 47.730568,11.27563 55.899248,13.76512 10.65957,3.24862 16.68074,5.96985 17.01169,7.68833 0.10383,0.53915 -0.0652,0.57579 -1.91854,0.41585 -1.11782,-0.0965 -10.6004,-2.12413 -21.0724,-4.50592 C 84.198452,188.08069 71.04573,185.28 67.603522,185.28 c -4.756764,0 -4.361192,1.58367 1.039438,4.16137 7.389808,3.52713 21.2143,6.92635 48.80069,11.9993 13.81572,2.54062 23.14155,4.77864 32.88501,7.89176 4.22024,1.34841 6.66205,2.44547 9.67134,4.34516 4.80451,3.03296 4.70835,4.53934 -0.26576,4.16343 -2.51648,-0.19018 -4.99832,-0.99399 -9.6976,-3.14083 -5.39657,-2.46539 -13.89014,-4.48922 -26.83037,-6.39309 -13.29042,-1.9554 -24.609741,-4.10616 -32.690063,-6.21136 C 88.164293,201.48298 81.74,199.47592 76.24,197.63561 c -5.5,-1.84032 -9.991708,-3.24919 -9.981574,-3.13082 0.05817,0.67939 6.843217,5.7394 9.161217,6.83206 5.18455,2.44391 13.675956,4.95782 24.129088,7.1435 10.783289,2.25472 21.264579,5.04633 32.451269,8.64313 15.14555,4.86968 23.60276,6.77436 36.14974,8.14141 4.92236,0.53631 9.41214,0.97511 9.9773,0.97511 1.17272,0 0.93537,0.59702 3.30764,-8.32 3.52447,-13.24794 9.81208,-30.45775 14.20758,-38.8875 5.66081,-10.85637 14.83323,-23.43535 23.22941,-31.85663 8.07347,-8.09759 13.51629,-11.82334 17.25132,-11.80894 3.58851,0.0138 10.99299,2.10496 15.99686,4.51775 2.29506,1.10665 3.22085,1.82799 6.44766,5.02375 6.42404,6.36225 9.06097,11.53335 10.38818,20.37157 1.45287,9.675 -0.2801,20.59229 -4.56609,28.76529 -2.16353,4.12565 -7.80014,8.02192 -22.99264,15.8935 l -5.80304,3.00669 -3.15696,-2.55643 c -2.86771,-2.32221 -3.27435,-2.79065 -4.43822,-5.11274 -3.28752,-6.55908 -3.81925,-15.90344 -1.44084,-25.32089 1.2387,-4.90473 2.53707,-7.50391 4.96067,-9.93067 1.59141,-1.59349 2.32438,-2.0775 3.79238,-2.50426 2.05657,-0.59786 3.12778,-0.4652 5.37127,0.66518 2.38751,1.20296 4.40091,4.24146 4.91447,7.41666 0.29196,1.80504 -0.33516,5.381 -1.22161,6.96591 -0.62328,1.11439 -0.87083,1.28356 -2.00053,1.3671 -0.93299,0.069 -1.52762,-0.0922 -2.1519,-0.58323 -0.84535,-0.66496 -0.86265,-0.7506 -0.86265,-4.27134 0,-3.83531 -0.18547,-4.36077 -1.53921,-4.36077 -1.39229,0 -4.48362,1.91566 -5.63086,3.48938 -4.40396,6.04106 -5.26358,13.32293 -2.27012,19.23024 0.97163,1.91742 1.71435,2.44408 4.1313,2.92947 2.35043,0.47204 7.6495,-0.0565 10.22414,-1.01983 6.91821,-2.58844 14.38982,-11.71436 16.88966,-20.62926 0.97653,-3.48251 0.98355,-8.98482 0.0169,-13.21478 -1.67737,-7.33966 -6.20859,-15.26844 -10.55291,-18.4656 -2.81558,-2.07209 -4.49956,-2.53704 -9.18886,-2.53704 -4.88185,0 -6.0474,0.3533 -10.60489,3.21459 -10.47906,6.57895 -21.74585,19.43374 -24.30753,27.73353 -0.4901,1.58792 -0.51791,2.11046 -0.19587,3.68 0.20643,1.00612 0.28637,2.1893 0.17764,2.6293 -0.2923,1.18285 -1.3874,2.23951 -2.32513,2.24352 -1.86321,0.008 -3.25489,0.40095 -3.15915,0.89209 0.0522,0.26787 1.31893,1.36873 2.81493,2.44636 1.82355,1.31358 2.72,2.16628 2.72,2.58725 0,0.63846 -0.28759,0.73572 -3.77682,1.27724 -2.14061,0.33222 -1.90888,1.47928 1.05222,5.20862 2.73485,3.44438 2.6295,4.56707 -0.58716,6.25738 -3.76031,1.97599 -3.80912,2.57539 -0.36824,4.52208 3.55648,2.01209 5.19463,4.65203 3.88799,6.26566 -0.56144,0.69335 -0.92703,0.7918 -3.29969,0.88862 -1.92229,0.0784 -3.44099,-0.0781 -5.43203,-0.55997 -5.39042,-1.30453 -8.27627,-0.61988 -8.27627,1.96349 0,0.84637 1.86768,2.78639 4.16,4.3211 2.31411,1.54931 8.64769,4.5802 15.27688,7.31065 3.38628,1.39475 6.15828,2.6102 6.16,2.701 0.002,0.0908 -2.88456,1.37697 -6.41394,2.85816 -3.52938,1.48119 -6.47854,2.79254 -6.55368,2.91413 -0.0751,0.12158 1.19253,0.31905 2.81706,0.43883 1.62452,0.11977 5.32968,0.58425 8.23368,1.03218 8.12343,1.25299 10.13229,0.81695 16.3063,-3.53947 1.89485,-1.33701 2.15956,-0.869 1.27501,2.25416 -0.92547,3.26759 -0.99048,5.8986 -0.16821,6.8072 0.70983,0.78435 1.1223,0.82318 2.51718,0.23696 z M 96.072095,228.93509 c 5.564285,-1.14528 8.925315,-2.76034 14.375995,-6.90803 2.34955,-1.78788 4.33191,-3.29938 4.40524,-3.35888 0.46598,-0.37807 -0.93147,-0.24004 -7.49333,0.74016 -12.939179,1.93284 -14.975587,1.4757 -20.88563,-4.6885 -3.144033,-3.27925 -6.69747,-6.09109 -8.264089,-6.5394 -0.915811,-0.26207 -2.302922,0.88392 -3.043455,2.51441 -1.453115,3.19944 0.239381,12.08054 2.853687,14.97427 3.210944,3.55413 10.363955,4.84828 18.051582,3.26597 z M 175.04,77.764014 c 0,-1.062561 -5.86759,-3.52545 -15.68,-6.581593 -10.29414,-3.206182 -12.92223,-3.950211 -16.96,-4.801493 -8.60901,-1.815034 -7.70749,-0.263236 1.9752,3.399956 13.62388,5.154235 30.6648,9.590588 30.6648,7.98313 z"
         id="path2" />
    </g>
  </g>
</svg>
